<?xml version="1.0" standalone="no"?>
<!DOCTYPE svg PUBLIC "-//W3C//DTD SVG 20010904//EN"
 "http://www.w3.org/TR/2001/REC-SVG-20010904/DTD/svg10.dtd">
<svg version="1.0" xmlns="http://www.w3.org/2000/svg"
 width="736.000000pt" height="1194.000000pt" viewBox="0 0 736.000000 1194.000000"
 preserveAspectRatio="xMidYMid meet">

<g transform="translate(0.000000,1194.000000) scale(0.100000,-0.100000)"
fill="#000000" stroke="none">
<path d="M3692 11469 c-63 -56 -115 -99 -118 -97 -2 2 0 19 5 36 5 17 6 34 1
37 -7 5 -82 -68 -139 -135 l-21 -25 6 73 c9 96 -3 94 -86 -10 -94 -118 -130
-173 -150 -232 -19 -56 -24 -52 -37 29 -12 71 -34 66 -50 -10 -29 -131 -15
-324 37 -530 12 -47 15 -77 9 -93 -12 -32 -11 -189 1 -234 13 -44 60 -88 139
-128 32 -16 61 -36 65 -45 5 -14 -27 -259 -38 -291 -2 -6 -52 -35 -111 -64
l-107 -52 -22 27 c-19 23 -27 27 -51 21 -18 -5 -31 -3 -36 5 -5 8 -37 -8 -107
-54 l-100 -65 -23 24 c-38 40 -44 36 -114 -81 -6 -9 -77 -40 -160 -70 l-150
-53 3 -79 4 -78 -51 -39 c-43 -32 -60 -55 -102 -141 -44 -90 -55 -105 -89
-120 -64 -29 -77 -87 -34 -150 15 -23 28 -58 30 -84 3 -25 10 -60 16 -78 10
-28 8 -40 -22 -105 -31 -65 -35 -86 -41 -188 -4 -66 -16 -147 -28 -190 -24
-86 -26 -159 -9 -279 l12 -84 -47 -137 c-54 -158 -55 -165 -35 -520 l12 -216
-24 -31 -23 -32 26 -44 c25 -41 26 -50 20 -131 -4 -53 -11 -90 -19 -97 -21
-18 -17 -40 15 -74 27 -27 32 -45 60 -211 18 -101 31 -216 31 -263 0 -45 4
-91 10 -101 12 -23 61 -40 114 -40 27 0 58 -10 91 -30 70 -42 90 -39 145 19
64 68 78 59 60 -41 -10 -49 -15 -173 -17 -376 l-2 -304 -103 -206 c-137 -274
-137 -248 -2 -594 16 -42 17 -52 5 -85 -29 -81 -133 -318 -231 -527 -88 -189
-103 -227 -104 -273 0 -50 2 -56 46 -100 25 -27 63 -75 84 -107 44 -70 48 -44
-50 -314 -36 -101 -66 -196 -66 -210 1 -23 22 -42 150 -131 83 -58 150 -105
150 -106 0 0 -9 -104 -20 -230 -40 -454 -49 -530 -71 -580 -20 -45 -20 -49 -5
-89 25 -65 21 -112 -11 -139 -14 -12 -39 -33 -55 -47 l-29 -25 27 -38 27 -37
-38 -133 c-21 -72 -56 -176 -77 -231 -75 -191 -118 -388 -118 -543 0 -92 15
-107 97 -101 47 3 77 15 163 62 193 107 217 128 329 295 106 157 149 202 243
254 55 31 58 35 77 97 48 157 62 233 60 314 -1 62 2 89 15 108 9 13 13 28 9
31 -3 4 2 16 12 27 12 13 26 65 42 152 72 408 123 708 123 735 0 29 4 32 122
79 67 27 131 57 141 67 16 16 18 29 11 120 l-6 102 83 74 c46 41 87 79 91 85
3 6 -3 157 -13 334 l-19 324 41 75 c23 41 45 71 49 66 4 -4 21 -30 38 -57 l30
-50 -30 -52 c-34 -62 -33 -67 24 -156 l41 -63 -42 -120 c-83 -231 -141 -406
-141 -420 0 -23 49 -73 126 -131 41 -30 74 -61 74 -69 0 -22 34 -85 60 -113
27 -29 51 -28 88 2 l29 25 11 -62 c94 -492 102 -546 102 -691 l0 -144 46 -56
46 -57 8 -152 c10 -161 21 -242 46 -319 15 -46 41 -75 127 -141 20 -15 81 -87
137 -161 154 -205 227 -264 433 -345 90 -36 194 -43 221 -15 32 31 12 319 -30
449 -9 28 -41 99 -71 159 -38 77 -53 117 -50 135 6 29 -8 60 -33 78 -11 8 -25
50 -40 120 -12 59 -34 135 -48 168 -28 66 -30 121 -6 166 13 26 12 34 -11 95
-22 58 -27 97 -39 298 -8 127 -18 299 -21 381 l-6 150 163 125 c232 177 258
203 258 252 0 44 -1 47 -76 174 l-54 91 46 76 c83 135 77 162 -106 503 l-121
225 17 54 18 55 -57 149 -56 150 35 76 c110 237 102 362 -59 900 l-53 180 4
148 c4 132 6 148 21 142 16 -7 87 -21 152 -30 20 -3 52 -17 70 -30 63 -46 78
-51 106 -35 47 27 67 65 74 143 5 49 30 140 78 281 39 115 71 218 71 228 0 10
6 21 14 24 25 10 26 33 5 94 l-20 59 22 81 c14 53 28 84 40 91 23 12 25 47 4
76 -14 20 -12 39 16 200 46 270 48 355 10 539 l-31 152 20 73 c17 63 20 108
20 294 0 207 1 222 22 262 l22 41 -17 131 c-18 142 -19 139 35 248 33 67 30
86 -18 128 -12 11 -37 56 -54 100 -39 101 -67 141 -129 189 -49 36 -50 39 -53
94 l-3 57 -65 30 c-36 16 -114 54 -175 85 -96 48 -111 59 -120 88 -14 45 -29
52 -107 52 -56 0 -71 4 -96 25 -17 14 -39 25 -49 25 -11 0 -29 11 -41 25 -25
29 -31 30 -77 11 -32 -14 -42 -13 -140 16 -85 25 -106 36 -110 52 -22 95 -43
270 -35 291 6 15 38 41 88 69 122 71 126 78 130 201 4 111 -5 145 -38 145 -11
0 -20 4 -20 9 0 6 27 88 60 183 33 95 60 180 60 190 0 27 -20 22 -58 -14 -33
-32 -34 -32 -27 -8 12 41 18 351 7 362 -7 7 -24 -11 -53 -52 l-44 -62 -8 54
c-14 90 -41 191 -54 195 -6 2 -15 -6 -19 -19 -4 -13 -15 -43 -26 -67 l-19 -44
-20 40 c-25 51 -155 208 -171 208 -7 0 -20 -21 -28 -47 -8 -26 -18 -49 -21
-52 -3 -3 -21 33 -40 81 -19 48 -38 88 -44 89 -5 2 -61 -42 -123 -97z m-28
-705 l128 -66 82 38 c106 48 170 70 232 79 45 6 54 4 81 -19 17 -14 40 -46 52
-71 34 -72 25 -125 -21 -125 -24 0 -23 -10 8 -73 l27 -54 -73 -217 -73 -216
-116 -94 c-179 -144 -195 -150 -290 -101 -80 42 -253 152 -263 168 -10 15 -22
62 -38 151 -12 64 -11 70 5 82 17 13 17 14 0 20 -19 8 -58 88 -70 144 -6 29
-5 33 6 23 7 -7 32 -13 56 -13 33 0 43 -4 43 -16 0 -9 5 -34 12 -55 l11 -39
103 0 c94 0 103 2 109 20 3 11 4 24 0 29 -3 5 0 13 6 16 14 9 -53 49 -155 92
-93 40 -150 42 -178 9 l-18 -21 0 25 c0 14 6 37 14 52 8 15 12 37 9 48 -5 18
-11 21 -39 16 -30 -6 -33 -4 -39 24 -12 53 2 93 48 137 64 62 118 85 177 77
19 -3 93 -34 164 -70z m-442 -236 c19 -16 48 -59 48 -72 0 -5 -14 3 -30 19
-26 25 -33 28 -50 17 -23 -14 -24 -13 -10 22 11 29 19 32 42 14z m1128 -139
c0 -55 -4 -109 -10 -119 -10 -19 -149 -104 -157 -96 -3 3 17 71 44 151 49 149
57 163 106 164 15 1 17 -10 17 -100z m-1128 65 c-13 -86 -14 -104 -3 -104 6 0
11 17 11 39 0 41 8 55 26 43 22 -14 32 -46 23 -75 -6 -23 -5 -28 6 -24 9 4 17
-9 25 -44 7 -28 10 -53 7 -56 -24 -24 -73 60 -62 106 5 20 4 23 -6 14 -18 -18
-13 -69 11 -103 19 -26 31 -33 56 -29 10 1 24 -24 24 -43 0 -25 -13 -23 -72
16 -87 55 -93 65 -97 168 -3 78 -1 91 15 103 24 18 40 13 36 -11z m291 -40
c30 -6 37 -11 37 -30 0 -13 9 -28 20 -34 17 -9 24 -6 45 16 27 29 45 25 45
-10 0 -22 -5 -24 -86 -31 -47 -4 -90 -3 -94 2 -5 4 -13 27 -18 51 -11 46 -11
46 51 36z m627 -417 c0 -40 45 -272 48 -249 2 13 9 22 15 19 7 -2 53 -17 102
-32 50 -15 92 -29 94 -31 4 -4 -38 -115 -49 -127 -3 -4 -42 2 -86 14 -78 20
-179 21 -272 3 -29 -6 -32 -4 -32 18 0 13 14 64 30 113 17 49 26 85 21 80 -12
-13 -71 -182 -71 -205 0 -14 -10 -20 -41 -25 -22 -4 -43 -5 -45 -2 -3 3 28 82
69 176 73 170 75 173 138 226 35 29 67 51 72 48 4 -2 7 -14 7 -26z m-650 -100
l65 -32 49 -113 c27 -62 51 -111 53 -109 2 2 -15 47 -37 100 -45 109 -49 127
-22 106 53 -43 149 -74 199 -64 l34 6 -31 -42 c-16 -23 -30 -49 -30 -58 0 -9
14 9 32 39 17 30 30 57 29 59 -1 2 21 20 50 40 28 20 60 42 71 50 17 13 18 12
9 -10 -5 -13 -39 -86 -75 -161 l-65 -138 -88 0 c-48 0 -105 3 -125 6 -35 6
-38 9 -38 40 0 38 -44 172 -61 189 -8 7 -9 3 -3 -15 14 -40 9 -101 -12 -147
-18 -42 -20 -43 -69 -43 -80 -1 -293 -36 -282 -47 3 -3 38 0 78 7 102 15 223
14 369 -5 140 -19 229 -15 399 16 58 10 126 19 152 19 50 0 179 -26 192 -39 4
-4 1 -24 -7 -43 -15 -35 -16 -36 -53 -27 -21 5 -56 8 -78 8 -41 -1 -37 -3 53
-20 28 -6 52 -16 52 -22 0 -28 -64 -169 -81 -178 -18 -9 -329 -39 -416 -39
l-43 0 0 70 c0 92 -18 90 -22 -2 l-3 -73 -95 -8 c-52 -4 -136 -6 -186 -5 l-91
3 -84 58 c-100 68 -169 130 -169 151 0 17 13 20 185 38 117 12 119 12 65 20
-34 4 -90 2 -150 -7 -52 -7 -97 -12 -99 -10 -2 3 -6 35 -9 73 l-4 69 38 31
c22 18 67 47 101 65 53 27 66 30 82 20 19 -12 24 -5 36 57 16 84 40 150 54
150 9 0 45 -15 81 -33z m1010 -193 c0 -8 5 -14 10 -14 18 0 10 -32 -48 -205
-66 -193 -67 -196 -87 -188 -10 3 -15 -1 -16 -13 -1 -18 -1 -18 -6 -1 -3 13
-11 17 -24 14 -10 -3 -22 -1 -25 4 -3 5 -10 7 -15 4 -5 -4 -9 -4 -9 -2 0 15
104 263 111 265 5 2 7 8 4 13 -6 8 30 103 47 125 12 16 58 14 58 -2z m-1772
-119 c-5 -25 -7 -72 -4 -103 4 -31 9 -104 12 -162 5 -101 5 -104 -13 -87 -14
14 -15 21 -6 37 13 19 2 37 -16 26 -5 -3 -12 1 -15 10 -9 23 -7 36 4 29 6 -3
10 1 10 10 0 9 -4 14 -9 11 -10 -6 -20 55 -23 144 -2 45 3 63 25 98 15 23 32
40 36 38 5 -3 4 -26 -1 -51z m-82 -126 c-1 -67 -2 -69 -18 -50 -16 21 -59 26
-105 13 -28 -9 -62 -53 -69 -91 -6 -26 -4 -30 10 -25 11 4 16 1 16 -10 0 -12
-11 -16 -49 -16 -46 0 -49 1 -55 31 -3 17 -6 51 -6 74 0 42 2 44 43 59 23 9
83 31 132 50 50 19 93 34 96 35 4 1 6 -31 5 -70z m181 29 c-3 -7 -5 -2 -5 12
0 14 2 19 5 13 2 -7 2 -19 0 -25z m2236 -67 c84 -39 87 -41 87 -74 0 -34 -89
-482 -112 -560 -6 -23 -11 -49 -10 -57 2 -13 1 -13 -7 0 -5 8 -11 116 -13 240
-5 246 -11 276 -54 267 -20 -4 -23 -1 -19 14 4 11 2 19 -5 19 -6 0 -8 5 -4 12
5 7 7 26 6 43 -2 16 2 52 7 80 6 34 6 54 -1 63 -14 16 8 8 125 -47z m-2185
-33 c2 -4 10 -8 17 -8 7 0 12 -6 12 -12 -3 -27 14 -308 24 -403 7 -58 21 -125
35 -159 12 -33 20 -64 17 -70 -3 -6 -3 -8 2 -4 10 10 48 -50 39 -63 -3 -5 0
-8 6 -7 6 2 25 -16 42 -40 l32 -42 -30 -31 -29 -30 -17 22 c-10 11 -18 26 -18
33 0 6 9 0 19 -13 l18 -23 0 31 c0 20 -3 27 -9 19 -5 -9 -8 -3 -8 16 0 34 -26
67 -46 59 -15 -6 -19 -39 -5 -47 5 -3 11 -16 14 -28 6 -23 6 -22 -15 2 -12 15
-29 24 -42 22 -19 -2 -19 -1 4 12 14 9 19 15 11 16 -11 0 -11 4 2 18 22 24 21
31 -2 25 -13 -3 -26 5 -42 26 -12 16 -25 28 -29 26 -4 -2 -7 1 -8 8 -1 23 -53
152 -63 158 -6 3 -12 24 -15 47 -3 34 0 41 19 46 21 6 21 7 3 21 -10 8 -24 16
-30 18 -6 2 7 19 28 37 l38 34 -5 64 c-5 46 -2 72 8 92 8 15 16 47 17 71 l3
44 -47 -3 -47 -3 10 33 c5 18 9 34 9 36 0 6 75 -42 78 -50z m135 -18 c-3 -12
-8 -19 -11 -16 -5 6 5 36 12 36 2 0 2 -9 -1 -20z m-357 -26 c5 -26 3 -39 -7
-45 -37 -24 -99 15 -71 43 11 11 17 8 33 -12 l20 -25 -7 27 c-3 15 -3 32 1 37
12 21 24 11 31 -25z m332 -77 c14 -34 16 -127 2 -127 -5 0 -10 -8 -10 -18 0
-10 -6 -27 -14 -37 -12 -17 -15 -12 -20 55 -14 162 -15 184 -10 192 7 10 35
-26 52 -65z m-458 28 c0 -8 -4 -15 -10 -15 -5 0 -7 7 -4 15 4 8 8 15 10 15 2
0 4 -7 4 -15z m-136 -41 c3 -8 2 -12 -4 -9 -6 3 -10 10 -10 16 0 14 7 11 14
-7z m291 -44 c-10 -11 -21 -18 -23 -15 -3 3 3 12 14 20 27 20 30 18 9 -5z
m122 12 c7 -4 15 -22 19 -38 5 -27 3 -31 -17 -29 -16 1 -25 10 -31 30 -10 40
1 55 29 37z m-73 -36 c16 6 40 -52 25 -61 -5 -4 -9 1 -9 10 0 9 -4 13 -10 10
-5 -3 -10 -1 -10 5 0 6 -4 8 -10 5 -6 -4 -7 1 -3 11 5 13 2 15 -18 10 -20 -6
-21 -5 -6 4 9 6 18 19 18 28 1 11 3 9 6 -5 3 -13 10 -20 17 -17z m1174 7 c-10
-2 -28 -2 -40 0 -13 2 -5 4 17 4 22 1 32 -1 23 -4z m-1098 -72 c5 7 12 11 15
7 6 -6 -15 -48 -25 -48 -3 0 -6 15 -6 33 -1 17 1 23 3 13 4 -15 7 -16 13 -5z
m182 -206 c22 -107 29 -126 59 -156 10 -10 16 -25 13 -32 -3 -8 2 -20 11 -27
8 -7 15 -19 15 -27 0 -8 5 -11 12 -7 6 4 8 3 5 -3 -4 -6 4 -22 18 -34 13 -13
25 -28 25 -33 0 -31 -107 123 -141 202 -22 51 -50 189 -48 237 2 27 2 27 6 5
2 -14 13 -70 25 -125z m25 -37 c-3 -8 -6 -5 -6 6 -1 11 2 17 5 13 3 -3 4 -12
1 -19z m35 -30 c-8 -8 -9 -4 -5 13 4 13 8 18 11 10 2 -7 -1 -18 -6 -23z m-789
-133 c94 -58 112 -75 82 -75 -33 0 -132 -45 -161 -74 -38 -38 -65 -110 -93
-245 -29 -138 -38 -276 -21 -326 8 -23 41 -69 81 -112 59 -61 69 -77 69 -107
0 -20 5 -36 10 -36 16 0 12 58 -6 96 -9 19 -29 43 -43 54 -44 31 -83 96 -93
153 -15 94 29 371 72 457 33 65 90 101 186 119 44 8 45 8 59 -25 8 -19 41 -65
74 -104 54 -63 60 -73 54 -102 -35 -190 -85 -383 -110 -425 -53 -91 -131 -288
-119 -300 3 -3 10 5 15 18 29 78 45 105 92 154 57 61 74 69 57 28 -7 -18 -12
-96 -13 -208 -1 -188 0 -183 -63 -410 -17 -60 -36 -147 -43 -192 l-12 -81
-101 -7 c-56 -4 -114 -5 -131 -3 l-30 3 -5 170 c-3 94 -12 209 -20 256 -14 89
-15 78 25 269 2 14 -7 -9 -21 -50 -24 -71 -25 -82 -18 -190 4 -63 8 -191 8
-285 l1 -170 -31 -3 -31 -3 -7 98 c-17 252 -24 471 -17 503 5 19 21 71 37 115
28 77 29 79 34 45 4 -24 8 -5 12 60 4 62 1 125 -9 185 -16 98 -13 142 19 255
14 51 21 98 19 147 -3 83 9 135 51 220 31 61 31 62 14 102 -9 23 -16 57 -16
77 0 41 -10 44 143 -51z m3102 48 c-9 -21 -35 -58 -58 -82 -39 -42 -29 -41 19
2 12 10 24 15 27 10 2 -4 10 -60 17 -124 13 -115 13 -117 -9 -148 -12 -17 -31
-36 -42 -41 -17 -10 -19 -7 -19 24 0 19 -4 38 -10 41 -12 7 -12 -123 -1 -200
7 -47 14 -47 24 0 3 11 5 -36 6 -104 1 -110 -2 -129 -23 -180 -39 -88 -60
-203 -52 -280 4 -36 9 -95 12 -131 l4 -65 -15 40 c-23 61 -78 165 -87 165 -5
0 1 -18 12 -41 20 -38 21 -55 19 -234 -2 -190 -20 -346 -51 -441 l-13 -39
-135 0 -135 0 -2 50 c-6 118 -26 245 -50 323 -38 121 -31 181 37 322 61 126
62 142 11 257 -36 83 -40 103 -10 53 12 -19 44 -61 70 -93 27 -32 49 -63 49
-68 0 -5 5 -9 11 -9 19 0 -3 44 -48 95 -74 85 -114 196 -128 360 l-6 70 80 85
c44 46 77 89 74 94 -3 5 -1 6 5 2 7 -4 12 -4 12 1 0 4 18 28 40 51 22 24 37
49 33 54 -3 6 -1 8 5 5 11 -8 88 91 84 108 -3 14 19 -17 40 -55 l18 -32 50 54
c27 29 55 68 61 86 11 32 35 50 72 51 16 1 16 -1 2 -36z m-2345 -155 c0 -10
-4 -18 -10 -18 -5 0 -10 9 -10 19 0 11 -5 23 -10 26 -6 4 -7 11 -4 17 9 14 34
-19 34 -44z m-70 -28 c0 -5 -2 -10 -4 -10 -3 0 -8 5 -11 10 -3 6 -1 10 4 10 6
0 11 -4 11 -10z m174 -36 c3 -8 2 -12 -4 -9 -6 3 -10 10 -10 16 0 14 7 11 14
-7z m-34 -29 c-10 -12 -10 -18 1 -32 7 -11 3 -9 -10 3 -24 23 -21 44 6 44 13
0 13 -3 3 -15z m60 12 c0 -2 -10 -12 -22 -23 l-23 -19 19 23 c18 21 26 27 26
19z m181 -154 c13 -16 12 -17 -3 -4 -10 7 -18 15 -18 17 0 8 8 3 21 -13z
m-106 -13 c3 -5 1 -10 -4 -10 -6 0 -11 5 -11 10 0 6 2 10 4 10 3 0 8 -4 11
-10z m992 -56 c-3 -3 -12 -4 -19 -1 -8 3 -5 6 6 6 11 1 17 -2 13 -5z m570
-228 c-2 -5 -11 27 -21 72 -11 46 -16 88 -11 99 5 12 12 -11 21 -72 8 -49 13
-94 11 -99z m-2099 114 c6 -11 48 -41 92 -66 l80 -47 0 -52 c0 -74 15 -109 56
-131 18 -10 34 -20 34 -22 0 -2 -11 -13 -25 -24 -31 -24 -31 -37 -4 -72 20
-25 20 -28 5 -45 -21 -23 -20 -38 4 -51 26 -14 25 -38 -2 -67 -20 -21 -20 -24
-5 -41 22 -24 21 -35 -3 -57 -25 -23 -25 -33 1 -61 l21 -23 -76 -110 c-41 -61
-85 -129 -96 -151 -12 -23 -73 -247 -136 -498 -63 -251 -116 -461 -118 -467
-1 -5 -13 6 -24 25 -18 29 -22 51 -22 120 0 86 -7 110 -53 174 -18 25 -18 26
2 51 16 21 18 32 10 51 -16 45 -11 218 8 252 15 26 15 34 4 70 -19 57 -9 112
39 217 85 182 93 264 50 475 -27 129 -27 161 -2 201 48 76 63 112 98 238 20
72 39 131 43 131 3 0 12 -9 19 -20z m2065 -108 c14 -54 46 -146 71 -205 25
-60 46 -112 46 -118 0 -5 -20 -49 -44 -97 -48 -96 -76 -179 -76 -227 0 -17 7
-55 15 -85 8 -30 22 -80 30 -111 8 -30 19 -111 25 -179 8 -117 8 -125 -10
-143 -23 -20 -25 -54 -7 -79 19 -25 22 -185 4 -206 -29 -34 -30 -60 -2 -86 30
-28 26 -43 -23 -83 -20 -17 -53 -60 -72 -97 -32 -60 -50 -81 -50 -57 0 5 -23
145 -51 312 -28 167 -54 354 -58 414 l-7 111 -68 134 -67 135 22 39 c20 36 21
43 10 105 -11 61 -10 71 8 111 23 50 26 81 10 97 -7 7 -2 15 15 27 15 9 26 25
26 36 0 13 14 27 39 40 49 24 54 41 46 135 -4 41 -3 75 1 75 5 0 35 23 67 50
32 28 62 50 66 50 4 0 19 -44 34 -98z m-1098 48 c-3 -5 -12 -10 -18 -10 -7 0
-6 4 3 10 19 12 23 12 15 0z m-324 -57 c13 -16 12 -17 -3 -4 -10 7 -18 15 -18
17 0 8 8 3 21 -13z m139 -137 c-7 -7 -13 -7 -20 0 -6 6 -3 10 10 10 13 0 16
-4 10 -10z m-346 -531 c-4 -8 -14 -15 -23 -16 -9 0 -11 -3 -5 -5 7 -3 4 -25
-9 -65 -20 -58 -21 -60 -33 -37 -7 12 -13 19 -14 15 0 -5 5 -17 10 -27 7 -13
7 -33 0 -62 -9 -37 -8 -49 10 -83 18 -36 20 -37 20 -13 0 15 -5 28 -12 30 -9
3 -8 19 7 61 10 31 22 52 25 46 4 -5 7 3 7 18 0 35 36 116 48 106 4 -5 5 -2 1
5 -8 13 10 42 25 42 5 0 9 -8 9 -17 0 -16 -2 -16 -11 -3 -9 12 -10 12 -5 -3 3
-10 6 -31 6 -46 0 -15 6 -35 13 -45 12 -16 13 -16 14 3 1 12 -2 21 -8 21 -5 0
-9 14 -9 31 0 16 4 28 9 25 5 -4 7 4 5 16 -2 13 -1 17 2 10 5 -10 9 -10 20 -1
11 9 14 8 14 -2 0 -11 2 -11 10 1 12 18 12 2 0 -25 -5 -11 -9 -14 -9 -7 -1 7
-6 10 -11 7 -7 -4 -7 -13 0 -25 8 -15 6 -30 -8 -62 -21 -46 -42 -112 -71 -223
l-19 -70 0 48 c0 52 -5 63 -21 52 -7 -4 -11 -52 -11 -126 0 -66 -4 -128 -9
-138 -8 -14 -6 -17 12 -16 20 1 26 17 62 164 22 90 43 160 46 157 3 -3 6 7 6
23 0 16 10 55 22 87 13 33 31 79 40 104 l17 45 90 1 89 0 -83 -3 c-91 -4 -104
-14 -84 -59 11 -22 9 -24 -12 -24 -27 0 -39 -30 -29 -69 4 -17 8 -20 15 -9 8
10 9 10 5 -2 -2 -8 -12 -14 -21 -12 -11 2 -18 -6 -22 -27 -4 -17 -10 -28 -15
-25 -5 3 -8 -3 -7 -13 0 -10 0 -55 0 -101 -2 -83 -12 -98 -32 -48 -6 14 -7 4
-3 -32 5 -46 4 -52 -11 -46 -12 5 -16 0 -15 -17 1 -13 -3 -35 -9 -50 -5 -14
-10 -74 -9 -134 0 -75 -3 -110 -11 -113 -8 -2 -12 15 -12 57 0 48 -3 61 -15
61 -12 0 -15 -20 -15 -120 l0 -120 -25 0 c-22 0 -25 -4 -25 -40 0 -29 -4 -40
-15 -40 -12 0 -15 -20 -15 -120 0 -100 -2 -120 -15 -120 -11 0 -15 -11 -15
-40 0 -22 -4 -40 -10 -40 -5 0 -10 -18 -10 -40 0 -29 -4 -40 -15 -40 -12 0
-15 -16 -15 -80 0 -64 -3 -80 -15 -80 -11 0 -15 -11 -15 -40 0 -22 -4 -40 -10
-40 -6 0 -10 -33 -10 -80 0 -64 -3 -80 -15 -80 -12 0 -15 -16 -15 -80 0 -77
-1 -80 -24 -80 -23 0 -23 0 -29 -162 -3 -90 -9 -174 -12 -188 -5 -19 -4 -22 4
-10 10 13 11 13 11 0 0 -45 -18 -33 -39 28 -12 37 -29 81 -37 99 -8 17 -15 44
-16 60 -1 15 -5 33 -10 39 -4 6 -1 30 7 54 8 24 13 45 11 48 -3 2 -8 -7 -11
-21 -4 -14 -14 -28 -22 -31 -11 -5 -13 -2 -8 11 9 21 9 21 7 100 -2 51 -5 61
-17 57 -17 -7 -21 -79 -5 -89 6 -3 10 -16 9 -28 -1 -28 -48 89 -48 121 -1 12
-5 22 -10 22 -4 0 -16 29 -26 65 -27 99 -38 87 -52 -55 -4 -41 -8 -139 -8
-217 0 -78 -3 -135 -7 -125 -4 10 -7 -2 -7 -29 -1 -32 4 -49 13 -52 16 -6 14
-86 -3 -96 -5 -4 -5 -24 -1 -46 7 -37 8 -38 10 -10 2 17 4 35 5 40 2 6 4 17 5
25 1 8 6 -5 11 -30 5 -28 5 -48 -1 -54 -6 -6 -10 -15 -10 -20 0 -6 4 -5 9 2 6
10 10 7 13 -12 3 -14 1 -24 -4 -23 -6 1 -14 -9 -19 -23 -8 -22 -8 -23 5 -7 7
9 15 17 18 17 5 0 20 -97 21 -140 0 -14 -3 -33 -7 -42 -5 -11 -4 -18 3 -18 6
0 11 8 12 18 0 9 9 -14 19 -53 11 -38 19 -79 19 -90 -1 -11 -8 6 -16 38 -8 31
-20 57 -25 57 -6 0 -7 -11 -4 -24 3 -14 2 -27 -3 -30 -20 -13 -43 149 -27 189
6 15 5 17 -3 5 -8 -12 -11 -12 -17 5 -4 10 -8 42 -8 71 -1 28 -4 50 -7 48 -9
-5 -30 212 -23 243 4 22 3 25 -5 13 -18 -25 -14 551 4 674 18 118 44 265 52
286 3 8 7 25 9 38 9 69 110 450 118 445 5 -3 6 -1 2 5 -5 8 66 319 87 382 3 8
8 28 11 43 4 15 11 25 15 22 5 -3 7 4 4 16 -6 21 41 97 102 168 17 19 24 31
16 27 -8 -6 -7 0 4 18 10 14 25 26 34 26 14 0 14 2 1 10 -14 9 -6 15 15 10 6
-1 7 2 3 6 -4 4 -3 13 3 21 8 9 36 13 85 13 61 0 72 -3 68 -15z m456 1 c0 -3
-4 -8 -10 -11 -5 -3 -10 -1 -10 4 0 6 5 11 10 11 6 0 10 -2 10 -4z m-23 -78
c-3 -7 -5 -2 -5 12 0 14 2 19 5 13 2 -7 2 -19 0 -25z m-237 -66 c-1 -25 -2
-26 -15 -8 -7 10 -18 15 -24 11 -16 -9 -13 1 5 19 20 21 34 12 34 -22z m-50
-65 c0 -7 -6 -19 -12 -26 -11 -11 -10 -13 5 -8 19 7 24 -8 6 -19 -16 -9 -27
13 -21 42 5 25 22 34 22 11z m-76 -375 c-6 -8 -23 72 -16 82 4 6 10 -9 13 -34
4 -25 5 -47 3 -48z m-22 23 c3 -13 1 -22 -3 -19 -9 5 -13 44 -5 44 2 0 6 -11
8 -25z m245 -157 c-3 -8 -6 -5 -6 6 -1 11 2 17 5 13 3 -3 4 -12 1 -19z m-290
-145 c-3 -10 -5 -4 -5 12 0 17 2 24 5 18 2 -7 2 -21 0 -30z m30 15 c-3 -8 -6
-5 -6 6 -1 11 2 17 5 13 3 -3 4 -12 1 -19z m-889 -15 c-52 -8 -29 -23 25 -17
43 5 56 3 77 -14 23 -19 25 -28 30 -140 5 -105 9 -124 30 -155 14 -20 27 -31
31 -26 9 15 15 -91 9 -148 -6 -49 -29 -40 -80 30 l-45 62 -68 5 c-68 5 -83 -1
-47 -20 27 -15 16 -36 -38 -67 -25 -15 -40 -29 -34 -31 17 -5 81 28 98 52 15
21 15 21 29 2 8 -11 15 -40 15 -65 0 -52 17 -46 22 8 2 24 9 36 24 42 18 6 27
1 48 -29 l25 -36 -23 -31 c-13 -16 -35 -37 -49 -45 -23 -13 -30 -12 -88 18
-45 23 -75 32 -110 32 -75 0 -93 23 -84 108 4 50 0 103 -20 212 -14 80 -28
166 -32 192 l-6 46 79 7 c44 3 90 7 104 8 47 4 106 4 78 0z m2732 -28 c52 -4
105 -9 116 -11 l21 -6 -22 -91 c-13 -51 -28 -135 -35 -187 -20 -173 -48 -257
-92 -281 -53 -28 -248 25 -248 68 0 37 29 63 70 63 54 0 84 14 110 50 28 39
17 50 -48 50 -59 0 -108 -23 -126 -59 -9 -17 -25 -35 -36 -41 -21 -11 -23 -7
-35 112 -6 55 -4 61 42 143 49 88 55 97 109 140 26 20 44 25 95 27 51 1 55 2
19 5 -65 5 -92 12 -85 23 4 6 16 8 28 6 12 -3 65 -8 117 -11z m-1863 -92 c-2
-16 -4 -3 -4 27 0 30 2 43 4 28 2 -16 2 -40 0 -55z m100 15 c-3 -8 -6 -5 -6 6
-1 11 2 17 5 13 3 -3 4 -12 1 -19z m227 -364 c3 -8 2 -12 -4 -9 -6 3 -10 10
-10 16 0 14 7 11 14 -7z m-484 -174 c0 -22 -4 -40 -10 -40 -5 0 -10 18 -10 40
0 22 5 40 10 40 6 0 10 -18 10 -40z m-13 -442 c-1 -46 -3 -9 -3 82 0 91 2 128
3 83 2 -46 2 -120 0 -165z m1343 128 c0 -2 -8 -10 -17 -17 -16 -13 -17 -12 -4
4 13 16 21 21 21 13z m-585 -195 c-3 -6 -11 -11 -16 -11 -5 0 -4 6 3 14 14 16
24 13 13 -3z m349 -56 c-9 -14 -18 -25 -21 -25 -5 0 5 18 20 38 17 22 18 13 1
-13z m-1004 0 c11 -13 10 -14 -4 -9 -9 3 -16 10 -16 15 0 13 6 11 20 -6z m116
-23 c-4 -3 -14 2 -24 12 -16 18 -16 18 6 6 13 -6 21 -14 18 -18z m139 -72 c3
-6 -1 -7 -9 -4 -18 7 -21 14 -7 14 6 0 13 -4 16 -10z m659 -8 c2 -4 -4 -8 -14
-8 -10 0 -16 4 -14 8 3 4 9 8 14 8 5 0 11 -4 14 -8z m-1156 -26 c-7 -8 -15
-12 -17 -11 -5 6 10 25 20 25 5 0 4 -6 -3 -14z m-288 -11 c0 -8 -4 -15 -10
-15 -5 0 -7 7 -4 15 4 8 8 15 10 15 2 0 4 -7 4 -15z m957 -11 c-3 -3 -12 -4
-19 -1 -8 3 -5 6 6 6 11 1 17 -2 13 -5z m-991 -389 c10 -60 18 -124 18 -142 0
-18 4 -29 9 -26 5 3 6 -3 3 -15 -4 -13 -1 -22 8 -25 11 -4 13 -1 9 11 -3 9 -2
14 2 10 5 -5 15 2 24 15 l16 22 6 -30 c4 -16 7 -49 8 -72 l1 -43 -90 0 -90 0
0 40 c0 34 -3 40 -21 40 -15 0 -19 -4 -15 -16 6 -14 4 -15 -9 -4 -11 9 -12 15
-5 20 6 4 8 15 4 25 -5 13 -4 16 4 11 12 -7 12 13 -1 44 -4 8 -8 28 -10 43 -2
16 -8 32 -13 35 -6 4 -16 23 -24 42 -22 58 -33 67 -42 34 -4 -16 -5 -37 -2
-46 3 -10 1 -18 -5 -18 -5 0 -12 -17 -14 -37 -3 -33 -4 -32 -5 12 -2 55 25
138 41 128 6 -3 7 -1 3 5 -7 12 33 102 46 102 4 0 8 7 8 15 0 23 32 85 42 79
4 -3 8 4 8 15 0 11 8 37 17 56 l17 37 17 -129 c9 -70 25 -177 35 -238z m1231
326 c21 -27 21 -30 6 -42 -12 -10 -15 -10 -9 -1 4 7 -2 25 -14 42 -27 38 -13
38 17 1z m143 9 c-6 -11 -16 -20 -22 -20 -6 0 -3 9 7 20 10 11 20 20 22 20 2
0 -1 -9 -7 -20z m-913 -52 c-2 -13 -4 -3 -4 22 0 25 2 35 4 23 2 -13 2 -33 0
-45z m853 8 c0 -9 -40 -13 -46 -5 -3 5 6 9 20 9 14 0 26 -2 26 -4z m-950 -36
c12 -8 10 -9 -7 -7 -12 2 -26 6 -29 10 -11 11 19 8 36 -3z m-50 -31 c0 -10 -4
-19 -10 -19 -5 0 -10 4 -10 9 0 5 -3 17 -6 25 -5 12 -2 15 10 10 9 -3 16 -15
16 -25z m41 -52 c0 -21 1 -21 9 -2 5 14 7 4 6 -32 -1 -47 -15 -54 -16 -7 0 11
-7 29 -16 40 -15 18 -15 18 -10 -6 7 -39 49 -145 65 -163 7 -9 14 -29 15 -44
1 -16 5 -34 9 -40 5 -7 4 -13 -1 -13 -12 0 -22 25 -22 56 0 13 -4 24 -10 24
-5 0 -13 15 -18 33 -5 17 -21 62 -35 98 -23 60 -23 66 -8 76 21 14 31 7 32
-20z m984 3 c-3 -5 -12 -10 -18 -10 -7 0 -6 4 3 10 19 12 23 12 15 0z m-248
-122 c-3 -8 -6 -5 -6 6 -1 11 2 17 5 13 3 -3 4 -12 1 -19z m-1280 -70 c-3 -8
-6 -5 -6 6 -1 11 2 17 5 13 3 -3 4 -12 1 -19z m1483 -9 c0 -6 -4 -7 -10 -4 -5
3 -10 11 -10 16 0 6 5 7 10 4 6 -3 10 -11 10 -16z m-213 -46 c-3 -10 -5 -2 -5
17 0 19 2 27 5 18 2 -10 2 -26 0 -35z m-633 28 c3 -5 -1 -11 -9 -14 -9 -4 -12
-1 -8 9 6 16 10 17 17 5z m-643 -29 c-6 -12 -11 -31 -10 -44 1 -23 1 -23 8 2
7 24 8 24 16 -10 4 -19 9 -57 10 -85 2 -53 20 -99 36 -90 5 4 14 -6 19 -20 15
-39 11 -55 -5 -20 l-13 30 3 -35 c1 -19 0 -27 -2 -17 -2 9 -9 17 -15 17 -5 0
-8 6 -5 14 3 8 3 16 -1 18 -8 3 -62 124 -62 136 0 4 6 -1 14 -10 11 -15 13
-14 13 15 0 18 -2 26 -4 20 -3 -7 -11 -13 -18 -13 -10 0 -12 10 -8 38 7 47 22
86 29 79 3 -3 1 -14 -5 -25z m1919 14 c0 -3 -4 -8 -10 -11 -5 -3 -10 -1 -10 4
0 6 5 11 10 11 6 0 10 -2 10 -4z m-1276 -42 c3 -8 2 -12 -4 -9 -6 3 -10 10
-10 16 0 14 7 11 14 -7z m693 -6 c-3 -8 -6 -5 -6 6 -1 11 2 17 5 13 3 -3 4
-12 1 -19z m233 -93 c0 -5 -9 4 -20 20 -11 17 -20 35 -20 40 0 6 9 -3 20 -20
11 -16 20 -34 20 -40z m-299 7 c-4 -54 -11 -53 -11 3 0 27 3 45 7 41 4 -4 6
-24 4 -44z m-580 11 c13 -16 12 -17 -3 -4 -17 13 -22 21 -14 21 2 0 10 -8 17
-17z m666 -25 c-3 -8 -6 -5 -6 6 -1 11 2 17 5 13 3 -3 4 -12 1 -19z m-1290
-75 c-10 -9 -14 -2 -21 37 l-6 35 17 -32 c9 -18 13 -36 10 -40z m1533 37 c0
-5 -2 -10 -4 -10 -3 0 -8 5 -11 10 -3 6 -1 10 4 10 6 0 11 -4 11 -10z m361
-13 c-10 -9 -11 -8 -5 6 3 10 9 15 12 12 3 -3 0 -11 -7 -18z m-1861 -45 c0
-21 -2 -24 -10 -12 -13 20 -13 53 0 45 6 -3 10 -18 10 -33z m272 -27 c11 -22
25 -43 32 -47 7 -5 5 -8 -6 -8 -11 0 -20 10 -24 25 -7 30 -12 31 -31 8 -15
-19 -15 -18 2 36 4 15 3 21 -3 17 -6 -4 -8 2 -4 16 4 15 7 18 10 8 2 -8 13
-33 24 -55z m885 28 c-3 -10 -5 -4 -5 12 0 17 2 24 5 18 2 -7 2 -21 0 -30z
m590 -19 c-3 -3 -12 -4 -19 -1 -8 3 -5 6 6 6 11 1 17 -2 13 -5z m-1693 -50
c14 -5 14 -9 4 -22 -10 -12 -10 -14 0 -8 6 4 12 2 12 -3 0 -6 -4 -11 -8 -11
-4 0 -8 -17 -8 -38 -1 -31 3 -38 19 -39 11 -1 17 1 14 4 -4 3 1 12 9 20 8 9
16 14 18 12 9 -12 14 -67 6 -75 -6 -6 -5 -22 2 -42 11 -28 10 -34 -2 -42 -11
-7 -20 -3 -32 13 -22 27 -118 192 -118 201 0 4 11 -4 25 -18 27 -27 58 -26 48
2 -6 13 -8 13 -14 -4 -6 -15 -8 -13 -8 12 -1 41 6 48 33 38z m1256 -44 c0 -13
-1 -13 -10 0 -5 8 -10 22 -10 30 0 13 1 13 10 0 5 -8 10 -22 10 -30z m-1160 3
c0 -19 -3 -24 -10 -17 -6 6 -8 18 -4 27 9 24 14 21 14 -10z m997 -5 c-3 -8 -6
-5 -6 6 -1 11 2 17 5 13 3 -3 4 -12 1 -19z m-808 -33 c0 -5 -6 -1 -14 9 -8 11
-15 24 -15 30 0 5 7 1 15 -10 8 -10 14 -23 14 -29z m808 -27 c-3 -8 -6 -5 -6
6 -1 11 2 17 5 13 3 -3 4 -12 1 -19z m-767 -30 c0 -18 -17 -7 -29 19 -13 28
-13 28 8 9 12 -11 21 -23 21 -28z m-35 -18 c3 -5 -1 -10 -9 -10 -9 0 -16 5
-16 10 0 6 4 10 9 10 6 0 13 -4 16 -10z m65 -11 c0 -5 -4 -9 -10 -9 -5 0 -10
7 -10 16 0 8 5 12 10 9 6 -3 10 -10 10 -16z m-474 -69 c-16 -74 -26 -99 -26
-64 0 16 -2 17 -10 4 -11 -17 -13 -10 -4 14 3 9 10 13 15 10 5 -3 6 2 3 10 -3
9 -1 16 6 16 6 0 9 4 6 8 -6 9 15 85 21 78 2 -2 -3 -36 -11 -76z m1212 55 c-3
-3 -9 2 -12 12 -6 14 -5 15 5 6 7 -7 10 -15 7 -18z m-988 5 c0 -3 -4 -10 -8
-17 -6 -9 -11 -7 -20 7 -10 16 -9 18 8 17 11 -1 20 -4 20 -7z m285 -20 c3 -5
1 -10 -4 -10 -6 0 -11 5 -11 10 0 6 2 10 4 10 3 0 8 -4 11 -10z m-301 -54 c-3
-14 -10 -24 -14 -21 -5 3 -3 16 3 29 15 31 20 27 11 -8z m86 -9 c0 -9 -10 -12
-30 -9 -18 3 -30 0 -30 -7 0 -6 -4 -11 -10 -11 -14 0 -12 27 3 33 26 11 67 7
67 -6z m-16 -58 c18 -21 18 -22 -3 -16 -17 4 -19 2 -11 -13 5 -10 15 -20 22
-23 7 -2 9 -8 5 -13 -5 -5 -19 4 -32 20 -18 23 -21 34 -14 48 12 22 11 22 33
-3z m1296 -15 c0 -2 -9 0 -20 6 -11 6 -20 13 -20 16 0 2 9 0 20 -6 11 -6 20
-13 20 -16z m-1617 -1 c-3 -10 -10 -24 -16 -30 -6 -9 -6 -13 2 -13 6 0 15 10
20 22 6 16 8 4 8 -39 -1 -51 -3 -58 -14 -45 -7 10 -13 26 -14 37 l-1 20 -5
-20 c-3 -11 -14 -27 -24 -35 -11 -9 -21 -25 -22 -37 0 -12 -5 -19 -11 -16 -5
4 -6 -6 -2 -23 5 -24 4 -26 -5 -10 -9 14 -7 27 6 57 10 21 22 39 27 39 5 0 8
6 6 13 -4 16 32 97 43 97 5 0 6 -8 2 -17z m1239 -52 c2 -17 1 -28 -4 -25 -8 5
-12 54 -4 54 2 0 6 -13 8 -29z m344 -8 c-7 -7 -26 7 -26 19 0 6 6 6 15 -2 9
-7 13 -15 11 -17z m-289 -15 c-3 -8 -6 -5 -6 6 -1 11 2 17 5 13 3 -3 4 -12 1
-19z m540 16 c-3 -3 -12 -4 -19 -1 -8 3 -5 6 6 6 11 1 17 -2 13 -5z m-1442
-90 c9 -31 14 -68 12 -82 -4 -26 -4 -26 -6 3 -1 32 -23 100 -34 111 -10 10 -9
24 2 24 5 0 17 -25 26 -56z m1205 -7 c0 -5 10 -17 23 -28 12 -10 16 -18 10
-19 -7 0 -13 -4 -13 -9 0 -6 8 -8 18 -6 11 2 24 -7 34 -26 10 -16 12 -29 7
-29 -6 0 -13 9 -16 20 -3 11 -9 21 -14 21 -5 1 -13 3 -19 4 -5 1 -18 3 -27 4
-15 1 -15 3 3 16 19 14 19 14 -4 30 -12 9 -19 21 -16 27 5 7 1 9 -9 5 -9 -3
-19 -1 -23 5 -4 7 -3 8 4 4 7 -4 12 -2 12 4 0 6 -7 13 -15 16 -8 4 -15 11 -15
17 0 6 14 -2 30 -18 17 -16 30 -33 30 -38z m-343 31 c-3 -8 -6 -5 -6 6 -1 11
2 17 5 13 3 -3 4 -12 1 -19z m-1260 -8 c9 -14 10 -27 3 -45 -22 -58 -6 -186
27 -210 15 -11 16 -16 5 -27 -11 -11 -12 -10 -7 5 5 11 2 17 -8 17 -19 0 -23
13 -36 113 -13 97 -13 100 -1 92 6 -4 10 5 8 24 -2 34 -8 37 -26 19 -7 -7 -12
-8 -12 -2 0 11 20 34 30 34 3 0 11 -9 17 -20z m1290 -52 c-3 -7 -5 -2 -5 12 0
14 2 19 5 13 2 -7 2 -19 0 -25z m-1324 -63 c3 -44 8 -95 12 -112 5 -21 4 -33
-3 -33 -12 0 -18 46 -21 155 -3 102 6 95 12 -10z m-68 23 c-4 -18 -11 -39 -16
-48 -4 -8 -10 -23 -13 -33 -3 -10 -10 -16 -15 -13 -8 5 37 126 47 126 2 0 0
-14 -3 -32z m1347 -10 c-6 -6 -12 -6 -17 3 -6 8 -4 10 5 4 9 -5 10 -1 6 16 -6
21 -6 22 5 6 7 -13 8 -22 1 -29z m-1327 -30 c-4 -13 -12 -27 -18 -33 -7 -7 -8
-4 -3 8 3 10 6 25 6 33 0 8 5 14 11 14 6 0 8 -9 4 -22z m1310 12 c3 -5 1 -10
-4 -10 -6 0 -11 5 -11 10 0 6 2 10 4 10 3 0 8 -4 11 -10z m150 -10 c3 -6 -1
-7 -9 -4 -18 7 -21 14 -7 14 6 0 13 -4 16 -10z m45 -20 c0 -5 -4 -10 -10 -10
-5 0 -10 5 -10 10 0 6 5 10 10 10 6 0 10 -4 10 -10z m334 -59 c-2 -3 -11 5
-20 17 -8 12 -20 20 -25 17 -5 -3 -6 1 -3 9 5 12 11 9 29 -12 13 -15 21 -29
19 -31z m-1237 17 c-3 -8 -6 -5 -6 6 -1 11 2 17 5 13 3 -3 4 -12 1 -19z m983
8 c0 -2 -9 -6 -20 -9 -11 -3 -18 -1 -14 4 5 9 34 13 34 5z m-1653 -51 c-9 -9
-14 -10 -19 -1 -5 8 -8 7 -8 -2 0 -8 -6 -28 -14 -45 -8 -18 -21 -52 -29 -76
-10 -30 -16 -38 -20 -27 -4 9 4 35 16 59 12 23 31 64 41 91 17 44 20 47 32 32
10 -14 10 -21 1 -31z m1329 8 c-8 -15 -15 -25 -16 -21 0 12 23 58 27 54 3 -2
-2 -17 -11 -33z m359 27 c3 -6 -1 -7 -9 -4 -18 7 -21 14 -7 14 6 0 13 -4 16
-10z m199 -16 c3 -8 2 -12 -4 -9 -6 3 -10 10 -10 16 0 14 7 11 14 -7z m-1327
-36 c-3 -7 -5 -2 -5 12 0 14 2 19 5 13 2 -7 2 -19 0 -25z m1373 17 c5 3 11 1
14 -4 4 -5 -2 -8 -11 -7 -9 2 -18 8 -19 15 -1 6 0 7 3 1 2 -5 9 -8 13 -5z
m-1945 -55 c-4 -12 -9 -19 -12 -17 -3 3 -2 15 2 27 4 12 9 19 12 17 3 -3 2
-15 -2 -27z m270 -48 c-7 -7 -55 39 -55 52 0 5 13 -3 30 -19 16 -16 28 -31 25
-33z m292 16 c-3 -7 -5 -2 -5 12 0 14 2 19 5 13 2 -7 2 -19 0 -25z m1530 16
c-3 -3 -12 -4 -19 -1 -8 3 -5 6 6 6 11 1 17 -2 13 -5z m56 -1 c-7 -2 -19 -2
-25 0 -7 3 -2 5 12 5 14 0 19 -2 13 -5z m-1943 -13 c0 -5 -5 -10 -11 -10 -5 0
-7 5 -4 10 3 6 8 10 11 10 2 0 4 -4 4 -10z m111 -67 l24 -26 -27 19 c-15 10
-28 22 -28 27 0 12 5 8 31 -20z m1246 15 c-2 -7 0 -22 5 -33 9 -20 9 -20 -6
-1 -15 19 -16 19 -16 1 0 -10 -3 -15 -7 -12 -3 4 0 18 7 32 14 26 25 34 17 13z
m31 -13 c-3 -3 -9 2 -12 12 -6 14 -5 15 5 6 7 -7 10 -15 7 -18z m-1668 -70 c2
12 5 7 9 -15 4 -20 12 -34 19 -32 7 1 12 -2 12 -8 0 -16 -12 -12 -37 12 -18
17 -23 31 -21 67 l1 46 7 -45 c4 -25 8 -36 10 -25z m1341 32 c-10 -9 -11 -8
-5 6 3 10 9 15 12 12 3 -3 0 -11 -7 -18z m-891 -12 c13 -14 19 -25 13 -25 -6
0 -18 11 -27 25 -9 14 -15 25 -13 25 2 0 14 -11 27 -25z m-215 5 c6 9 10 9 16
-1 5 -8 9 -18 9 -24 0 -5 -5 -3 -10 5 -9 13 -11 13 -20 0 -5 -8 -10 -12 -10
-8 0 3 -3 15 -6 25 -4 13 -3 15 4 4 7 -10 11 -10 17 -1z m1420 -23 c-4 -15 1
-32 14 -49 12 -14 21 -29 21 -33 0 -4 -10 5 -22 20 -22 29 -34 85 -17 85 5 0
7 -10 4 -23z m33 3 c-7 -11 -16 -20 -20 -20 -5 0 -3 9 4 20 7 11 16 20 20 20
5 0 3 -9 -4 -20z m586 4 c3 -8 2 -12 -4 -9 -6 3 -10 10 -10 16 0 14 7 11 14
-7z m-550 -11 c4 -10 4 -14 0 -11 -3 4 -15 -3 -26 -15 -19 -22 -19 -22 -2 11
10 17 19 32 20 32 1 0 5 -8 8 -17z m-1532 -39 c-6 -12 -9 -7 -9 16 0 23 3 28
9 16 5 -9 5 -23 0 -32z m1633 -67 c6 -6 -1 -3 -15 6 -14 10 -32 20 -40 23 -8
3 -20 16 -27 30 -10 22 -6 20 30 -12 23 -20 47 -42 52 -47z m-1758 38 c-4 -8
-11 -15 -17 -15 -7 0 -7 6 0 21 13 23 26 19 17 -6z m267 9 c3 -8 2 -12 -4 -9
-6 3 -10 10 -10 16 0 14 7 11 14 -7z m-239 -18 c0 -13 -3 -22 -7 -19 -10 5
-10 0 -2 -21 3 -9 10 -13 15 -10 5 3 9 -1 9 -9 0 -27 30 -72 70 -106 22 -19
40 -39 40 -46 0 -6 8 -19 18 -28 17 -15 21 -17 42 -17 6 0 10 -4 10 -10 0 -5
-4 -10 -10 -10 -15 0 -80 61 -80 75 0 7 -9 15 -19 18 -16 4 -61 65 -114 153
-3 6 1 20 9 32 19 27 19 27 19 -2z m1193 -1 c-6 -14 -13 -23 -15 -21 -5 5 15
46 22 46 3 0 -1 -11 -7 -25z m-1067 -30 c8 -16 6 -15 -10 4 -12 13 -21 28 -21
35 0 12 14 -5 31 -39z m111 3 c-2 -11 -5 -17 -6 -16 -1 2 -7 11 -15 20 -11 15
-10 17 7 15 13 -1 18 -7 14 -19z m1423 12 c3 -5 1 -10 -4 -10 -6 0 -11 5 -11
10 0 6 2 10 4 10 3 0 8 -4 11 -10z m315 0 c0 -5 -2 -10 -4 -10 -3 0 -8 5 -11
10 -3 6 -1 10 4 10 6 0 11 -4 11 -10z m-310 -63 c0 -5 -9 2 -20 16 -11 14 -20
29 -20 33 0 4 9 -3 20 -16 11 -13 20 -27 20 -33z m-1551 -2 l0 -20 -9 20 c-5
11 -9 27 -9 35 -1 13 0 13 9 0 5 -8 9 -24 9 -35z m-52 -28 c-2 -6 -10 3 -19
20 -9 18 -13 34 -10 38 8 8 34 -43 29 -58z m87 37 c3 -8 2 -12 -4 -9 -6 3 -10
10 -10 16 0 14 7 11 14 -7z m121 -4 c10 -11 16 -20 13 -20 -3 0 -13 9 -23 20
-10 11 -16 20 -13 20 3 0 13 -9 23 -20z m895 10 c0 -5 -5 -10 -11 -10 -5 0 -7
5 -4 10 3 6 8 10 11 10 2 0 4 -4 4 -10z m649 -16 c14 -12 -19 -1 -35 12 -18
14 -18 14 6 3 14 -6 27 -13 29 -15z m261 12 c0 -3 -4 -8 -10 -11 -5 -3 -10 -1
-10 4 0 6 5 11 10 11 6 0 10 -2 10 -4z m41 -23 c-12 -20 -14 -14 -5 12 4 9 9
14 11 11 3 -2 0 -13 -6 -23z m-251 -13 c8 -5 11 -10 5 -10 -5 0 -17 5 -25 10
-8 5 -10 10 -5 10 6 0 17 -5 25 -10z m-1770 -31 c0 -6 -4 -7 -10 -4 -5 3 -10
11 -10 16 0 6 5 7 10 4 6 -3 10 -11 10 -16z m1697 15 c-3 -3 -12 -4 -19 -1 -8
3 -5 6 6 6 11 1 17 -2 13 -5z m-1466 -21 c13 -16 12 -17 -3 -4 -10 7 -18 15
-18 17 0 8 8 3 21 -13z m-201 -3 c0 -5 -5 -10 -11 -10 -5 0 -7 5 -4 10 3 6 8
10 11 10 2 0 4 -4 4 -10z m60 -15 c4 3 6 -5 2 -17 -3 -14 -2 -19 6 -14 7 4 12
2 12 -3 0 -10 -15 -15 -23 -8 -2 1 -11 -4 -21 -12 -14 -12 -16 -12 -11 2 4 8
2 18 -4 22 -14 8 -14 25 -1 25 6 0 10 -7 10 -15 0 -8 5 -15 11 -15 7 0 9 11 5
28 -3 15 -3 21 0 14 3 -6 9 -10 14 -7z m1747 9 c-3 -3 -12 -4 -19 -1 -8 3 -5
6 6 6 11 1 17 -2 13 -5z m-199 -45 c-3 -8 -7 -3 -11 10 -4 17 -3 21 5 13 5 -5
8 -16 6 -23z m252 11 c0 -5 -5 -10 -11 -10 -5 0 -7 5 -4 10 3 6 8 10 11 10 2
0 4 -4 4 -10z m-1764 -55 c4 -14 4 -29 0 -32 -3 -4 -6 3 -6 15 0 12 -4 22 -10
22 -5 0 -10 5 -10 10 0 21 20 9 26 -15z m1531 -7 c-3 -8 -6 -5 -6 6 -1 11 2
17 5 13 3 -3 4 -12 1 -19z m-1531 -53 c-6 16 -5 18 5 8 9 -9 10 -16 3 -23 -7
-7 -17 -3 -30 12 l-19 23 24 -20 24 -20 -7 20z m1604 11 c0 -3 -4 -8 -10 -11
-5 -3 -10 -1 -10 4 0 6 5 11 10 11 6 0 10 -2 10 -4z m66 -24 c-18 -16 -18 -16
-6 6 6 13 14 21 18 18 3 -4 -2 -14 -12 -24z m-97 -22 c0 -10 -3 -8 -9 5 -12
27 -12 43 0 25 5 -8 9 -22 9 -30z m171 26 c0 -3 -4 -8 -10 -11 -5 -3 -10 -1
-10 4 0 6 5 11 10 11 6 0 10 -2 10 -4z m-1708 -41 c-8 -16 -9 -16 -15 -1 -4
10 -3 15 3 11 6 -3 10 -1 10 6 0 7 3 10 6 6 3 -3 2 -13 -4 -22z m1606 -5 c-7
-10 -14 -17 -17 -15 -4 4 18 35 25 35 2 0 -1 -9 -8 -20z m-1591 -32 c-3 -7 -5
-2 -5 12 0 14 2 19 5 13 2 -7 2 -19 0 -25z m613 29 c0 -2 -10 -12 -22 -23
l-23 -19 19 23 c18 21 26 27 26 19z m617 -17 c1 -11 -2 -18 -8 -15 -5 4 -9 -2
-9 -11 0 -10 -2 -15 -5 -12 -8 7 5 58 14 58 4 0 7 -9 8 -20z m21 -30 c-7 -10
-14 -17 -17 -15 -4 4 18 35 25 35 2 0 -1 -9 -8 -20z m382 16 c0 -2 -8 -10 -17
-17 -16 -13 -17 -12 -4 4 13 16 21 21 21 13z m-345 -16 c3 -5 1 -10 -4 -10 -6
0 -11 5 -11 10 0 6 2 10 4 10 3 0 8 -4 11 -10z m-1581 -15 c-4 -8 -1 -15 5
-15 6 0 8 -7 4 -15 -3 -9 -8 -13 -11 -10 -3 3 -14 -12 -24 -32 -10 -21 -16
-30 -13 -20 3 11 8 30 11 43 3 13 10 24 16 24 5 0 6 5 3 10 -3 6 -3 15 0 20 9
15 15 12 9 -5z m314 -10 c-3 -3 -9 2 -12 12 -6 14 -5 15 5 6 7 -7 10 -15 7
-18z m1532 21 c0 -3 -4 -8 -10 -11 -5 -3 -10 -1 -10 4 0 6 5 11 10 11 6 0 10
-2 10 -4z m-299 -29 c-10 -9 -11 -8 -5 6 3 10 9 15 12 12 3 -3 0 -11 -7 -18z
m392 9 c4 -10 1 -13 -8 -9 -8 3 -12 9 -9 14 7 12 11 11 17 -5z m-440 -21 c-7
-21 -13 -19 -13 6 0 11 4 18 10 14 5 -3 7 -12 3 -20z m-1432 -2 c9 -10 25 -23
35 -29 17 -10 15 -11 -9 -7 -16 3 -31 13 -35 22 -3 9 -10 19 -16 23 -7 5 -7 8
-1 8 6 0 18 -8 26 -17z m256 -15 c-3 -8 -6 -5 -6 6 -1 11 2 17 5 13 3 -3 4
-12 1 -19z m1195 -10 c-7 -7 -12 -8 -12 -2 0 6 3 14 7 17 3 4 9 5 12 2 2 -3
-1 -11 -7 -17z m158 8 c0 -2 -8 -10 -17 -17 -16 -13 -17 -12 -4 4 13 16 21 21
21 13z m-1677 -36 c-3 -11 -9 -20 -15 -20 -5 0 -4 9 2 20 6 11 12 20 14 20 2
0 2 -9 -1 -20z m1687 0 c0 -5 -4 -10 -10 -10 -5 0 -10 5 -10 10 0 6 5 10 10
10 6 0 10 -4 10 -10z m-1461 -26 c14 -12 -19 -1 -35 12 -18 14 -18 14 6 3 14
-6 27 -13 29 -15z m108 4 c-3 -8 -6 -5 -6 6 -1 11 2 17 5 13 3 -3 4 -12 1 -19z
m-154 -9 c10 -11 15 -24 11 -27 -4 -4 -9 -1 -11 6 -3 6 -14 12 -25 12 -12 0
-18 -5 -15 -13 2 -6 -1 -18 -8 -24 -10 -10 -14 -9 -19 3 -9 24 -7 31 4 14 9
-13 10 -13 10 1 0 8 -6 21 -12 28 -11 10 -10 11 3 6 10 -4 20 -2 24 4 9 16 18
14 38 -10z m1284 -1 c-3 -8 -6 -5 -6 6 -1 11 2 17 5 13 3 -3 4 -12 1 -19z
m286 -3 c-3 -9 -8 -14 -10 -11 -3 3 -2 9 2 15 9 16 15 13 8 -4z m53 -24 c-10
-11 -15 -25 -10 -32 4 -7 3 -10 -3 -6 -14 9 -66 -60 -57 -75 4 -6 3 -8 -3 -5
-5 4 -16 -5 -23 -18 -7 -14 -17 -25 -22 -25 -7 0 9 38 22 50 3 3 28 35 55 72
27 37 51 66 53 63 3 -3 -3 -14 -12 -24z m-1501 9 c3 -5 1 -10 -4 -10 -6 0 -11
5 -11 10 0 6 2 10 4 10 3 0 8 -4 11 -10z m-365 -37 c-11 -17 -11 -17 -6 0 3
10 6 24 7 30 0 9 2 9 5 0 3 -7 0 -20 -6 -30z m1517 0 c-3 -10 -5 -4 -5 12 0
17 2 24 5 18 2 -7 2 -21 0 -30z m-1207 17 c0 -5 -2 -10 -4 -10 -3 0 -8 5 -11
10 -3 6 -1 10 4 10 6 0 11 -4 11 -10z m-30 -16 c0 -8 -4 -12 -10 -9 -5 3 -10
10 -10 16 0 5 5 9 10 9 6 0 10 -7 10 -16z m47 -16 c-3 -7 -5 -2 -5 12 0 14 2
19 5 13 2 -7 2 -19 0 -25z m-97 2 c0 -5 11 -21 24 -35 16 -17 22 -33 18 -43
-6 -14 -7 -13 -10 5 -2 13 -12 29 -23 37 -19 13 -37 62 -18 51 5 -4 9 -10 9
-15z m-218 -27 c-3 -16 -7 -22 -10 -15 -4 13 4 42 11 42 2 0 2 -12 -1 -27z
m1563 -1 c-10 -2 -25 3 -33 12 -15 14 -13 15 17 3 23 -8 28 -13 16 -15z m179
13 c-4 -8 -11 -15 -16 -15 -6 0 -5 6 2 15 7 8 14 15 16 15 2 0 1 -7 -2 -15z
m-1767 -17 c-3 -8 -6 -5 -6 6 -1 11 2 17 5 13 3 -3 4 -12 1 -19z m314 -1 c-10
-9 -11 -8 -5 6 3 10 9 15 12 12 3 -3 0 -11 -7 -18z m399 19 c0 -2 -8 -10 -17
-17 -16 -13 -17 -12 -4 4 13 16 21 21 21 13z m-622 -34 c6 -18 -15 -14 -22 4
-4 10 -1 14 6 12 6 -2 14 -10 16 -16z m1532 -17 c14 -19 14 -19 -2 -6 -10 7
-18 18 -18 24 0 6 1 8 3 6 1 -2 9 -13 17 -24z m120 16 c0 -5 -6 -14 -14 -20
-12 -10 -13 -8 -9 8 5 21 23 30 23 12z m150 -1 c0 -5 -5 -10 -11 -10 -5 0 -7
5 -4 10 3 6 8 10 11 10 2 0 4 -4 4 -10z m-1825 -12 c14 -6 25 -18 24 -27 0
-10 -2 -12 -6 -3 -2 6 -10 12 -18 12 -7 0 -18 7 -25 15 -15 18 -9 19 25 3z
m60 -27 c3 -5 1 -12 -4 -15 -5 -3 -11 1 -15 9 -6 16 9 21 19 6z m1575 -26 c0
-10 -16 -4 -40 16 l-25 20 33 -16 c17 -8 32 -18 32 -20z m161 12 c-10 -9 -11
-8 -5 6 3 10 9 15 12 12 3 -3 0 -11 -7 -18z m-1704 -9 c-2 -7 5 -24 17 -37
l21 -25 -32 23 c-30 20 -36 51 -11 51 5 0 8 -6 5 -12z m167 -27 c-6 -6 -24 19
-24 34 1 6 7 1 15 -9 8 -11 12 -22 9 -25z m1936 35 c0 -2 -8 -10 -17 -17 -16
-13 -17 -12 -4 4 13 16 21 21 21 13z m-455 -26 c3 -5 1 -10 -4 -10 -6 0 -11 5
-11 10 0 6 2 10 4 10 3 0 8 -4 11 -10z m355 6 c0 -2 -8 -10 -17 -17 -16 -13
-17 -12 -4 4 13 16 21 21 21 13z m-418 -23 c-6 -3 -9 -10 -6 -15 4 -7 2 -8 -5
-4 -9 6 -9 11 0 22 6 8 15 12 18 8 3 -4 0 -9 -7 -11z m-1452 -7 c0 -3 -4 -8
-10 -11 -5 -3 -10 -1 -10 4 0 6 5 11 10 11 6 0 10 -2 10 -4z m74 -31 l17 -30
-20 24 c-12 13 -21 28 -21 34 0 12 0 11 24 -28z m1671 7 c-3 -3 -11 0 -18 7
-9 10 -8 11 6 5 10 -3 15 -9 12 -12z m-285 -43 c0 -18 -10 -8 -25 24 l-16 32
21 -24 c11 -13 20 -27 20 -32z m15 31 c3 -5 1 -10 -4 -10 -6 0 -11 5 -11 10 0
6 2 10 4 10 3 0 8 -4 11 -10z m411 -14 c2 -20 -1 -22 -11 -13 -9 8 -10 16 -3
25 13 16 13 16 14 -12z m-1909 7 c-4 -3 1 -12 11 -20 15 -13 15 -13 -6 -3 -19
9 -23 30 -5 30 4 0 3 -3 0 -7z m40 1 c-3 -3 -12 -4 -19 -1 -8 3 -5 6 6 6 11 1
17 -2 13 -5z m86 -37 c3 -7 -3 -13 -14 -13 -13 0 -15 3 -7 13 6 7 12 13 13 13
2 0 5 -6 8 -13z m-73 -17 c8 -5 11 -10 5 -10 -5 0 -17 5 -25 10 -8 5 -10 10
-5 10 6 0 17 -5 25 -10z m50 -24 c-7 -7 -13 -7 -20 0 -6 6 -3 10 10 10 13 0
16 -4 10 -10z m-126 -993 c-34 -25 -52 -15 -38 21 5 12 10 13 31 3 23 -10 24
-12 7 -24z m2238 2 c0 -8 1 -20 2 -26 1 -6 -19 -18 -44 -26 -25 -8 -59 -28
-77 -45 -34 -33 -53 -30 -53 6 0 32 40 66 102 87 65 23 68 23 70 4z m-2119
-25 c5 -4 4 -11 -2 -14 -6 -4 -11 -18 -11 -32 0 -17 -6 -24 -19 -24 -22 0 -31
19 -31 61 0 27 2 29 28 23 15 -4 31 -10 35 -14z m1859 2 l97 -4 -17 -24 c-23
-31 -46 -31 -189 1 -15 4 -23 13 -23 26 0 16 4 19 18 14 9 -5 61 -10 114 -13z
m-1942 -20 c0 -16 -8 -32 -20 -40 -11 -7 -35 -36 -52 -64 l-32 -51 -33 38
c-18 21 -33 42 -33 45 0 18 127 99 158 100 7 0 12 -12 12 -28z m210 -82 l41
-60 -27 -35 c-15 -20 -28 -34 -31 -32 -2 2 -14 35 -26 73 -18 53 -30 72 -50
82 -29 14 -34 31 -16 49 20 20 65 -12 109 -77z"/>
<path d="M4046 10524 c-72 -31 -215 -126 -198 -132 6 -2 14 -19 18 -39 l7 -35
64 6 c120 12 118 11 145 80 18 45 29 62 45 64 27 4 34 40 13 65 -18 22 -23 21
-94 -9z m34 -76 c0 -7 -9 -32 -19 -55 -21 -44 -16 -43 -155 -56 -28 -3 -43 53
-19 71 15 11 19 9 26 -13 6 -17 16 -25 32 -25 33 0 49 23 35 50 -11 21 -9 23
35 33 40 9 65 7 65 -5z"/>
<path d="M4190 10540 c0 -18 30 -70 40 -70 6 0 1 18 -10 40 -20 40 -30 49 -30
30z"/>
<path d="M3499 10288 c-24 -4 -47 -13 -53 -19 -8 -9 -4 -10 17 -5 16 4 63 9
105 12 42 2 77 6 80 8 7 8 -109 11 -149 4z"/>
<path d="M3925 10289 c-24 -7 -19 -7 21 -4 28 2 56 -1 61 -6 6 -6 28 -7 54 -2
l44 7 -40 7 c-51 10 -102 9 -140 -2z"/>
<path d="M3722 10215 c-38 -50 -38 -69 0 -98 23 -17 33 -19 55 -11 34 12 44
44 14 44 -19 0 -21 6 -21 55 0 30 -3 55 -7 55 -5 0 -23 -21 -41 -45z m18 -61
c0 -8 -19 -13 -24 -6 -3 5 1 9 9 9 8 0 15 -2 15 -3z"/>
<path d="M3835 10085 c-16 -8 -50 -14 -74 -15 -24 0 -42 -3 -38 -6 19 -19 147
5 147 27 0 5 -1 9 -2 8 -2 0 -16 -7 -33 -14z"/>
<path d="M3780 9991 c-21 -6 -17 -8 24 -14 52 -7 70 -2 46 13 -17 11 -34 11
-70 1z"/>
<path d="M4282 10427 c-21 -36 -34 -97 -20 -97 4 0 10 11 14 25 7 28 24 24 24
-6 0 -23 -28 -81 -44 -91 -6 -4 -19 -5 -30 -2 -12 4 -16 2 -12 -5 22 -34 79 7
98 71 9 31 8 41 -6 64 -13 18 -15 29 -7 37 11 11 18 -1 31 -57 8 -30 8 -30 9
10 1 22 -5 46 -11 52 -10 10 -10 15 2 22 12 8 11 10 -7 10 -13 0 -28 -12 -41
-33z"/>
<path d="M2985 8699 c-4 -6 -5 -12 -2 -15 2 -3 7 2 10 11 7 17 1 20 -8 4z"/>
<path d="M3040 8633 c0 -6 7 -16 15 -23 9 -7 14 -19 11 -27 -3 -7 -1 -13 4
-13 20 0 18 18 -6 45 -13 15 -24 23 -24 18z"/>
<path d="M2590 9316 c0 -9 5 -16 10 -16 6 0 10 4 10 9 0 6 -4 13 -10 16 -5 3
-10 -1 -10 -9z"/>
<path d="M2790 9201 c0 -6 4 -13 10 -16 6 -3 7 1 4 9 -7 18 -14 21 -14 7z"/>
<path d="M2100 7685 c-12 -36 -19 -69 -16 -72 3 -3 8 0 10 8 31 96 37 121 33
125 -3 3 -15 -25 -27 -61z"/>
<path d="M5208 8455 c4 -55 7 -163 6 -240 0 -132 -2 -145 -33 -235 -19 -52
-51 -120 -72 -150 -25 -36 -39 -66 -38 -85 l1 -30 14 33 c8 18 38 61 67 95 70
82 95 125 103 173 7 48 -10 253 -36 419 l-19 120 7 -100z"/>
<path d="M3046 7360 c7 -8 14 -24 17 -35 4 -19 5 -19 6 1 0 12 -7 28 -16 35
-16 12 -17 12 -7 -1z"/>
<path d="M3041 7324 c0 -11 3 -14 6 -6 3 7 2 16 -1 19 -3 4 -6 -2 -5 -13z"/>
<path d="M3155 7310 c-3 -5 -1 -10 4 -10 6 0 11 5 11 10 0 6 -2 10 -4 10 -3 0
-8 -4 -11 -10z"/>
<path d="M3096 7218 c3 -5 10 -6 15 -3 13 9 11 12 -6 12 -8 0 -12 -4 -9 -9z"/>
<path d="M2841 7187 c-13 -21 -12 -21 5 -5 10 10 16 20 13 22 -3 3 -11 -5 -18
-17z"/>
<path d="M3147 7196 c-4 -10 -7 -25 -6 -34 0 -11 4 -9 10 7 5 13 8 29 6 35 -2
5 -6 2 -10 -8z"/>
<path d="M3091 7184 c0 -11 3 -14 6 -6 3 7 2 16 -1 19 -3 4 -6 -2 -5 -13z"/>
<path d="M3116 7175 c4 -8 8 -15 10 -15 2 0 4 7 4 15 0 8 -4 15 -10 15 -5 0
-7 -7 -4 -15z"/>
<path d="M3070 7164 c0 -5 8 -18 16 -29 11 -14 18 -16 21 -7 3 6 10 9 15 6 7
-5 8 -2 4 5 -5 7 -11 10 -14 7 -3 -3 -14 1 -24 11 -10 9 -18 12 -18 7z"/>
<path d="M3191 7054 c0 -11 3 -14 6 -6 3 7 2 16 -1 19 -3 4 -6 -2 -5 -13z"/>
<path d="M2775 7019 c-4 -6 -5 -12 -2 -15 2 -3 7 2 10 11 7 17 1 20 -8 4z"/>
<path d="M3062 7000 c0 -14 2 -19 5 -12 2 6 2 18 0 25 -3 6 -5 1 -5 -13z"/>
<path d="M3040 6971 c0 -6 4 -13 10 -16 6 -3 7 1 4 9 -7 18 -14 21 -14 7z"/>
<path d="M3070 6943 c0 -18 2 -33 4 -33 9 0 13 39 5 51 -6 10 -9 4 -9 -18z"/>
<path d="M2771 6914 c0 -11 3 -14 6 -6 3 7 2 16 -1 19 -3 4 -6 -2 -5 -13z"/>
<path d="M3071 6864 c0 -11 3 -14 6 -6 3 7 2 16 -1 19 -3 4 -6 -2 -5 -13z"/>
<path d="M3040 6841 c0 -5 5 -13 10 -16 6 -3 10 -2 10 4 0 5 -4 13 -10 16 -5
3 -10 2 -10 -4z"/>
<path d="M2692 6685 c0 -16 2 -22 5 -12 2 9 2 23 0 30 -3 6 -5 -1 -5 -18z"/>
<path d="M2691 6628 c0 -9 -4 -25 -7 -35 -5 -17 -5 -17 6 0 6 10 9 25 7 35 -4
15 -5 15 -6 0z"/>
<path d="M2627 6423 c-10 -9 -9 -33 1 -33 4 0 8 9 8 20 0 23 0 22 -9 13z"/>
<path d="M2611 6305 c-6 -22 -8 -41 -6 -44 3 -2 8 11 12 29 5 29 7 31 14 15 5
-13 8 -15 8 -5 0 8 -3 21 -8 29 -7 11 -12 4 -20 -24z"/>
<path d="M2581 6274 c0 -11 3 -14 6 -6 3 7 2 16 -1 19 -3 4 -6 -2 -5 -13z"/>
<path d="M2546 6023 c-4 -9 -3 -20 1 -24 4 -4 9 3 9 17 2 28 -1 31 -10 7z"/>
<path d="M2540 5958 c0 -19 -2 -20 -10 -8 -14 22 -12 -3 4 -40 12 -29 14 -30
19 -11 3 12 1 21 -4 21 -5 0 -6 14 -2 30 3 17 3 30 -1 30 -3 0 -6 -10 -6 -22z"/>
<path d="M2508 5898 c-2 -13 -4 -62 -3 -110 0 -49 -4 -89 -9 -91 -4 -1 -6 -12
-3 -22 5 -19 5 -19 12 2 4 13 10 21 14 18 4 -2 4 18 1 46 -4 27 -5 78 -3 114
3 65 -1 84 -9 43z"/>
<path d="M2547 5863 c-3 -5 -1 -26 3 -48 l8 -40 -1 47 c-2 50 -3 53 -10 41z"/>
<path d="M2531 5794 c0 -11 3 -14 6 -6 3 7 2 16 -1 19 -3 4 -6 -2 -5 -13z"/>
<path d="M2590 5675 c0 -14 4 -25 9 -25 4 0 6 11 3 25 -2 14 -6 25 -8 25 -2 0
-4 -11 -4 -25z"/>
<path d="M2621 5674 c0 -17 -3 -47 -6 -65 -4 -29 -3 -30 4 -9 l9 25 1 -24 c1
-13 3 -22 6 -19 3 2 1 31 -4 64 -5 35 -9 46 -10 28z"/>
<path d="M2682 5688 c3 -7 13 -15 22 -16 12 -3 17 1 14 10 -3 7 -13 15 -22 16
-12 3 -17 -1 -14 -10z"/>
<path d="M2511 5603 c1 -34 2 -35 9 -13 11 36 11 50 0 50 -5 0 -10 -17 -9 -37z"/>
<path d="M2631 5544 c0 -11 3 -14 6 -6 3 7 2 16 -1 19 -3 4 -6 -2 -5 -13z"/>
<path d="M2499 5524 c-11 -30 -3 -46 11 -24 10 16 13 50 5 50 -3 0 -10 -12
-16 -26z"/>
<path d="M2491 5475 c1 -19 18 -51 18 -35 0 8 -4 22 -9 30 -5 8 -9 11 -9 5z"/>
<path d="M2502 5350 c-1 -19 -5 -46 -7 -60 l-6 -25 11 25 c6 13 9 40 7 60 l-4
35 -1 -35z"/>
<path d="M2750 5201 c5 -11 10 -29 10 -40 0 -11 4 -22 9 -25 5 -4 8 4 7 16 -4
37 -17 68 -27 68 -6 0 -6 -7 1 -19z"/>
<path d="M2511 5124 c0 -11 3 -14 6 -6 3 7 2 16 -1 19 -3 4 -6 -2 -5 -13z"/>
<path d="M2540 4864 c0 -8 5 -12 10 -9 6 3 10 10 10 16 0 5 -4 9 -10 9 -5 0
-10 -7 -10 -16z"/>
<path d="M2562 4775 c0 -16 2 -22 5 -12 2 9 2 23 0 30 -3 6 -5 -1 -5 -18z"/>
<path d="M2435 5098 c-2 -7 -1 -29 3 -48 8 -35 8 -35 14 -7 3 15 1 27 -5 27
-5 0 -7 9 -4 20 6 22 -1 28 -8 8z"/>
<path d="M2422 5010 c0 -19 2 -27 5 -17 2 9 2 25 0 35 -3 9 -5 1 -5 -18z"/>
<path d="M2389 5008 c-2 -19 -5 -36 -8 -40 -1 -2 -4 -19 -6 -38 l-3 -35 11 35
c7 19 16 41 20 47 4 7 3 21 -2 30 -10 17 -10 17 -12 1z"/>
<path d="M2446 4988 c-9 -36 -7 -86 4 -93 6 -3 10 -23 11 -43 0 -30 2 -33 9
-17 8 19 9 19 9 1 1 -11 4 -17 7 -13 3 3 -4 33 -16 67 -14 40 -19 71 -15 90 8
35 0 41 -9 8z"/>
<path d="M2337 4903 c-4 -3 -7 -15 -7 -26 0 -13 5 -17 16 -13 9 3 17 6 19 6 2
0 1 9 -2 20 -5 21 -15 25 -26 13z"/>
<path d="M2380 4826 c0 -20 5 -36 10 -36 6 0 10 13 10 29 0 17 -4 33 -10 36
-6 4 -10 -8 -10 -29z"/>
<path d="M2493 4740 c0 -25 2 -35 4 -22 2 12 2 32 0 45 -2 12 -4 2 -4 -23z"/>
<path d="M2441 4754 c0 -11 3 -14 6 -6 3 7 2 16 -1 19 -3 4 -6 -2 -5 -13z"/>
<path d="M2450 4685 c-16 -19 -5 -49 15 -41 8 3 15 1 15 -4 0 -6 -4 -10 -10
-10 -5 0 2 -11 16 -25 14 -14 26 -25 27 -25 1 0 2 19 2 43 0 25 -5 44 -11 44
-6 0 -9 -10 -7 -21 4 -18 2 -17 -11 4 -8 14 -15 19 -16 13 0 -18 -20 -16 -20
2 0 7 8 19 18 24 9 6 12 11 6 11 -6 0 -17 -7 -24 -15z"/>
<path d="M2581 4594 c0 -11 3 -14 6 -6 3 7 2 16 -1 19 -3 4 -6 -2 -5 -13z"/>
<path d="M2430 4333 c1 -5 11 -28 24 -53 21 -40 24 -41 24 -17 0 15 -4 24 -9
22 -10 -7 -22 32 -14 45 3 5 -1 10 -9 10 -9 0 -16 -3 -16 -7z"/>
<path d="M2488 4248 c-3 -16 -1 -28 4 -28 5 0 13 -10 18 -22 8 -21 9 -21 9 -3
0 11 -6 34 -13 50 l-13 30 -5 -27z"/>
</g>
</svg>
