<?xml version="1.0" standalone="no"?>
<!DOCTYPE svg PUBLIC "-//W3C//DTD SVG 20010904//EN"
 "http://www.w3.org/TR/2001/REC-SVG-20010904/DTD/svg10.dtd">
<svg version="1.0" xmlns="http://www.w3.org/2000/svg"
 width="300.000000pt" height="433.000000pt" viewBox="0 0 300.000000 433.000000"
 preserveAspectRatio="xMidYMid meet">

<g transform="translate(0.000000,433.000000) scale(0.100000,-0.100000)"
fill="#000000" stroke="none">
<path d="M1280 4268 c0 -2 9 -44 19 -93 10 -50 22 -108 26 -130 l7 -40 -37 48
c-21 28 -56 57 -85 72 -52 26 -248 80 -257 71 -3 -3 20 -37 52 -76 31 -39 55
-73 52 -76 -2 -3 -27 -7 -56 -11 -28 -3 -51 -9 -51 -12 0 -3 15 -16 33 -28 18
-12 50 -40 71 -62 l39 -40 -44 16 c-24 9 -67 16 -95 16 -53 0 -254 -41 -254
-52 0 -4 22 -14 50 -24 51 -18 182 -111 234 -165 l28 -30 -58 -7 c-33 -4 -94
-15 -136 -26 -43 -10 -80 -19 -83 -19 -3 0 -5 -4 -5 -8 0 -5 33 -15 73 -22 69
-12 200 -55 254 -83 l26 -14 -47 -24 c-26 -13 -49 -26 -52 -30 -2 -3 31 -9 74
-12 79 -5 162 -36 162 -60 0 -21 -39 -40 -55 -27 -10 9 -23 4 -56 -19 -23 -17
-49 -31 -57 -31 -8 0 -20 -6 -26 -14 -6 -7 -49 -26 -95 -42 -50 -17 -86 -35
-90 -45 -8 -22 -89 -109 -102 -109 -15 0 -11 -28 11 -70 30 -58 43 -127 31
-164 -6 -17 -12 -76 -14 -132 -3 -84 -7 -106 -25 -132 -12 -16 -22 -36 -22
-42 0 -7 12 5 27 26 20 30 27 53 29 104 2 36 6 92 9 125 3 33 6 77 6 97 l1 37
34 -40 c19 -22 55 -58 81 -80 47 -38 83 -96 83 -132 0 -38 -32 -77 -65 -78
-24 -1 -26 -3 -7 -6 13 -3 28 -15 34 -29 6 -13 15 -24 19 -24 5 0 5 -7 2 -17
-5 -12 -3 -14 8 -8 12 8 12 6 0 -8 -7 -9 -11 -26 -8 -38 3 -12 3 -18 0 -15 -8
7 -81 -97 -76 -107 3 -4 12 -2 21 5 11 9 10 5 -3 -13 l-20 -27 -24 43 c-16 30
-35 48 -65 61 -22 10 -44 23 -48 29 -5 6 -8 5 -8 -2 0 -7 -7 -13 -15 -13 -11
0 -15 13 -17 48 l-1 47 -4 -45 c-2 -25 -11 -59 -19 -77 -13 -30 -17 -31 -40
-21 -22 10 -29 8 -55 -18 -16 -16 -38 -37 -48 -47 -22 -22 -44 -94 -39 -128 2
-15 11 -25 23 -27 11 -2 25 -13 30 -25 6 -12 21 -24 35 -25 13 -2 29 -11 36
-20 8 -11 21 -14 46 -9 20 3 40 1 47 -6 14 -14 44 13 66 59 9 19 20 34 25 34
6 0 10 5 10 10 0 13 75 124 95 140 8 7 28 36 45 65 23 41 30 65 30 106 0 87
68 203 71 122 1 -16 3 -61 5 -102 2 -41 0 -79 -5 -85 -21 -25 -51 -120 -76
-236 -22 -104 -30 -128 -58 -161 -62 -72 -87 -137 -124 -325 -25 -130 -43
-192 -64 -232 -23 -43 -28 -63 -23 -89 4 -23 2 -39 -9 -51 -8 -9 -32 -50 -53
-91 -35 -71 -37 -77 -27 -124 8 -37 7 -59 -4 -90 -13 -38 -13 -43 8 -70 l21
-29 -25 -87 c-43 -141 -68 -251 -62 -270 6 -21 -14 -64 -74 -156 -65 -99 -82
-140 -88 -215 -7 -82 5 -110 48 -110 34 0 139 52 210 104 52 39 163 180 190
243 10 24 27 55 39 70 11 16 48 112 82 215 58 172 66 189 97 210 19 13 39 37
44 53 5 17 15 44 23 62 8 17 14 48 14 68 0 20 8 49 19 63 10 15 26 50 34 79 9
29 25 65 36 80 13 18 27 71 41 147 11 65 27 130 35 146 8 15 24 71 36 124 12
53 25 96 28 96 14 0 61 -173 72 -260 8 -69 18 -105 35 -132 19 -29 24 -51 24
-99 0 -51 6 -72 30 -116 17 -29 30 -65 30 -81 0 -29 48 -180 70 -221 6 -12 30
-30 53 -40 l42 -18 53 -149 c30 -82 62 -161 73 -176 10 -15 30 -62 44 -105 14
-45 36 -91 52 -109 15 -17 54 -60 86 -96 66 -76 119 -101 222 -102 57 -1 60 0
64 24 2 14 -2 55 -9 93 -9 52 -23 85 -61 142 -67 103 -90 151 -91 188 0 18
-10 75 -23 127 -35 145 -48 236 -40 295 4 39 2 62 -9 83 -13 25 -13 40 -4 90
11 58 10 63 -19 124 -35 71 -64 168 -93 308 -13 61 -36 128 -63 185 -28 57
-49 117 -57 164 -17 102 -59 246 -108 369 -22 56 -36 105 -31 108 5 3 5 14 -1
25 -6 11 -9 23 -6 27 3 5 6 42 7 83 2 63 5 77 25 95 l23 22 12 -32 c7 -17 20
-40 30 -51 9 -11 22 -46 29 -77 12 -62 38 -103 72 -114 12 -3 45 -31 75 -60
29 -30 57 -54 62 -54 5 0 15 -15 21 -34 8 -27 18 -36 42 -41 17 -4 35 -2 41 4
6 6 19 11 29 11 10 0 27 9 37 19 11 11 30 21 43 23 13 2 24 11 26 23 3 11 13
28 23 38 24 23 24 37 -1 95 -12 28 -32 54 -50 64 -23 13 -28 13 -23 2 3 -8 12
-14 20 -14 12 0 13 -3 4 -14 -10 -12 -9 -14 7 -9 15 4 23 -4 36 -36 21 -54 20
-68 -4 -81 -12 -6 -20 -21 -20 -35 0 -20 -5 -25 -24 -25 -13 0 -29 -7 -36 -15
-15 -18 -40 -20 -41 -2 0 6 -5 2 -11 -10 -6 -12 -18 -23 -28 -26 -61 -16 -105
106 -55 153 l23 22 29 -29 c15 -16 22 -22 16 -13 -10 13 -10 19 0 29 9 10 8
11 -5 6 -10 -4 -18 -3 -18 3 0 16 29 35 46 28 11 -4 14 -1 9 13 -3 11 1 26 10
35 9 9 12 16 5 16 -6 0 -16 -11 -22 -25 -12 -26 -28 -34 -28 -13 0 6 -6 3 -14
-8 -23 -30 -29 -10 -8 27 15 28 26 35 58 38 l39 5 -48 5 c-48 6 -49 7 -65 54
-17 49 -55 97 -76 97 -6 0 1 -10 16 -23 23 -18 58 -80 58 -102 0 -14 -18 -2
-30 20 -7 14 -15 23 -17 21 -3 -2 0 -13 6 -24 9 -17 7 -21 -13 -26 -38 -9 -83
-53 -96 -91 -6 -19 -16 -35 -21 -35 -6 0 -8 4 -4 9 3 6 -4 15 -15 21 -15 8
-20 8 -20 -2 -1 -30 -40 42 -51 92 -6 30 -20 66 -30 79 -19 24 -17 47 4 34 6
-4 2 8 -9 26 -20 31 -20 35 -5 79 10 31 33 63 66 95 27 26 53 47 57 47 10 0
47 -121 51 -170 l4 -45 1 51 c2 47 -20 135 -40 160 -5 7 7 30 34 62 24 28 44
49 46 47 2 -2 -2 -21 -9 -42 -13 -40 -13 -170 1 -188 4 -5 11 -27 14 -49 4
-21 9 -36 12 -33 3 2 0 24 -7 48 -21 80 -26 181 -12 216 7 18 13 46 13 62 0
16 4 32 9 35 5 3 11 15 14 27 4 16 -1 23 -28 35 -18 7 -48 31 -67 53 -22 26
-61 53 -111 77 -42 20 -77 41 -77 46 0 6 -7 7 -16 4 -10 -4 -31 6 -54 24 -33
26 -39 28 -50 15 -7 -8 -16 -15 -21 -15 -14 0 -78 45 -78 55 -1 6 51 32 115
59 63 27 117 53 120 58 3 4 -11 8 -31 8 -22 0 -34 4 -30 10 10 15 128 73 228
111 71 26 84 35 68 41 -37 13 -193 30 -227 25 -62 -10 -35 16 71 69 38 18 75
34 82 34 7 0 13 4 13 9 0 15 -124 24 -227 18 -90 -5 -94 -5 -102 17 -14 35
-83 91 -137 111 -27 10 -53 22 -58 26 -5 5 -21 40 -37 79 -29 77 -98 199 -123
220 -9 7 -16 11 -16 8z m150 -745 c0 -58 -3 -74 -17 -82 -23 -12 -10 -26 14
-16 10 4 28 7 41 6 16 -2 22 3 22 17 0 18 47 49 57 38 3 -3 1 -19 -5 -35 -6
-17 -9 -31 -6 -31 7 0 27 53 25 66 -1 7 5 14 13 17 12 5 12 -3 0 -56 -8 -34
-20 -72 -26 -85 -13 -25 -99 -101 -136 -121 -30 -16 -72 4 -138 68 -81 78
-105 179 -64 269 10 23 21 42 25 42 3 0 5 -23 5 -51 0 -46 -2 -50 -20 -44 -31
10 -24 -11 13 -37 17 -13 33 -22 35 -20 9 9 22 -1 22 -18 0 -13 7 -20 19 -20
34 0 32 17 -4 41 -19 13 -35 28 -35 33 0 5 17 30 37 55 44 54 52 62 78 77 17
10 22 8 32 -15 7 -14 12 -58 13 -98z m126 23 c-2 -6 -5 -3 -5 6 -1 9 -5 19 -9
22 -5 3 -7 -8 -4 -23 4 -28 -9 -42 -67 -76 -12 -7 30 76 51 100 4 5 8 18 8 30
1 14 5 11 16 -14 8 -19 12 -39 10 -45z m102 -26 c-4 -52 -9 -65 -38 -95 -19
-19 -38 -35 -44 -35 -5 0 2 13 17 28 15 16 24 32 20 37 -5 4 -2 5 6 0 10 -6
12 -2 7 14 -16 56 -17 66 -7 51 8 -12 12 -10 19 10 6 14 6 26 1 28 -12 5 -1
22 13 22 7 0 9 -22 6 -60z m-518 34 c0 -8 -4 -12 -10 -9 -13 8 -13 -5 0 -25 5
-8 10 -10 11 -5 1 9 17 -61 21 -93 1 -7 8 -10 15 -8 8 3 12 2 8 -3 -3 -5 1
-12 7 -14 8 -3 5 -6 -5 -6 -33 -2 -74 54 -82 109 -4 27 -4 54 0 60 10 16 35
12 35 -6z m40 -104 c12 -23 12 -24 -3 -11 -10 7 -17 20 -17 29 0 18 3 16 20
-18z m366 -135 c-9 -9 -16 -25 -16 -36 0 -23 -27 -80 -44 -92 -6 -5 0 -5 14
-1 39 11 190 14 190 4 0 -17 -77 -59 -138 -74 -70 -19 -247 -21 -321 -5 -39 8
-58 19 -80 46 -27 32 -28 37 -17 74 10 35 57 88 78 89 4 0 9 -21 11 -47 l3
-48 2 54 2 54 44 -41 c55 -51 102 -75 130 -68 12 3 40 17 62 31 l39 25 -32
-28 c-32 -28 -46 -60 -20 -47 6 4 4 0 -6 -8 -10 -9 -19 -19 -20 -24 -1 -4 -15
-7 -31 -6 -20 1 -41 14 -68 45 -36 39 -45 36 -10 -4 14 -17 13 -18 -14 -19
-28 -1 -28 -1 6 -10 65 -18 92 -32 100 -53 l9 -21 0 21 c1 11 12 27 26 34 14
7 23 16 20 18 -3 3 6 24 20 48 14 23 25 47 25 53 0 13 42 62 48 56 2 -2 -3
-11 -12 -20z m94 -32 l25 -28 -31 28 c-35 32 -41 33 -47 10 -3 -10 -4 -6 -4 9
1 31 18 26 57 -19z m-492 13 c-7 -8 -15 -12 -17 -11 -5 6 10 25 20 25 5 0 4
-6 -3 -14z m-38 -20 c0 -2 -8 -10 -17 -17 -16 -13 -17 -12 -4 4 13 16 21 21
21 13z m522 -13 c22 -20 23 -39 2 -47 -29 -11 -34 -6 -34 29 0 39 5 42 32 18z
m152 -8 c3 -8 1 -15 -4 -15 -6 0 -10 7 -10 15 0 8 2 15 4 15 2 0 6 -7 10 -15z
m-747 -67 c-3 -8 -6 -5 -6 6 -1 11 2 17 5 13 3 -3 4 -12 1 -19z m70 -30 c-3
-8 -6 -5 -6 6 -1 11 2 17 5 13 3 -3 4 -12 1 -19z m670 -60 c-3 -7 -5 -2 -5 12
0 14 2 19 5 13 2 -7 2 -19 0 -25z m-41 -4 c-4 -9 -9 -15 -11 -12 -3 3 -3 13 1
22 4 9 9 15 11 12 3 -3 3 -13 -1 -22z m-669 -26 c-3 -8 -6 -5 -6 6 -1 11 2 17
5 13 3 -3 4 -12 1 -19z m-120 -30 c-3 -7 -5 -2 -5 12 0 14 2 19 5 13 2 -7 2
-19 0 -25z m773 -9 c-6 -10 -13 -19 -16 -19 -2 0 0 8 5 19 6 10 7 22 3 26 -4
5 -1 5 6 1 9 -5 9 -12 2 -27z m-853 -41 c-3 -7 -5 -2 -5 12 0 14 2 19 5 13 2
-7 2 -19 0 -25z m80 10 c-3 -8 -6 -5 -6 6 -1 11 2 17 5 13 3 -3 4 -12 1 -19z
m173 -13 c14 -19 14 -19 -2 -6 -10 7 -18 18 -18 24 0 6 1 8 3 6 1 -2 9 -13 17
-24z m560 -24 c-5 -11 -15 -23 -21 -27 -6 -3 -3 5 6 20 20 30 30 35 15 7z
m-785 -53 c3 -7 -1 -4 -9 6 -9 11 -16 29 -15 40 1 17 2 16 9 -6 4 -14 11 -32
15 -40z m283 -3 c-3 -4 -16 9 -28 27 l-23 33 28 -27 c16 -15 26 -30 23 -33z
m-196 -80 c3 -50 2 -81 -3 -70 -7 19 -13 173 -5 164 2 -2 6 -44 8 -94z m668
91 c0 -2 -8 -10 -17 -17 -16 -13 -17 -12 -4 4 13 16 21 21 21 13z m-414 -68
l29 -33 -32 29 c-31 28 -38 36 -30 36 2 0 16 -15 33 -32z m364 17 c0 -7 -143
-125 -152 -125 -5 0 26 29 69 64 83 68 83 68 83 61z m-261 -112 c2 -2 2 -5 -1
-8 -2 -3 -18 10 -34 28 l-29 32 30 -25 c17 -14 32 -26 34 -27z m32 -30 c13
-16 12 -17 -3 -4 -17 13 -22 21 -14 21 2 0 10 -8 17 -17z m59 13 c0 -2 -8 -10
-17 -17 -16 -13 -17 -12 -4 4 13 16 21 21 21 13z m-429 -23 c13 -16 12 -17 -3
-4 -10 7 -18 15 -18 17 0 8 8 3 21 -13z m17 -68 c-3 -3 -9 2 -12 12 -6 14 -5
15 5 6 7 -7 10 -15 7 -18z m52 10 c0 -12 -19 -12 -23 0 -4 9 -1 12 9 8 7 -3
14 -7 14 -8z m48 -22 c-10 -2 -26 -2 -35 0 -10 3 -2 5 17 5 19 0 27 -2 18 -5z
m-125 -78 c-3 -9 -8 -14 -10 -11 -3 3 -2 9 2 15 9 16 15 13 8 -4z m-6 -97 c-3
-8 -6 -5 -6 6 -1 11 2 17 5 13 3 -3 4 -12 1 -19z m1150 -44 c-3 -3 -12 -4 -19
-1 -8 3 -5 6 6 6 11 1 17 -2 13 -5z m-1047 -24 c-6 -11 -13 -20 -16 -20 -2 0
0 9 6 20 6 11 13 20 16 20 2 0 0 -9 -6 -20z m62 -2 c-7 -27 -17 -29 -17 -4 0
13 5 23 11 23 6 0 9 -9 6 -19z m49 -15 c-12 -20 -14 -14 -5 12 4 9 9 14 11 11
3 -2 0 -13 -6 -23z m-499 -64 c21 -18 15 -49 -10 -49 -12 0 -13 -3 -5 -11 9
-9 8 -18 -4 -38 l-17 -26 23 23 c12 12 29 22 39 22 13 0 14 -2 4 -9 -11 -7
-11 -9 1 -14 8 -3 13 -16 12 -29 -1 -13 0 -15 2 -5 2 9 11 17 19 17 19 0 19
-69 0 -95 -18 -25 -121 -32 -130 -10 -3 8 -16 15 -30 15 -16 0 -27 7 -31 21
-4 11 -18 24 -31 29 -20 8 -23 15 -20 49 5 48 25 91 50 105 10 6 30 22 43 35
27 25 20 28 85 -30z m371 36 c4 -8 3 -16 -1 -19 -4 -3 -9 4 -9 15 -2 23 3 25
10 4z m294 -92 c-3 -10 -5 -2 -5 17 0 19 2 27 5 18 2 -10 2 -26 0 -35z m-236
4 c-10 -9 -11 -8 -5 6 3 10 9 15 12 12 3 -3 0 -11 -7 -18z m516 -14 c-3 -10
-5 -4 -5 12 0 17 2 24 5 18 2 -7 2 -21 0 -30z m-849 -38 c4 -16 2 -16 -22 0
-14 10 -26 24 -26 32 0 14 3 14 23 1 12 -9 24 -23 25 -33z m819 8 c-3 -10 -5
-4 -5 12 0 17 2 24 5 18 2 -7 2 -21 0 -30z m-190 -15 c-3 -7 -5 -2 -5 12 0 14
2 19 5 13 2 -7 2 -19 0 -25z m-280 -10 c-3 -8 -6 -5 -6 6 -1 11 2 17 5 13 3
-3 4 -12 1 -19z m34 -9 c-5 -13 -10 -19 -10 -12 -1 15 10 45 15 40 3 -2 0 -15
-5 -28z m176 -1 c-3 -8 -6 -5 -6 6 -1 11 2 17 5 13 3 -3 4 -12 1 -19z m-340
-20 c-3 -8 -6 -5 -6 6 -1 11 2 17 5 13 3 -3 4 -12 1 -19z m420 -55 c-3 -10 -5
-4 -5 12 0 17 2 24 5 18 2 -7 2 -21 0 -30z m0 -75 c-3 -8 -6 -5 -6 6 -1 11 2
17 5 13 3 -3 4 -12 1 -19z m-485 -40 c-5 -7 -9 -25 -7 -41 2 -15 -1 -25 -5
-22 -5 3 -6 13 -3 23 5 14 3 14 -17 -3 -19 -17 -19 -14 6 21 16 23 31 40 33
38 2 -2 -1 -9 -7 -16z m-95 -190 c-3 -8 -6 -5 -6 6 -1 11 2 17 5 13 3 -3 4
-12 1 -19z m711 -11 c17 -18 19 -24 8 -24 -8 0 -13 4 -10 9 3 4 1 8 -4 8 -6 0
-12 7 -16 15 -8 21 -3 19 22 -8z m-721 -49 c-3 -8 -6 -5 -6 6 -1 11 2 17 5 13
3 -3 4 -12 1 -19z m636 -88 c3 -11 1 -18 -4 -14 -5 3 -9 12 -9 20 0 20 7 17
13 -6z m-333 7 c0 -2 -16 -18 -35 -37 -19 -19 -35 -31 -35 -27 0 3 15 20 33
36 31 30 37 34 37 28z m395 -53 c9 -15 12 -23 6 -20 -11 7 -35 46 -28 46 3 0
12 -12 22 -26z m96 -39 l10 -20 -16 20 c-9 11 -21 29 -26 40 l-10 20 16 -20
c9 -11 21 -29 26 -40z m-734 13 c-3 -8 -6 -5 -6 6 -1 11 2 17 5 13 3 -3 4 -12
1 -19z m158 4 c-53 -42 -60 -46 -33 -19 16 15 31 27 35 27 4 0 3 -3 -2 -8z
m-228 -49 c-3 -10 -5 -4 -5 12 0 17 2 24 5 18 2 -7 2 -21 0 -30z m674 -18 c9
-18 9 -19 -4 -3 -8 10 -16 16 -18 13 -3 -2 -6 6 -6 18 -2 23 6 15 28 -28z
m-704 13 c-3 -8 -6 -5 -6 6 -1 11 2 17 5 13 3 -3 4 -12 1 -19z m743 -18 c12
-16 19 -30 16 -30 -2 0 -14 14 -26 30 -12 17 -19 30 -16 30 2 0 14 -13 26 -30z
m130 -35 c0 -5 -5 -3 -10 5 -5 8 -10 20 -10 25 0 6 5 3 10 -5 5 -8 10 -19 10
-25z m-843 -7 c-3 -7 -5 -2 -5 12 0 14 2 19 5 13 2 -7 2 -19 0 -25z m160 26
c-3 -3 -12 -4 -19 -1 -8 3 -5 6 6 6 11 1 17 -2 13 -5z m513 -29 c0 -5 -5 -3
-10 5 -5 8 -10 20 -10 25 0 6 5 3 10 -5 5 -8 10 -19 10 -25z m40 -7 c15 -21
17 -28 6 -19 -16 13 -41 51 -33 51 2 0 14 -15 27 -32z m60 -63 c13 -14 21 -25
18 -25 -2 0 -15 11 -28 25 -13 14 -21 25 -18 25 2 0 15 -11 28 -25z m-851 -3
c7 -13 6 -19 -2 -19 -7 0 -13 9 -13 19 0 10 1 18 3 18 1 0 7 -8 12 -18z m96 8
c3 -5 1 -10 -4 -10 -6 0 -11 5 -11 10 0 6 2 10 4 10 3 0 8 -4 11 -10z m710
-10 c10 -11 16 -20 13 -20 -3 0 -13 9 -23 20 -10 11 -16 20 -13 20 3 0 13 -9
23 -20z m382 -12 c-3 -8 -6 -5 -6 6 -1 11 2 17 5 13 3 -3 4 -12 1 -19z m-344
-67 c-2 -3 -18 10 -36 29 l-32 34 36 -30 c20 -16 34 -31 32 -33z m-840 19 c3
-11 1 -18 -4 -14 -5 3 -9 12 -9 20 0 20 7 17 13 -6z m897 -25 c19 -19 32 -35
29 -35 -3 0 -20 16 -39 35 -19 19 -32 35 -29 35 3 0 20 -16 39 -35z m254 14
c-10 -11 -28 -25 -39 -31 -11 -6 -4 4 15 20 41 36 51 41 24 11z m-264 -45 c0
-2 -9 0 -20 6 -11 6 -20 13 -20 16 0 2 9 0 20 -6 11 -6 20 -13 20 -16z m-81
-39 c0 -5 -6 1 -14 15 -8 14 -14 30 -14 35 0 6 6 -1 14 -15 8 -14 14 -29 14
-35z m-873 -2 c-8 -15 -15 -25 -16 -21 0 12 23 58 27 54 3 -2 -2 -17 -11 -33z
m61 -25 c-3 -8 -6 -5 -6 6 -1 11 2 17 5 13 3 -3 4 -12 1 -19z m77 -58 c3 -14
-3 -7 -13 15 -11 22 -20 45 -20 50 0 15 26 -37 33 -65z m786 15 c24 -29 24
-29 2 -10 -13 11 -28 29 -34 40 -11 21 -8 18 32 -30z m115 25 c10 -11 16 -20
13 -20 -3 0 -13 9 -23 20 -10 11 -16 20 -13 20 3 0 13 -9 23 -20z m-1074 -27
c-12 -20 -14 -14 -5 12 4 9 9 14 11 11 3 -2 0 -13 -6 -23z m1236 11 c-3 -3
-12 -4 -19 -1 -8 3 -5 6 6 6 11 1 17 -2 13 -5z m-49 -11 c-10 -2 -28 -2 -40 0
-13 2 -5 4 17 4 22 1 32 -1 23 -4z m-1078 -13 c0 -5 -2 -10 -4 -10 -3 0 -8 5
-11 10 -3 6 -1 10 4 10 6 0 11 -4 11 -10z m114 -26 c3 -8 2 -12 -4 -9 -6 3
-10 10 -10 16 0 14 7 11 14 -7z m816 -55 c17 -13 18 -17 5 -10 -33 17 -51 31
-40 31 6 0 21 -10 35 -21z m-1026 -15 c3 -8 2 -12 -4 -9 -6 3 -10 10 -10 16 0
14 7 11 14 -7z m183 -6 c-3 -8 -6 -5 -6 6 -1 11 2 17 5 13 3 -3 4 -12 1 -19z
m-88 -40 c13 -21 21 -38 18 -38 -6 0 -57 78 -57 87 0 10 14 -7 39 -49z m1031
38 c-7 -7 -13 -7 -20 0 -6 6 -3 10 10 10 13 0 16 -4 10 -10z m-167 -11 c-3 -9
-8 -14 -10 -11 -3 3 -2 9 2 15 9 16 15 13 8 -4z m-939 -31 c3 -8 2 -12 -4 -9
-6 3 -10 10 -10 16 0 14 7 11 14 -7z m1264 -43 c-7 -12 -16 -21 -21 -21 -4 0
0 11 10 24 22 29 30 27 11 -3z m-1304 -3 c-5 -7 -1 -9 9 -5 9 3 21 -1 29 -11
12 -16 11 -16 -6 -2 -18 14 -19 13 -12 -4 6 -19 6 -19 -12 -3 -18 17 -27 51
-10 41 5 -3 5 -10 2 -16z m1010 0 c-4 -5 4 -21 17 -34 14 -15 17 -23 8 -19 -8
3 -23 18 -32 34 -13 23 -14 28 -2 28 8 0 12 -4 9 -9z m-850 -16 c2 -4 -5 -9
-17 -9 -17 -2 -19 0 -7 7 18 12 18 12 24 2z m1108 -19 c-6 -2 -9 -10 -6 -15 4
-7 2 -8 -4 -4 -7 4 -12 2 -12 -3 0 -6 -6 -10 -12 -8 -7 1 -12 -3 -11 -10 1 -6
-4 -14 -12 -17 -8 -3 -15 -3 -15 0 0 11 62 64 74 63 7 0 7 -2 -2 -6z m-1234
-48 c-3 -3 -9 2 -12 12 -6 14 -5 15 5 6 7 -7 10 -15 7 -18z m1107 -4 c-3 -2
-11 1 -18 7 -8 7 -18 8 -22 4 -5 -4 -5 -1 -1 5 5 10 11 10 26 1 11 -7 17 -14
15 -17z m255 15 c0 -2 -7 -7 -16 -10 -8 -3 -12 -2 -9 4 6 10 25 14 25 6z
m-1326 -17 c-4 -8 1 -9 17 -4 19 6 22 5 12 -5 -13 -14 -48 -5 -38 10 3 5 8 10
11 10 3 0 2 -5 -2 -11z m1275 -13 c6 -8 25 -58 42 -112 17 -55 38 -112 46
-127 8 -15 11 -37 8 -48 -7 -21 -25 -17 -25 7 0 8 -18 53 -40 100 -22 46 -45
103 -51 124 -9 28 -18 40 -31 40 -20 0 -24 16 -5 23 23 10 45 7 56 -7z m-1248
-34 c13 -6 9 -27 -32 -152 -26 -80 -48 -153 -48 -162 -1 -22 -20 -33 -33 -20
-7 7 6 60 42 166 28 85 49 160 45 166 -7 11 2 12 26 2z m1424 -449 c25 -51 57
-101 69 -111 13 -10 31 -33 41 -52 18 -34 18 -35 0 -20 -46 37 -87 90 -116
150 -54 112 -59 123 -59 134 0 20 18 -9 65 -101z m-1535 50 c0 -7 -40 -76
-122 -210 -10 -17 -23 -45 -28 -62 -8 -29 -7 -31 17 -31 l26 0 -26 -20 c-54
-43 -88 -20 -85 60 l1 55 6 -45 6 -45 49 85 c27 47 66 115 88 153 21 37 45 67
53 67 8 0 15 -3 15 -7z m1404 -152 c78 -93 86 -99 181 -122 39 -10 62 -18 52
-18 -49 -2 -150 33 -180 63 -51 50 -157 179 -157 190 0 6 8 2 18 -10 9 -12 48
-58 86 -103z"/>
<path d="M1363 3593 c-3 -10 -8 -22 -11 -27 -3 -5 0 -6 5 -3 11 7 25 47 17 47
-3 0 -7 -8 -11 -17z"/>
<path d="M1370 3431 c0 -6 4 -13 10 -16 6 -3 7 1 4 9 -7 18 -14 21 -14 7z"/>
<path d="M1500 3400 c0 -5 4 -10 9 -10 6 0 13 5 16 10 3 6 -1 10 -9 10 -9 0
-16 -4 -16 -10z"/>
<path d="M1303 3393 c9 -2 23 -2 30 0 6 3 -1 5 -18 5 -16 0 -22 -2 -12 -5z"/>
<path d="M1424 3391 c3 -5 15 -7 26 -4 28 7 25 13 -6 13 -14 0 -23 -4 -20 -9z"/>
<path d="M1394 3368 c4 -17 2 -28 -4 -28 -5 0 -10 -4 -10 -10 0 -5 9 -10 20
-10 17 0 19 4 14 28 -4 15 -11 32 -17 37 -6 7 -7 1 -3 -17z"/>
<path d="M1385 3300 c-3 -5 -1 -10 4 -10 6 0 11 5 11 10 0 6 -2 10 -4 10 -3 0
-8 -4 -11 -10z"/>
<path d="M1170 3190 c0 -5 5 -10 10 -10 6 0 10 5 10 10 0 6 -4 10 -10 10 -5 0
-10 -4 -10 -10z"/>
<path d="M627 2290 c3 -10 -4 -35 -16 -53 -12 -19 -21 -38 -21 -43 0 -5 10 7
21 26 12 19 26 38 31 41 7 4 6 14 -1 28 -15 26 -21 27 -14 1z"/>
<path d="M663 2280 c1 -11 2 -20 3 -20 1 0 9 3 18 6 13 5 13 8 1 20 -19 19
-24 18 -22 -6z"/>
<path d="M1452 4010 c0 -14 2 -19 5 -12 2 6 2 18 0 25 -3 6 -5 1 -5 -13z"/>
<path d="M1818 3843 c7 -3 16 -2 19 1 4 3 -2 6 -13 5 -11 0 -14 -3 -6 -6z"/>
<path d="M848 3703 c6 -2 18 -2 25 0 6 3 1 5 -13 5 -14 0 -19 -2 -12 -5z"/>
<path d="M836 2754 c-4 -20 -5 -38 -3 -40 3 -3 8 11 11 32 4 20 5 38 3 40 -3
3 -8 -11 -11 -32z"/>
<path d="M1931 2637 c2 -1 15 -11 29 -22 l25 -20 -19 23 c-11 12 -24 22 -29
22 -6 0 -8 -1 -6 -3z"/>
<path d="M890 2530 c-2 -29 -5 -47 -15 -75 -4 -11 3 -5 15 12 18 27 20 38 12
60 l-10 28 -2 -25z"/>
<path d="M766 2495 c-3 -9 -6 -26 -5 -38 1 -14 4 -9 9 13 9 37 7 52 -4 25z"/>
<path d="M2220 2400 c6 -11 13 -20 16 -20 2 0 0 9 -6 20 -6 11 -13 20 -16 20
-2 0 0 -9 6 -20z"/>
<path d="M2103 2378 c-19 -25 -24 -38 -14 -38 11 0 35 39 28 46 -2 3 -9 -1
-14 -8z"/>
<path d="M2286 2364 c-9 -23 -2 -28 13 -10 7 8 8 17 3 20 -6 3 -13 -1 -16 -10z"/>
<path d="M2100 2321 c0 -6 4 -13 10 -16 6 -3 7 1 4 9 -7 18 -14 21 -14 7z"/>
</g>
</svg>
