<?xml version="1.0" standalone="no"?>
<!DOCTYPE svg PUBLIC "-//W3C//DTD SVG 20010904//EN"
 "http://www.w3.org/TR/2001/REC-SVG-20010904/DTD/svg10.dtd">
<svg version="1.0" xmlns="http://www.w3.org/2000/svg"
 width="800.000000pt" height="832.000000pt" viewBox="0 0 800.000000 832.000000"
 preserveAspectRatio="xMidYMid meet">

<g transform="translate(0.000000,832.000000) scale(0.100000,-0.100000)"
fill="#000000" stroke="none">
<path d="M3380 8301 c-38 -12 -92 -41 -123 -67 -16 -13 -35 -24 -43 -24 -7 0
-20 -13 -28 -28 -8 -16 -22 -34 -30 -41 -8 -7 -29 -47 -45 -89 -23 -60 -30
-96 -32 -162 -2 -79 0 -91 34 -167 20 -46 34 -83 31 -83 -3 0 -30 11 -61 26
-59 27 -221 69 -231 60 -3 -3 64 -73 148 -154 84 -82 151 -154 149 -160 -2 -6
-26 -25 -54 -44 -57 -38 -90 -92 -100 -169 l-7 -49 -46 6 c-42 5 -52 2 -89
-25 -24 -17 -43 -38 -43 -45 0 -8 -10 -22 -22 -30 -17 -12 -18 -16 -7 -16 14
0 15 -7 8 -42 -10 -50 -22 -310 -13 -288 3 8 8 22 11 30 3 8 7 49 9 90 2 41 6
113 10 160 6 84 7 86 48 123 37 35 44 38 81 32 22 -3 44 -10 48 -14 10 -10
-42 -87 -72 -108 -24 -16 -33 -65 -33 -183 0 -59 4 -96 12 -103 9 -9 11 -5 5
21 -15 72 13 290 31 245 3 -7 28 -49 55 -94 l49 -82 2 -101 c1 -88 2 -93 7
-41 l6 60 8 -80 c13 -133 29 -175 89 -231 47 -45 191 -134 214 -134 5 0 -28
22 -74 48 -45 27 -102 67 -126 90 -65 62 -79 99 -84 227 -2 61 -8 114 -13 120
-16 17 -10 33 11 28 11 -3 20 -11 20 -19 0 -7 8 -21 18 -31 10 -10 46 -59 80
-108 34 -50 87 -119 118 -153 45 -50 62 -62 86 -62 45 0 335 77 325 86 -2 2
-35 -5 -73 -17 -126 -36 -239 -60 -261 -55 -25 7 -105 94 -97 107 3 5 0 8 -7
7 -6 -2 -14 3 -17 11 -3 9 0 11 8 6 9 -6 9 -3 1 14 -7 12 -9 26 -5 32 4 8 0 8
-14 0 -18 -9 -24 -7 -40 17 -37 54 -38 58 -9 39 43 -28 115 -67 124 -67 4 0
-10 12 -32 28 -89 60 -185 137 -185 148 0 6 8 14 18 17 9 2 26 8 37 12 l20 8
-20 -17 c-20 -17 -20 -17 2 -6 19 9 38 4 110 -26 123 -52 183 -52 321 0 56 22
100 41 98 44 -3 2 -44 -10 -91 -27 -114 -41 -176 -48 -249 -27 -36 11 -54 21
-50 28 4 7 3 8 -5 4 -12 -8 -101 22 -101 34 0 4 40 21 90 36 49 16 90 32 90
35 0 12 -95 -14 -174 -47 -44 -19 -91 -34 -104 -34 -33 0 -62 18 -56 34 3 8 0
17 -7 22 -8 4 -10 3 -5 -4 4 -7 5 -12 2 -12 -6 0 -76 105 -76 114 0 4 5 4 12
0 7 -4 8 -3 4 5 -4 6 -12 9 -17 6 -18 -12 -8 43 13 70 l22 28 8 -23 c10 -26 1
-63 -13 -55 -5 3 -6 -1 -3 -9 9 -23 22 -20 26 5 3 20 6 19 43 -14 49 -44 115
-82 115 -67 0 8 6 8 21 0 11 -7 23 -10 25 -7 6 6 -123 87 -139 87 -23 0 -46
33 -60 90 -16 60 -14 90 9 161 16 52 40 77 100 108 40 21 41 21 82 3 23 -10
39 -22 34 -27 -4 -5 -1 -5 6 -1 7 4 28 2 48 -4 34 -12 35 -12 15 -26 -15 -11
-26 -12 -40 -4 -36 19 -69 11 -121 -31 -65 -51 -58 -64 8 -15 59 43 86 45 132
11 19 -14 27 -25 19 -25 -8 0 -19 4 -25 10 -20 20 -88 -13 -146 -72 -32 -32
-58 -63 -58 -69 0 -6 26 17 58 50 32 34 70 63 86 67 56 14 273 -51 307 -92 27
-33 -124 -58 -212 -34 -45 13 -43 30 4 31 18 0 41 4 52 9 15 6 9 9 -27 9 -59
1 -78 -6 -78 -30 0 -25 27 -35 123 -44 68 -6 83 -4 122 15 25 12 60 40 78 62
17 21 65 62 107 90 41 29 103 74 138 101 61 48 64 49 115 44 l52 -6 -40 13
c-37 12 -38 13 -15 19 40 11 46 9 79 -25 17 -17 31 -27 31 -21 0 17 -59 63
-79 63 -23 0 -108 -37 -116 -50 -3 -6 -11 -10 -16 -10 -6 0 0 18 12 40 15 27
45 54 86 81 35 21 63 42 63 44 0 3 -27 -8 -60 -25 -38 -19 -71 -45 -89 -70
-22 -30 -30 -36 -35 -25 -4 10 6 26 27 45 19 16 42 47 52 69 16 36 22 41 61
47 57 8 105 -1 138 -27 35 -28 33 -40 -6 -33 -25 4 -20 0 20 -16 28 -12 52
-25 52 -30 0 -5 -18 -35 -40 -67 -22 -32 -46 -82 -53 -111 -11 -48 -19 -59
-87 -116 -41 -35 -94 -76 -117 -91 -24 -15 -43 -32 -43 -37 0 -5 17 2 37 16
20 14 40 23 45 20 4 -3 8 -1 8 4 0 4 14 18 31 31 24 18 28 19 18 4 -20 -31
-141 -119 -217 -157 -39 -20 -72 -38 -72 -40 0 -2 31 9 69 25 38 16 77 26 88
23 13 -4 14 -3 5 4 -10 7 -4 15 25 33 51 32 57 34 48 18 -5 -8 -4 -11 1 -6 5
5 9 12 9 15 1 4 15 22 33 41 28 29 34 23 13 -14 -3 -5 -6 -14 -7 -20 -6 -31
-59 -185 -75 -216 -24 -49 -55 -73 -195 -154 -66 -38 -121 -72 -124 -77 -3 -4
-24 -14 -45 -23 l-40 -15 35 6 c78 14 266 126 333 198 49 52 54 61 113 231 26
77 59 156 72 175 l23 34 -6 -39 c-3 -22 -9 -89 -15 -150 -15 -173 -63 -286
-191 -447 -116 -145 -238 -245 -403 -328 -47 -24 -84 -45 -82 -47 9 -9 196 93
261 142 140 105 301 289 360 410 46 94 62 163 75 313 22 250 40 301 159 441
57 67 155 141 187 141 30 0 30 -7 0 -31 -30 -23 -135 -192 -175 -280 -54 -118
-94 -333 -81 -434 6 -49 6 -48 13 33 10 109 29 196 66 305 16 48 25 85 20 82
-18 -12 -8 14 31 84 81 142 118 192 175 232 57 40 99 64 148 86 l28 13 -22
-38 c-13 -20 -44 -72 -70 -114 -27 -43 -45 -78 -41 -78 4 1 39 53 77 117 83
138 137 203 171 203 22 0 17 -8 -46 -86 -65 -80 -75 -94 -66 -94 2 0 36 41 77
90 82 100 106 115 239 154 120 35 232 54 354 62 l106 7 0 -69 c0 -77 -20 -171
-52 -254 -50 -127 -139 -290 -212 -385 -17 -22 -31 -41 -32 -42 0 -2 -25 4
-55 13 -48 14 -139 67 -139 80 0 3 20 4 45 3 24 -2 47 0 51 4 4 4 -8 7 -27 7
-55 0 -108 19 -125 45 -15 23 -14 27 6 57 l22 33 -27 -30 c-17 -18 -25 -23
-21 -12 4 12 2 16 -5 11 -7 -4 -10 1 -7 12 3 16 16 20 79 25 42 4 85 11 95 17
14 9 15 12 4 12 -8 0 14 11 50 23 62 21 127 57 103 57 -6 0 -33 -11 -60 -25
-41 -21 -220 -61 -230 -52 -1 2 3 12 11 22 12 17 16 17 30 6 9 -8 19 -11 23
-7 3 3 2 6 -4 6 -46 0 53 93 197 185 41 27 91 59 111 72 41 27 107 93 93 93
-6 0 -23 -14 -40 -31 -16 -17 -63 -51 -104 -77 -261 -162 -329 -229 -478 -468
-115 -186 -140 -216 -257 -304 -38 -30 -87 -67 -107 -83 -22 -17 -41 -26 -49
-22 -7 5 -10 4 -6 -2 4 -6 0 -16 -7 -22 -35 -29 40 147 122 288 8 13 9 20 3
17 -20 -13 -11 7 17 38 21 24 22 26 3 11 -26 -22 -111 -129 -111 -140 0 -4 9
3 20 16 26 32 26 9 -1 -25 -12 -15 -47 -102 -79 -194 -112 -323 -159 -413
-295 -560 -88 -95 -113 -109 -231 -127 -160 -25 -276 -46 -319 -58 -37 -9 -38
-11 -15 -17 22 -6 16 -10 -42 -28 -51 -16 -74 -19 -100 -12 -36 11 -198 108
-236 143 -50 46 -80 127 -117 320 -22 113 -35 154 -35 111 0 -11 5 -46 11 -78
6 -32 8 -60 5 -64 -12 -11 -50 36 -82 103 -36 73 -47 71 -14 -4 23 -50 24 -55
9 -45 -19 11 22 -60 57 -98 22 -24 32 -44 28 -55 -5 -15 -4 -15 5 -3 13 18 26
6 35 -34 6 -24 4 -27 -9 -22 -9 3 -26 6 -36 6 -11 0 -17 4 -14 10 3 5 0 7 -9
4 -8 -3 -31 0 -51 6 -44 15 -41 23 3 11 29 -9 30 -8 19 9 -6 11 -14 16 -17 11
-3 -4 -21 -7 -40 -7 -28 1 -58 18 -130 73 -105 78 -168 113 -202 113 -17 -1
-12 -5 16 -15 64 -22 189 -115 157 -115 -7 0 -9 -5 -5 -11 5 -8 9 -8 14 1 6 9
15 6 36 -14 l29 -26 -55 16 c-82 24 -198 71 -258 106 -111 63 -352 276 -352
310 0 31 169 114 301 148 l67 17 1 -53 c0 -47 22 -124 35 -124 3 0 -2 16 -10
35 -7 19 -14 57 -14 85 0 42 5 55 26 75 15 14 34 25 42 25 10 0 7 -6 -8 -18
-19 -15 -22 -28 -22 -71 2 -56 20 -137 29 -128 3 4 0 20 -6 38 -6 18 -11 55
-11 84 0 76 16 86 141 96 56 4 104 11 108 14 3 4 -33 4 -81 0 -48 -4 -107 -8
-132 -9 -25 -1 -52 -8 -63 -18 -10 -8 -34 -19 -53 -23 -102 -20 -318 -112
-349 -149 -29 -34 -13 -54 203 -248 46 -42 158 -108 246 -147 150 -65 145 -61
148 -109 3 -36 -2 -49 -26 -77 -17 -18 -33 -48 -37 -67 -4 -18 -15 -41 -24
-52 -25 -29 -240 -204 -401 -328 -30 -24 -77 -61 -105 -84 -27 -23 -71 -57
-97 -76 -26 -18 -125 -92 -220 -164 -561 -426 -830 -673 -1093 -1004 -33 -41
-63 -77 -66 -80 -12 -10 -146 -197 -175 -245 -78 -127 -166 -311 -226 -470
-56 -150 -118 -388 -134 -514 -23 -177 -15 -579 14 -739 29 -156 75 -332 122
-464 70 -196 208 -429 305 -516 113 -100 428 -277 595 -334 179 -61 475 -130
740 -174 157 -25 165 -17 35 36 -264 108 -461 247 -723 511 -283 284 -443 539
-572 915 -59 171 -59 170 -10 261 203 375 504 657 775 727 230 59 609 6 1003
-141 40 -15 42 -18 42 -57 0 -22 -11 -75 -25 -117 -62 -194 -135 -652 -135
-845 0 -89 -4 -124 -19 -163 -28 -69 -48 -150 -76 -304 -39 -215 -38 -226 19
-311 43 -63 45 -71 61 -192 17 -139 32 -184 73 -227 38 -41 76 -58 156 -71
l71 -12 11 -60 c6 -33 14 -65 17 -71 4 -7 -6 -21 -23 -33 -27 -20 -30 -26 -30
-79 0 -43 5 -65 20 -84 26 -32 17 -56 -56 -147 -28 -36 -70 -93 -94 -128 -31
-47 -62 -76 -119 -114 -133 -90 -239 -205 -225 -243 6 -16 16 -17 83 -12 82 7
297 48 346 67 17 6 53 28 80 49 74 56 151 97 230 122 82 25 180 81 197 112 6
12 12 69 12 129 1 58 4 110 8 114 4 4 5 17 2 29 -3 13 -1 26 5 29 6 4 11 16
11 27 0 10 4 19 9 19 16 0 34 60 28 98 -4 25 -17 46 -37 63 l-32 27 17 53 17
54 102 40 c124 48 140 63 273 261 127 188 141 218 153 307 13 97 12 351 0 418
-8 43 -7 67 6 119 13 53 15 91 10 204 -8 159 -19 153 94 56 307 -264 455 -335
719 -349 l124 -6 21 -80 c12 -44 36 -107 54 -140 55 -100 306 -402 422 -508
109 -98 264 -157 415 -157 48 0 61 -5 110 -41 30 -23 55 -45 55 -48 0 -3 -9
-19 -20 -36 -11 -16 -20 -42 -20 -56 0 -43 40 -92 90 -109 41 -14 46 -20 68
-77 22 -59 28 -66 115 -127 106 -74 116 -84 187 -189 61 -93 81 -104 251 -143
139 -31 173 -30 177 8 4 34 -21 165 -51 268 -19 66 -29 83 -88 145 -96 102
-136 159 -144 204 -4 22 -17 51 -29 64 -32 34 -40 70 -35 146 2 30 -5 41 -50
83 l-52 48 35 41 c42 50 73 113 136 283 102 273 104 314 22 450 -47 78 -68
146 -44 146 4 0 50 -11 102 -24 144 -36 305 -59 385 -54 83 6 137 30 206 95
60 56 172 204 226 298 53 91 184 354 218 436 124 297 173 436 233 649 84 296
139 676 143 977 l1 120 65 64 c152 150 260 374 327 674 39 176 49 295 43 534
-8 361 -73 637 -193 826 -67 105 -159 197 -361 361 -299 243 -514 305 -898
260 -284 -34 -461 -69 -751 -147 -279 -75 -446 -101 -563 -88 -47 5 -87 11
-89 13 -2 3 24 46 59 97 66 98 152 271 189 379 15 44 24 99 28 167 5 101 4
103 -19 111 -13 5 -37 8 -54 6 -16 -2 -79 -8 -140 -15 -120 -12 -340 -68 -392
-99 -18 -11 -39 -17 -47 -14 -20 8 -65 -18 -105 -60 -19 -20 -40 -36 -46 -36
-6 0 -45 -20 -86 -45 -59 -34 -86 -44 -116 -42 -46 1 -110 -40 -182 -118 -23
-25 -47 -45 -55 -45 -7 0 -24 17 -37 37 -32 50 -61 63 -141 63 -38 0 -68 3
-68 6 0 4 29 59 64 123 83 151 128 241 120 241 -18 0 -112 -70 -227 -168 -17
-15 -18 -11 -16 84 0 54 -5 122 -12 149 -11 46 -44 105 -61 113 -4 2 -18 21
-30 43 -24 44 -103 88 -188 108 -52 12 -163 13 -200 2z m351 -90 c22 -21 39
-43 39 -47 0 -5 -21 -8 -47 -6 -36 2 -44 0 -33 -7 8 -6 36 -11 61 -11 34 0 49
-5 53 -16 5 -14 1 -15 -26 -10 -105 19 -143 18 -208 -6 -52 -19 -71 -22 -92
-14 -16 5 -28 12 -28 15 1 9 48 42 104 73 28 15 47 28 43 28 -12 0 -67 -29
-124 -67 -65 -43 -88 -35 -41 14 54 56 136 91 217 92 38 1 49 -4 82 -38z
m-372 -37 c51 -15 52 -16 36 -34 -12 -13 -26 -17 -48 -15 -18 3 -62 7 -99 10
-52 5 -66 10 -61 21 7 18 41 18 116 0 33 -8 55 -10 50 -5 -4 4 -38 14 -75 21
-36 7 -64 16 -61 21 6 10 66 2 142 -19z m20 -65 c35 -5 73 -15 85 -21 19 -11
16 -14 -44 -41 -36 -16 -82 -32 -103 -35 -21 -2 -40 -8 -42 -12 -3 -5 5 -6 17
-3 13 3 -5 -14 -40 -36 -34 -23 -65 -41 -68 -41 -4 0 -23 -13 -44 -30 -21 -16
-41 -30 -45 -30 -16 0 3 111 31 184 l29 76 80 0 c44 0 109 -5 144 -11z m390
-7 c95 -25 87 -38 -21 -37 -72 0 -100 -4 -123 -18 l-30 -18 35 6 c19 3 44 6
55 6 16 0 17 2 5 9 -18 12 43 13 104 3 31 -5 41 -12 52 -39 8 -18 14 -42 14
-53 0 -19 -5 -20 -67 -16 -66 4 -66 4 -16 -4 103 -17 112 -36 15 -32 -143 5
-363 -89 -509 -218 -72 -64 -93 -78 -102 -67 -8 10 2 25 47 67 31 30 73 67 92
82 l35 28 -33 -18 c-19 -10 -60 -42 -92 -70 -32 -29 -61 -53 -65 -53 -10 0
-56 110 -50 121 4 5 1 9 -5 9 -6 0 2 11 18 25 17 14 33 25 37 25 4 0 -4 -10
-19 -21 -15 -12 -25 -24 -22 -26 6 -6 41 23 141 115 33 31 53 51 45 46 -92
-57 -119 -77 -115 -84 3 -5 0 -12 -6 -16 -8 -4 -9 -3 -5 4 12 20 -5 13 -44
-18 -42 -33 -50 -36 -50 -17 0 13 94 85 164 126 137 80 359 171 416 170 19 0
64 -8 99 -17z m296 -209 c-100 -176 -137 -247 -156 -299 -27 -74 -52 -110 -90
-129 -39 -21 -36 -5 4 20 35 22 63 70 72 125 3 19 15 54 27 77 11 23 18 49 15
58 -4 8 -3 14 1 14 21 -3 30 3 36 26 3 13 20 40 36 59 32 35 38 51 18 41 -7
-4 3 7 22 24 19 17 37 31 38 31 2 0 -8 -21 -23 -47z m-221 1 c12 -4 16 -20 16
-56 l0 -51 -52 6 c-35 4 -46 3 -33 -3 11 -5 30 -9 41 -9 21 -1 48 -23 39 -33
-3 -2 -35 2 -72 10 -83 17 -279 10 -367 -13 -32 -8 -61 -14 -63 -11 -5 5 106
68 159 90 21 9 61 17 90 17 l53 2 -40 8 c-29 5 -13 7 54 5 52 -1 85 1 75 5
-10 4 -39 8 -64 9 l-45 2 50 13 c54 14 134 19 159 9z m166 -17 c0 -2 -10 -12
-22 -23 l-23 -19 19 23 c18 21 26 27 26 19z m-122 -117 c-7 -11 -15 -15 -17
-9 -2 6 3 15 10 20 20 12 21 11 7 -11z m-87 -20 c28 -8 38 -17 42 -37 8 -45 0
-52 -60 -52 -31 1 -58 -3 -62 -9 -3 -5 -35 -24 -70 -42 l-64 -32 7 34 c3 18
19 45 35 60 38 34 29 42 -20 18 -45 -23 -51 -32 -56 -79 -5 -43 -13 -54 -13
-17 0 15 -4 25 -9 22 -5 -3 -8 -22 -7 -42 1 -35 1 -35 -33 -29 -18 4 -41 10
-50 15 -31 17 -115 40 -143 40 -26 0 -28 2 -18 20 6 12 23 26 38 31 l27 10
-24 18 -24 19 21 11 c12 6 56 20 99 30 88 22 321 28 384 11z m-709 -99 c80
-37 115 -61 88 -61 -6 0 -33 11 -59 25 -69 34 -152 65 -178 65 -12 0 -35 11
-50 24 l-28 25 70 -19 c39 -10 109 -37 157 -59z m677 -45 c-8 -23 -19 -36 -31
-36 -10 0 -41 -9 -70 -20 -58 -22 -82 -25 -73 -10 3 6 14 10 24 10 10 0 25 9
32 20 14 19 120 82 127 75 2 -2 -2 -20 -9 -39z m30 -17 c-7 -24 -13 -53 -15
-64 -8 -64 -28 -124 -52 -155 -65 -86 -126 -150 -145 -150 -50 0 -204 133
-209 180 -3 22 3 27 47 42 28 9 57 17 66 17 23 1 31 -24 17 -55 -10 -20 -9
-27 2 -34 8 -5 18 -6 22 -4 4 3 8 -2 8 -10 0 -18 16 -21 25 -6 3 6 17 10 31
10 15 0 23 4 19 11 -4 6 -14 8 -22 4 -13 -4 -14 -3 -4 9 15 18 5 40 -14 32 -8
-2 -15 5 -18 17 -2 12 -8 30 -12 40 -6 15 -4 18 11 15 12 -2 19 3 18 12 -1 12
9 16 37 15 45 0 51 -10 12 -20 -16 -4 -22 -10 -16 -12 12 -4 61 11 136 41 45
18 31 25 -23 11 -28 -7 -52 -9 -55 -4 -3 4 7 11 22 15 67 14 78 21 96 58 23
49 32 41 16 -15z m-406 -49 c26 -7 50 -17 53 -21 3 -5 15 -10 27 -10 12 -1 -7
-7 -43 -14 l-65 -13 -27 31 c-32 37 -35 50 -10 44 9 -3 38 -10 65 -17z m-55
-50 c7 -11 9 -20 4 -20 -10 0 -32 22 -32 32 0 15 15 8 28 -12z m1649 4 c-3 -3
-12 -4 -19 -1 -8 3 -5 6 6 6 11 1 17 -2 13 -5z m-50 -10 c-3 -3 -12 -4 -19 -1
-8 3 -5 6 6 6 11 1 17 -2 13 -5z m1951 -44 c178 -23 344 -102 542 -261 202
-162 320 -284 393 -409 65 -113 135 -389 158 -630 14 -148 7 -414 -15 -545
-44 -263 -139 -524 -244 -670 -126 -174 -272 -283 -757 -564 -398 -231 -434
-253 -582 -366 -180 -137 -219 -163 -263 -171 -34 -7 -35 -7 -18 12 68 77 61
285 -18 523 -42 126 -104 233 -206 356 -205 246 -395 356 -770 445 -220 52
-355 64 -708 64 -393 0 -522 -17 -814 -108 -43 -14 -75 -21 -70 -17 19 17 294
171 391 220 361 180 766 272 1263 287 273 9 497 -7 790 -56 469 -79 602 -90
830 -70 133 12 239 38 328 82 153 75 470 402 580 598 71 126 78 259 22 434
-63 195 -174 373 -330 527 -189 186 -381 269 -624 269 -168 0 -490 -52 -781
-126 -512 -129 -735 -184 -865 -214 -80 -17 -182 -41 -227 -51 -79 -19 -477
-99 -489 -99 -3 0 -3 8 0 18 5 15 4 15 -8 -2 -8 -10 -20 -16 -27 -14 -7 2 4
14 24 27 20 12 37 27 37 31 0 12 139 56 224 71 36 7 63 16 60 21 -3 5 7 6 23
3 19 -5 24 -4 15 3 -10 7 6 13 55 22 37 7 75 17 83 22 12 7 10 8 -5 4 -11 -3
-77 -16 -147 -30 -69 -14 -150 -34 -178 -45 l-53 -20 24 25 c13 13 29 22 37
19 7 -3 10 0 6 6 -3 6 6 23 20 38 26 27 55 71 167 250 l52 84 18 -36 c23 -44
119 -130 174 -156 23 -11 84 -26 136 -34 l94 -15 -65 -2 c-36 -1 -94 -6 -130
-10 -131 -14 25 -11 204 5 201 18 301 34 456 75 331 88 399 103 555 130 320
54 489 68 633 50z m-3663 -38 c-3 -3 -11 0 -18 7 -9 10 -8 11 6 5 10 -3 15 -9
12 -12z m3438 -39 c-7 -2 -21 -2 -30 0 -10 3 -4 5 12 5 17 0 24 -2 18 -5z
m220 0 c-7 -2 -19 -2 -25 0 -7 3 -2 5 12 5 14 0 19 -2 13 -5z m-286 -9 c-3 -3
-12 -4 -19 -1 -8 3 -5 6 6 6 11 1 17 -2 13 -5z m-94 -11 c-7 -2 -19 -2 -25 0
-7 3 -2 5 12 5 14 0 19 -2 13 -5z m474 1 c-3 -3 -12 -4 -19 -1 -8 3 -5 6 6 6
11 1 17 -2 13 -5z m-534 -11 c-7 -2 -19 -2 -25 0 -7 3 -2 5 12 5 14 0 19 -2
13 -5z m611 -9 c26 -9 45 -18 43 -20 -2 -2 -28 5 -58 15 -30 11 -49 20 -43 20
6 1 32 -6 58 -15z m-2838 -75 c-14 -35 -25 -59 -26 -53 0 18 43 139 47 128 2
-6 -8 -39 -21 -75z m2169 71 c-11 -5 -27 -9 -35 -9 -13 -1 -13 0 0 9 8 5 24 9
35 9 l20 0 -20 -9z m-3045 -25 c0 -9 -6 -12 -15 -9 -8 4 -12 10 -9 15 8 14 24
10 24 -6z m2947 9 c-3 -3 -12 -4 -19 -1 -8 3 -5 6 6 6 11 1 17 -2 13 -5z m928
-63 c2 -4 -2 -8 -10 -8 -8 0 -12 4 -10 8 3 3 -9 12 -25 19 -17 7 -30 16 -30
21 0 9 67 -27 75 -40z m-275 14 c47 -8 144 -30 217 -48 72 -18 129 -29 126
-24 -18 29 54 -28 124 -99 126 -127 229 -291 293 -469 27 -75 33 -109 38 -202
4 -99 2 -120 -18 -177 -43 -122 -260 -384 -455 -551 -194 -166 -333 -203 -719
-192 -201 6 -277 15 -676 86 -63 11 -147 23 -186 27 l-71 6 -11 45 c-21 76
-171 383 -234 478 -68 101 -163 221 -181 229 -7 2 -3 5 9 5 12 1 63 -21 115
-48 122 -64 183 -76 297 -61 118 15 187 35 321 92 62 26 124 48 137 48 39 0
136 29 156 46 10 10 18 23 18 31 0 15 89 -42 176 -112 98 -79 207 -222 301
-395 59 -107 74 -170 99 -405 l7 -60 14 33 c23 57 28 244 9 342 -48 239 -117
387 -244 522 -46 48 -115 111 -153 139 -39 28 -68 56 -66 62 2 6 19 15 38 20
19 5 44 18 57 30 21 20 22 27 17 82 -7 59 -6 61 19 73 21 9 26 19 26 46 0 18
-7 39 -15 46 -8 7 -29 38 -46 70 -40 76 -118 160 -148 160 -13 0 -50 -13 -82
-30 -57 -29 -59 -29 -103 -14 -35 12 -49 13 -66 4 -24 -13 -50 -67 -50 -105 0
-14 -9 -42 -20 -62 -11 -21 -20 -48 -20 -61 l0 -22 -41 20 c-50 26 -142 55
-239 75 -41 8 -82 18 -90 21 -19 7 224 123 320 153 19 6 62 19 95 30 117 37
442 111 550 124 80 10 278 5 355 -8z m-905 -5 c-11 -5 -29 -8 -40 -8 -16 0
-15 2 5 8 34 11 60 11 35 0z m-68 -16 c-3 -3 -12 -4 -19 -1 -8 3 -5 6 6 6 11
1 17 -2 13 -5z m1288 -22 c-3 -3 -11 0 -18 7 -9 10 -8 11 6 5 10 -3 15 -9 12
-12z m-1445 -16 c0 -2 -7 -7 -16 -10 -8 -3 -12 -2 -9 4 6 10 25 14 25 6z
m-1420 -45 c-11 -21 -30 -37 -30 -25 0 8 30 44 37 44 2 0 -1 -9 -7 -19z m1333
12 c-7 -2 -19 -2 -25 0 -7 3 -2 5 12 5 14 0 19 -2 13 -5z m-106 -19 c-3 -3
-12 -4 -19 -1 -8 3 -5 6 6 6 11 1 17 -2 13 -5z m-40 -10 c-3 -3 -12 -4 -19 -1
-8 3 -5 6 6 6 11 1 17 -2 13 -5z m-77 -18 c0 -2 -9 -6 -20 -9 -11 -3 -18 -1
-14 4 5 9 34 13 34 5z m855 -12 c30 -19 99 -110 118 -155 8 -19 24 -43 36 -53
28 -26 28 -64 -1 -75 -21 -7 -25 -3 -44 41 -11 26 -23 46 -26 43 -6 -6 4 -55
19 -95 6 -14 13 -37 17 -52 6 -28 6 -28 -40 -28 -58 0 -52 -10 8 -15 50 -3 60
-23 29 -54 -30 -30 -56 -26 -71 9 -16 38 -35 53 -25 19 7 -21 6 -22 -9 -10
-18 16 -21 8 -5 -20 13 -25 -3 -81 -38 -126 -31 -43 -61 -44 -70 -3 -3 17 -10
33 -15 36 -6 4 -7 -3 -3 -17 7 -24 7 -24 -10 -4 -16 20 -16 20 -10 -5 16 -61
2 -93 -47 -105 -21 -5 -29 -2 -38 15 -6 12 -18 19 -25 16 -16 -6 -80 55 -88
83 -6 23 21 81 37 81 7 0 30 -18 51 -40 42 -43 67 -54 41 -17 -9 12 -28 41
-42 65 l-27 43 32 45 c18 24 29 48 26 54 -18 29 28 2 89 -51 37 -33 70 -58 73
-55 3 2 -19 35 -47 72 l-53 67 21 51 c11 28 22 59 26 69 9 29 29 19 104 -55
39 -39 74 -69 77 -66 3 3 -5 16 -17 30 -13 14 -36 40 -53 59 -16 19 -40 41
-53 49 -25 16 -24 22 18 99 21 37 16 66 -6 37 -7 -10 -17 -15 -22 -12 -6 3
-12 2 -14 -3 -4 -11 -90 -52 -96 -46 -11 10 26 40 83 67 33 15 61 28 63 28 1
0 13 -7 27 -16z m-915 -4 c0 -5 -8 -10 -17 -10 -15 0 -16 2 -3 10 19 12 20 12
20 0z m-103 -26 c-3 -3 -12 -4 -19 -1 -8 3 -5 6 6 6 11 1 17 -2 13 -5z m-60
-19 c0 -8 -4 -12 -9 -9 -4 3 -8 9 -8 15 0 5 4 9 8 9 5 0 9 -7 9 -15z m885 2
c41 -3 -38 -77 -82 -77 -26 0 -30 4 -30 26 0 14 5 35 11 46 9 17 17 19 47 13
21 -4 45 -7 54 -8z m-847 -35 c-3 -3 -11 0 -18 7 -9 10 -8 11 6 5 10 -3 15 -9
12 -12z m-144 -9 c13 -16 12 -17 -3 -4 -10 7 -18 15 -18 17 0 8 8 3 21 -13z
m184 -3 c-3 -5 -12 -10 -18 -10 -7 0 -6 4 3 10 19 12 23 12 15 0z m-476 -84
c-31 -47 -89 -168 -89 -187 0 -29 -12 -28 -43 4 -52 56 -58 69 -47 109 13 46
22 53 100 73 98 24 95 22 79 43 -13 15 -12 16 4 3 16 -13 16 -15 -4 -45z m307
-4 c4 -9 6 -22 5 -29 -1 -6 4 -15 10 -19 9 -5 10 -2 6 12 -7 17 -6 17 10 -2
10 -11 26 -31 35 -45 9 -13 17 -19 17 -13 1 6 -14 30 -31 54 -58 76 -61 80
-51 80 10 0 82 -92 103 -130 9 -17 8 -20 -11 -17 -12 2 -33 17 -47 33 -17 21
-22 23 -18 9 5 -12 4 -16 -2 -10 -84 95 -101 115 -74 91 36 -34 43 -25 10 12
l-23 25 27 -17 c14 -10 30 -25 34 -34z m251 31 c0 -7 -4 -10 -9 -7 -4 3 -8 1
-8 -5 0 -5 8 -15 18 -21 15 -10 15 -10 -3 -8 -12 2 -21 12 -23 27 -3 16 -6 20
-11 12 -6 -9 -10 -9 -19 1 -8 10 -3 13 22 13 19 0 33 -5 33 -12z m662 11 c38
-8 38 -14 5 -64 -26 -39 -56 -51 -69 -29 -8 11 16 99 26 99 4 0 21 -3 38 -6z
m-1292 -10 c-3 -3 -12 -4 -19 -1 -8 3 -5 6 6 6 11 1 17 -2 13 -5z m252 -19
l30 -26 -38 -34 c-45 -41 -101 -141 -116 -207 l-10 -47 -64 31 c-63 31 -63 31
-58 67 8 61 48 152 82 189 30 33 55 43 132 51 6 0 25 -10 42 -24z m225 -46
c50 -77 41 -88 -10 -12 -57 84 -56 83 -42 78 7 -3 30 -32 52 -66z m-514 57 c0
-3 -4 -8 -10 -11 -5 -3 -10 -1 -10 4 0 6 5 11 10 11 6 0 10 -2 10 -4z m527
-13 c-11 30 7 18 37 -24 15 -22 31 -38 34 -34 3 3 -4 19 -16 35 -26 35 -27 40
-7 40 8 0 22 -14 30 -30 10 -19 20 -28 28 -24 13 8 -31 -45 -48 -58 -16 -12
-18 -11 -59 55 -29 46 -33 57 -16 42 20 -17 23 -18 17 -2z m203 7 c-8 -5 -19
-10 -25 -10 -5 0 -3 5 5 10 8 5 20 10 25 10 6 0 3 -5 -5 -10z m-783 -6 c-3 -3
-12 -4 -19 -1 -8 3 -5 6 6 6 11 1 17 -2 13 -5z m-50 -10 c-3 -3 -12 -4 -19 -1
-8 3 -5 6 6 6 11 1 17 -2 13 -5z m1023 -16 l25 -10 -34 -14 c-26 -11 -42 -12
-73 -3 -37 10 -39 11 -22 24 11 8 15 15 10 15 -5 0 -17 -7 -27 -16 -12 -11
-33 -14 -70 -12 l-54 3 45 17 c47 18 147 16 200 -4z m-1088 -10 c-7 -7 -12 -8
-12 -2 0 14 12 26 19 19 2 -3 -1 -11 -7 -17z m1187 0 c53 -13 170 -62 129 -53
-15 3 -40 10 -55 17 -15 6 -32 12 -38 12 -20 2 -115 38 -115 43 0 3 7 2 16 -1
9 -4 37 -12 63 -18z m-1108 -51 c-8 -8 -11 -5 -11 9 0 27 14 41 18 19 2 -9 -1
-22 -7 -28z m461 7 l26 -35 -41 -59 c-25 -37 -47 -86 -58 -127 -10 -38 -18
-60 -18 -51 -1 12 -13 19 -44 23 -69 11 -72 14 -52 81 9 33 30 80 46 105 30
48 85 99 103 99 6 -1 23 -17 38 -36z m656 2 c8 -9 -60 -17 -88 -11 -36 8 -38
18 -7 32 16 8 31 7 56 -4 19 -7 37 -15 39 -17z m-1211 -8 c-3 -8 -6 -5 -6 6
-1 11 2 17 5 13 3 -3 4 -12 1 -19z m1033 -18 c53 -15 80 -27 80 -37 0 -10 9
-13 28 -11 38 4 122 -11 122 -23 0 -11 -23 -12 -36 0 -5 5 -52 11 -104 14
-101 6 -102 2 -5 -12 l60 -9 -50 -1 c-74 -3 -27 -19 58 -20 43 -1 66 -5 62
-11 -9 -14 -64 -12 -170 5 -49 8 -103 14 -120 14 l-30 -1 30 -7 c17 -4 87 -14
155 -21 82 -10 116 -17 100 -21 -16 -5 -19 -7 -7 -8 19 -1 24 -21 5 -22 -10 0
-10 -2 0 -6 6 -2 12 -11 12 -19 0 -10 -13 -14 -42 -16 l-43 -1 45 -6 45 -7
-55 -7 c-30 -4 -75 -4 -100 2 l-45 9 50 2 50 2 -45 10 c-69 15 -276 12 -345
-5 -51 -13 -57 -13 -41 -1 11 8 24 14 30 14 5 0 7 2 4 5 -3 3 -17 1 -32 -4
-33 -13 -33 -1 0 32 19 19 43 28 97 37 106 16 111 20 23 16 -118 -5 -67 16 74
30 l115 11 -85 2 c-86 2 -90 18 -5 21 40 2 40 2 -20 18 l-60 17 39 3 c35 3
125 -9 196 -25 14 -3 22 -3 18 1 -14 16 -128 35 -205 36 -78 0 -94 5 -75 24
12 13 134 -1 222 -24z m249 4 c1 -1 0 -7 -4 -13 -7 -13 -41 -13 -70 -1 -19 8
-19 8 5 18 21 9 56 7 69 -4z m31 -24 c-20 -13 -33 -13 -25 0 3 6 14 10 23 10
15 0 15 -2 2 -10z m-1356 -16 c3 -8 2 -12 -4 -9 -6 3 -10 10 -10 16 0 14 7 11
14 -7z m656 -42 c24 -89 9 -124 -66 -144 -30 -8 -44 -18 -47 -32 -2 -12 -5 -4
-6 16 0 21 8 60 18 88 19 51 70 120 83 113 4 -2 12 -20 18 -41z m810 25 c0 -2
-14 -16 -32 -33 l-31 -29 23 33 c20 27 40 42 40 29z m-1323 -54 c-3 -10 -5 -4
-5 12 0 17 2 24 5 18 2 -7 2 -21 0 -30z m-102 1 c9 -15 12 -23 6 -20 -11 7
-35 46 -28 46 3 0 12 -12 22 -26z m1218 19 c-7 -2 -19 -2 -25 0 -7 3 -2 5 12
5 14 0 19 -2 13 -5z m-2043 -27 c0 -2 -20 -16 -45 -30 -25 -13 -43 -21 -40
-15 4 5 23 18 43 29 41 21 42 22 42 16z m-500 -107 c0 -6 -4 -7 -10 -4 -5 3
-10 11 -10 16 0 6 5 7 10 4 6 -3 10 -11 10 -16z m2257 15 c-3 -3 -12 -4 -19
-1 -8 3 -5 6 6 6 11 1 17 -2 13 -5z m76 -11 c-7 -2 -19 -2 -25 0 -7 3 -2 5 12
5 14 0 19 -2 13 -5z m-666 -35 c-3 -8 -6 -5 -6 6 -1 11 2 17 5 13 3 -3 4 -12
1 -19z m1533 -71 c0 -7 -49 -1 -56 6 -5 4 0 5 11 2 14 -5 12 1 -10 19 -21 18
-31 22 -37 13 -5 -7 -8 -8 -8 -1 0 24 15 22 56 -7 24 -16 44 -31 44 -32z
m-3600 -16 c0 -10 -49 53 -50 63 0 6 11 -5 25 -24 14 -19 25 -36 25 -39z
m2747 63 c-3 -3 -12 -4 -19 -1 -8 3 -5 6 6 6 11 1 17 -2 13 -5z m-817 -44 c8
-5 11 -10 5 -10 -5 0 -21 10 -35 21 -24 20 -5 13 30 -11z m500 8 c0 -12 -3
-18 -7 -15 -3 4 -13 1 -21 -6 -13 -10 -14 -9 -7 3 10 16 28 39 33 40 1 0 2
-10 2 -22z m327 0 c-3 -8 -6 -5 -6 6 -1 11 2 17 5 13 3 -3 4 -12 1 -19z m207
6 c3 -8 2 -12 -4 -9 -6 3 -10 10 -10 16 0 14 7 11 14 -7z m-507 -16 c-3 -8 -6
-5 -6 6 -1 11 2 17 5 13 3 -3 4 -12 1 -19z m-610 -6 c-10 -10 -26 -43 -36 -73
-11 -30 -20 -49 -20 -43 -2 34 48 134 67 134 3 0 -2 -8 -11 -18z m1637 3 c-4
-8 -11 -15 -16 -15 -6 0 -5 6 2 15 7 8 14 15 16 15 2 0 1 -7 -2 -15z m167 -42
c27 -29 28 -32 7 -17 -22 16 -54 54 -45 54 2 0 19 -16 38 -37z m-3606 -11 c-6
-6 -35 18 -35 29 0 5 9 1 20 -8 11 -9 17 -19 15 -21z m2040 4 c28 -8 43 -15
35 -15 -8 0 -37 6 -65 13 -27 8 -43 15 -35 15 8 0 38 -6 65 -13z m312 -8 c-3
-8 -6 -5 -6 6 -1 11 2 17 5 13 3 -3 4 -12 1 -19z m572 7 c24 12 31 10 83 -23
31 -21 57 -40 57 -43 1 -7 -73 -39 -89 -39 -17 0 -79 61 -95 93 -15 30 -15 31
1 15 15 -15 21 -15 43 -3z m-512 -17 c-3 -8 -6 -5 -6 6 -1 11 2 17 5 13 3 -3
4 -12 1 -19z m-260 -14 c-3 -3 -12 -4 -19 -1 -8 3 -5 6 6 6 11 1 17 -2 13 -5z
m340 -16 c-3 -8 -6 -5 -6 6 -1 11 2 17 5 13 3 -3 4 -12 1 -19z m453 -58 c24 0
7 -18 -27 -28 -42 -13 -54 -8 -102 42 l-34 35 24 9 c13 5 30 11 38 14 8 2 32
-13 53 -34 21 -21 43 -38 48 -38z m721 63 c13 -16 12 -17 -3 -4 -10 7 -18 15
-18 17 0 8 8 3 21 -13z m-3881 -15 c8 2 0 -12 -19 -32 -19 -19 -36 -34 -37
-33 -7 7 9 46 16 42 5 -3 12 -1 15 5 4 6 3 10 -2 9 -18 -3 -33 2 -33 11 0 6 9
6 23 1 12 -4 29 -6 37 -3z m2460 -9 c17 -13 18 -17 5 -10 -33 17 -51 31 -40
31 6 0 21 -10 35 -21z m425 -17 c1 -1 23 4 49 12 45 14 47 14 62 -9 9 -13 32
-34 52 -46 l37 -22 -54 -14 c-52 -14 -55 -13 -93 12 -37 24 -78 78 -78 100 0
6 6 1 12 -10 6 -11 12 -21 13 -23z m-494 11 c13 -16 12 -17 -3 -4 -10 7 -18
15 -18 17 0 8 8 3 21 -13z m449 7 c0 -16 69 -88 91 -95 45 -15 12 -25 -78 -24
-107 0 -172 20 -192 57 -15 28 -16 28 32 26 34 -1 49 -8 79 -38 20 -20 42 -36
50 -36 7 0 -2 14 -19 30 -41 37 -41 45 -3 46 38 1 46 9 30 29 -8 10 -9 15 -1
15 6 0 11 -4 11 -10z m-2728 -23 l66 -22 -101 -85 c-136 -112 -407 -316 -509
-382 -46 -29 -124 -81 -175 -115 -108 -72 -125 -70 -26 3 62 45 135 104 535
432 75 62 140 117 144 123 9 15 -50 -20 -76 -43 -21 -20 -35 -24 -24 -7 4 8 0
8 -15 0 -25 -14 -28 -23 -3 -14 11 4 7 -5 -12 -25 -40 -43 -50 -40 -24 6 23
40 127 149 143 150 6 1 40 -9 77 -21z m2500 8 c3 3 10 -6 16 -20 14 -30 3 -32
-26 -5 -24 23 -32 51 -9 31 8 -6 16 -9 19 -6z m1319 -21 c18 -20 25 -31 14
-24 -18 11 -61 60 -52 60 1 0 19 -16 38 -36z m-1550 -1 c13 -16 12 -17 -3 -4
-10 7 -18 15 -18 17 0 8 8 3 21 -13z m99 -48 c13 -14 21 -25 18 -25 -2 0 -15
11 -28 25 -13 14 -21 25 -18 25 2 0 15 -11 28 -25z m-533 -17 c-3 -7 -5 -2 -5
12 0 14 2 19 5 13 2 -7 2 -19 0 -25z m519 -10 c23 -26 24 -29 4 -13 -40 33
-52 45 -43 45 5 0 22 -15 39 -32z m1532 -23 c-3 -3 -9 2 -12 12 -6 14 -5 15 5
6 7 -7 10 -15 7 -18z m-2061 -67 c-2 -13 -4 -5 -4 17 -1 22 1 32 4 23 2 -10 2
-28 0 -40z m594 25 c13 -16 12 -17 -3 -4 -10 7 -18 15 -18 17 0 8 8 3 21 -13z
m1508 -19 c12 -19 16 -32 11 -29 -11 7 -43 65 -36 65 2 0 13 -16 25 -36z
m-4037 -53 c-9 -22 -19 -38 -20 -36 -7 6 19 75 28 75 5 0 1 -18 -8 -39z m138
29 c0 -5 -2 -10 -4 -10 -3 0 -8 5 -11 10 -3 6 -1 10 4 10 6 0 11 -4 11 -10z
m1932 -26 c126 -64 236 -141 318 -223 86 -86 242 -280 234 -292 -2 -3 -90 -9
-196 -12 -197 -6 -445 -36 -631 -78 -50 -11 -95 -18 -101 -15 -6 2 -4 5 5 5
20 1 77 135 143 336 25 76 58 156 71 177 14 22 23 44 19 50 -4 7 -3 8 4 4 7
-4 22 10 37 34 14 22 30 40 35 40 6 0 34 -12 62 -26z m-145 -30 c-6 -20 -13
-32 -14 -27 -4 11 14 63 21 63 2 0 -1 -16 -7 -36z m693 4 c15 -21 17 -28 6
-19 -16 13 -41 51 -33 51 2 0 14 -15 27 -32z m-2670 7 c-7 -9 -27 -25 -44 -37
-23 -15 -21 -11 9 16 43 38 55 45 35 21z m2704 -1 c3 -8 2 -12 -4 -9 -6 3 -10
10 -10 16 0 14 7 11 14 -7z m1423 -23 c0 -11 -5 -18 -9 -15 -4 3 -5 11 -1 19
7 21 12 19 10 -4z m-4100 -33 c-3 -8 -6 -5 -6 6 -1 11 2 17 5 13 3 -3 4 -12 1
-19z m2759 -50 c22 -41 10 -34 -17 10 -38 60 -42 68 -19 42 11 -14 27 -37 36
-52z m-2866 49 c0 -2 -10 -12 -22 -23 l-23 -19 19 23 c18 21 26 27 26 19z
m247 -19 c-3 -8 -6 -5 -6 6 -1 11 2 17 5 13 3 -3 4 -12 1 -19z m-27 -13 c13
-14 22 -27 19 -29 -6 -5 -79 -17 -79 -13 0 14 23 67 29 67 4 0 18 -11 31 -25z
m2600 -20 c0 -5 -5 -3 -10 5 -5 8 -10 20 -10 25 0 6 5 3 10 -5 5 -8 10 -19 10
-25z m1419 -10 c0 -5 -4 -3 -9 5 -5 8 -9 22 -9 30 0 16 17 -16 18 -35z m-4142
3 c-3 -7 -5 -2 -5 12 0 14 2 19 5 13 2 -7 2 -19 0 -25z m1913 17 c-7 -9 -15
-13 -17 -11 -7 7 7 26 19 26 6 0 6 -6 -2 -15z m-36 -29 c-3 -8 -13 -17 -22
-21 -13 -5 -13 -2 3 15 21 24 26 25 19 6z m-1724 -34 c0 -16 7 -37 15 -48 20
-27 19 -34 -7 -34 -13 -1 -47 -9 -75 -19 -40 -13 -53 -15 -53 -5 0 7 -3 21 -6
31 -5 15 -4 15 5 3 8 -12 11 -6 11 27 0 45 6 52 54 64 52 12 56 10 56 -19z
m2615 -2 l20 -25 -22 19 c-13 11 -23 24 -23 29 0 6 1 8 3 6 1 -2 11 -15 22
-29z m-3007 -3 c-63 -51 -92 -71 -84 -59 8 13 97 82 106 81 3 0 -7 -10 -22
-22z m4400 -32 c0 -16 -2 -15 -8 5 -11 34 -11 60 0 35 5 -11 8 -29 8 -40z
m-2328 32 c0 -2 -10 -12 -22 -23 l-23 -19 19 23 c18 21 26 27 26 19z m-1941
-54 c-5 -21 -9 -64 -9 -95 0 -47 -11 -84 -62 -208 -47 -114 -67 -150 -80 -150
-22 0 -22 11 -3 74 8 27 15 55 15 63 0 26 -48 63 -81 63 -19 0 -45 11 -68 28
-51 40 -68 44 -107 26 -37 -18 -107 -91 -131 -138 -13 -25 -14 -36 -3 -64 10
-28 10 -42 0 -73 -12 -36 -11 -41 8 -62 14 -15 22 -36 22 -59 0 -35 17 -59 53
-71 9 -4 20 -15 23 -24 19 -60 27 -70 73 -91 27 -12 58 -22 68 -22 31 0 32 -8
12 -80 -30 -109 -52 -320 -47 -450 6 -144 60 -475 68 -415 l5 40 7 -40 c8 -43
78 -238 84 -232 2 2 -10 45 -27 97 -27 83 -31 107 -30 204 1 159 14 237 90
565 23 96 41 176 41 177 0 2 4 4 8 4 5 0 12 -75 15 -167 4 -93 13 -197 22
-233 15 -66 70 -216 86 -236 5 -7 4 -44 -3 -90 -9 -60 -19 -88 -40 -114 -53
-67 -140 -311 -189 -529 -10 -48 -22 -137 -26 -198 -3 -62 -9 -113 -13 -113
-4 0 -23 7 -42 15 -48 20 -318 99 -403 119 -185 42 -460 49 -589 16 -147 -39
-298 -132 -445 -274 -145 -141 -265 -301 -342 -458 -18 -38 -36 -68 -40 -68
-7 0 -30 115 -75 380 -24 142 -26 171 -21 360 4 175 8 221 30 315 68 289 180
528 398 850 148 219 255 350 449 549 172 176 364 337 550 463 58 38 157 105
220 147 63 43 132 87 155 98 22 11 49 28 59 37 11 9 16 10 12 4 -4 -7 -5 -13
-3 -13 8 0 92 30 112 40 22 11 186 69 196 70 4 0 3 -17 -2 -37z m1441 4 c66
-23 216 -87 165 -72 -11 4 -58 15 -105 26 -130 29 -240 25 -442 -15 -95 -19
-194 -37 -221 -41 -26 -4 -50 -12 -54 -18 -5 -9 53 -5 112 9 l20 4 -20 -9
c-116 -51 -174 -71 -191 -65 -15 5 -16 4 -4 -5 12 -8 8 -13 -22 -26 -51 -21
-52 -19 -19 15 15 17 42 35 60 41 17 6 29 15 26 19 -3 5 -24 2 -47 -6 -53 -19
-55 -18 -27 9 53 52 244 103 422 114 98 6 147 23 65 23 -140 -1 -360 -43 -466
-90 l-46 -21 35 36 c41 40 114 68 220 84 41 6 85 13 99 15 14 3 102 3 195 1
151 -2 178 -5 245 -28z m-1331 -24 c0 -16 -3 -22 -6 -15 -4 10 -9 9 -20 -5 -8
-10 -7 -4 3 15 10 17 20 32 21 32 2 0 3 -12 2 -27z m-54 -13 c-9 -16 -18 -30
-21 -30 -2 0 2 14 11 30 9 17 18 30 21 30 2 0 -2 -13 -11 -30z m-288 7 c0 -7
-9 -13 -19 -13 -18 0 -18 1 -2 13 10 7 18 13 19 13 1 0 2 -6 2 -13z m2089 -6
c-4 -5 -21 -20 -39 -32 l-32 -22 34 36 c31 33 52 44 37 18z m-1516 -39 c19
-20 25 -28 13 -18 -24 20 -27 16 -17 -21 3 -12 16 -24 28 -26 11 -2 -8 -5 -44
-6 -39 -1 -81 -9 -107 -20 l-41 -19 -10 26 c-26 67 -25 69 20 90 92 43 113 42
158 -6z m1143 12 c119 -23 251 -68 255 -87 3 -14 -5 -13 -52 9 -142 65 -369
77 -561 30 -147 -35 -284 -80 -374 -122 -41 -19 -75 -34 -77 -34 -1 0 11 14
28 30 40 40 82 61 219 108 264 91 367 103 562 66z m2804 -41 c-3 -10 -5 -2 -5
17 0 19 2 27 5 18 2 -10 2 -26 0 -35z m-1297 -36 c0 -7 -6 -3 -12 8 -6 11 -16
27 -22 35 -6 9 -1 5 12 -8 12 -13 22 -28 22 -35z m-1441 22 c64 -10 181 -57
181 -71 0 -13 -24 -9 -66 11 -21 10 -70 28 -109 39 -38 11 -86 25 -105 30
l-35 11 35 -4 c19 -3 64 -10 99 -16z m-1139 -20 c0 -5 -5 -9 -12 -9 -6 0 -8 3
-5 7 4 3 1 13 -6 22 -11 14 -10 14 6 2 9 -7 17 -17 17 -22z m1045 7 c166 -41
308 -107 283 -132 -3 -2 -45 13 -94 35 -49 21 -114 44 -144 50 -70 15 -302 31
-313 22 -4 -4 55 -13 130 -19 164 -14 233 -31 331 -80 71 -35 88 -58 52 -70
-13 -5 -13 -3 0 13 14 17 14 17 -5 6 -16 -10 -47 -7 -170 19 -219 47 -234 48
-415 50 -139 2 -157 4 -115 12 28 6 120 10 205 10 120 0 173 -5 235 -20 55
-14 71 -21 50 -22 -29 -2 -30 -2 -5 -9 44 -14 182 -23 176 -12 -8 12 -83 34
-216 62 -177 37 -357 30 -650 -27 -14 -3 4 7 40 21 38 15 113 33 182 42 65 9
115 20 112 24 -3 5 -24 7 -47 4 -23 -2 -2 6 48 20 118 31 204 31 330 1z m314
-16 c0 -10 -3 -8 -9 5 -12 27 -12 43 0 25 5 -8 9 -22 9 -30z m-1739 -10 c0 -5
-5 -10 -11 -10 -5 0 -7 5 -4 10 3 6 8 10 11 10 2 0 4 -4 4 -10z m129 -45 c0
-5 -6 1 -14 15 -8 14 -14 30 -14 35 0 6 6 -1 14 -15 8 -14 14 -29 14 -35z
m187 13 c-4 -18 -8 -42 -10 -53 -7 -44 -146 -5 -146 40 0 7 19 18 43 25 23 7
47 14 52 15 6 2 23 4 39 4 27 1 28 -1 22 -31z m1418 6 c3 -8 2 -12 -4 -9 -6 3
-10 10 -10 16 0 14 7 11 14 -7z m1252 -47 c-2 -7 -5 -4 -5 6 -1 10 -5 15 -11
12 -6 -4 -7 1 -3 11 6 15 7 15 15 0 5 -9 7 -22 4 -29z m-1262 18 c3 -8 1 -15
-4 -15 -6 0 -10 7 -10 15 0 8 2 15 4 15 2 0 6 -7 10 -15z m-2324 0 c0 -2 -13
-11 -30 -20 -38 -19 -40 -11 -2 9 31 17 32 18 32 11z m277 -31 c26 -20 50 -38
51 -40 2 -1 1 -21 -3 -43 -6 -38 -9 -41 -33 -35 -40 9 -72 49 -72 89 0 19 -4
36 -9 39 -9 6 -21 -26 -21 -60 0 -14 -9 -25 -27 -32 -43 -16 -103 -22 -103
-11 0 6 27 37 59 70 71 71 90 73 158 23z m271 -24 c-12 -33 -24 -58 -26 -55
-3 2 0 17 6 32 6 15 16 40 21 56 6 15 13 27 15 27 3 0 -4 -27 -16 -60z m222 8
c0 -5 -5 -8 -11 -8 -5 0 -8 4 -4 9 3 5 1 12 -5 16 -5 3 -10 11 -10 18 0 12 29
-23 30 -35z m1060 -8 c-25 -4 -146 -13 -268 -20 -170 -10 -225 -16 -229 -26
-3 -8 -14 -14 -24 -14 -10 0 -41 -9 -69 -19 -54 -21 -59 -18 -32 15 33 42 67
54 158 60 49 4 91 8 93 10 2 2 97 3 210 3 128 -1 189 -4 161 -9z m-902 -33
c55 -27 83 -67 66 -94 -19 -30 -38 -25 -57 16 -14 30 -30 46 -69 65 -29 14
-63 26 -77 26 -21 0 -23 2 -11 11 22 14 94 3 148 -24z m1399 14 c0 -11 -5 -18
-9 -15 -4 3 -5 11 -1 19 7 21 12 19 10 -4z m1179 1 c-21 -2 -42 0 -47 5 -4 4
13 6 39 3 l47 -5 -39 -3z m1351 -14 c-3 -7 -5 -2 -5 12 0 14 2 19 5 13 2 -7 2
-19 0 -25z m-4465 2 c28 -22 23 -42 -8 -34 -17 4 -29 2 -35 -7 -6 -10 -9 -2
-9 22 0 40 19 47 52 19z m323 10 c-3 -5 -16 -15 -28 -21 -19 -9 -19 -8 3 10
28 23 34 26 25 11z m1243 3 c-10 -2 -28 -2 -40 0 -13 2 -5 4 17 4 22 1 32 -1
23 -4z m65 -10 c-7 -2 -19 -2 -25 0 -7 3 -2 5 12 5 14 0 19 -2 13 -5z m-1175
-22 c42 -22 77 -57 86 -86 5 -18 -1 -23 -41 -33 -40 -11 -48 -11 -55 3 -17 30
-63 65 -107 82 l-44 17 23 18 c29 24 91 23 138 -1z m1147 3 c83 -14 245 -62
289 -86 12 -6 15 -13 8 -20 -6 -6 -41 2 -103 25 -164 61 -237 76 -438 87
l-136 7 145 1 c93 1 177 -4 235 -14z m208 -16 c62 -14 97 -27 97 -35 0 -17 -5
-17 -70 8 -30 12 -86 30 -125 40 -87 24 -33 16 98 -13z m-445 2 c89 -6 191
-17 225 -25 l62 -14 -75 6 c-41 4 -211 7 -378 7 -286 1 -319 5 -184 25 82 12
165 12 350 1z m-1365 -25 c22 -21 10 -55 -19 -55 -32 0 -39 16 -20 45 19 29
20 29 39 10z m247 12 c0 -2 -10 -12 -22 -23 l-23 -19 19 23 c18 21 26 27 26
19z m83 -22 c36 -15 107 -71 107 -84 0 -4 -25 -12 -56 -19 -56 -11 -57 -11
-91 18 -18 16 -45 33 -60 36 l-26 7 34 28 c40 33 45 34 92 14z m-440 -12 c28
-4 41 -12 48 -30 13 -36 1 -73 -25 -73 -18 0 -21 6 -22 40 0 22 -5 45 -12 52
-9 9 -12 0 -12 -42 l0 -55 -46 -1 c-25 -1 -51 -7 -57 -13 -14 -14 -30 -14 -21
0 9 15 -14 29 -49 29 -24 0 -26 2 -15 13 16 17 149 87 163 87 6 0 27 -3 48 -7z
m972 -8 c-16 -8 -37 -14 -45 -14 -8 0 -1 7 15 14 17 8 37 14 45 14 8 0 2 -7
-15 -14z m152 9 c-3 -3 -12 -4 -19 -1 -8 3 -5 6 6 6 11 1 17 -2 13 -5z m-817
-9 c0 -2 -10 -9 -22 -15 -22 -11 -22 -10 -4 4 21 17 26 19 26 11z m715 -15
c-38 -10 -79 -22 -90 -26 -11 -4 -17 -4 -13 0 10 12 120 45 148 45 14 0 -6 -8
-45 -19z m1045 -6 c0 -2 -7 -4 -15 -4 -8 0 -15 4 -15 10 0 5 7 7 15 4 8 -4 15
-8 15 -10z m-1810 -11 c0 -1 -8 -7 -18 -12 -13 -7 -19 -6 -19 2 0 7 9 13 19
13 10 0 18 -1 18 -3z m-165 -13 c3 -5 -1 -10 -9 -10 -9 0 -16 5 -16 10 0 6 4
10 9 10 6 0 13 -4 16 -10z m264 -4 c30 -16 57 -44 49 -51 -2 -3 -25 -8 -49
-11 -38 -5 -51 -2 -82 19 l-37 25 23 15 c28 20 60 21 96 3z m-257 -21 c3 -3 1
-24 -5 -47 l-10 -41 -14 27 c-15 29 -9 66 11 66 7 0 15 -2 18 -5z m170 -32
c19 -17 19 -18 1 -24 -49 -20 -111 -2 -113 33 -1 23 84 16 112 -9z m374 1
c-19 -11 -25 -19 -17 -23 11 -7 -16 -18 -99 -40 l-35 -9 35 -1 c52 -2 19 -16
-73 -31 -43 -7 -80 -17 -84 -23 -4 -6 3 -8 18 -4 13 3 44 9 69 12 l45 6 -47
-19 c-25 -11 -76 -23 -113 -27 -36 -4 -79 -10 -95 -15 -26 -7 -28 -6 -33 23
-2 18 -4 33 -3 34 3 4 160 33 171 32 6 0 -28 -11 -75 -24 -47 -13 -76 -23 -65
-24 37 -1 160 36 158 48 -4 15 24 14 29 -1 3 -7 10 -8 17 -4 9 6 10 10 2 15
-6 4 24 16 66 26 43 10 71 20 62 22 -9 2 -70 -10 -135 -26 -139 -35 -234 -51
-234 -40 0 4 17 11 38 14 102 18 235 48 307 69 97 29 134 33 91 10z m-821 -14
c-13 -14 -21 -17 -26 -9 -4 7 -12 8 -20 3 -12 -6 -12 -5 0 9 7 9 25 17 39 17
25 0 25 0 7 -20z m239 -31 c5 -14 6 -38 2 -53 -5 -20 -12 -26 -34 -26 -15 0
-45 -9 -65 -19 -46 -24 -74 -34 -64 -25 14 14 -27 64 -53 64 -25 1 -25 1 6 18
17 9 53 29 80 44 64 36 115 34 128 -3z m-201 -84 c-6 -17 -25 -15 -31 3 -2 7
5 12 17 12 14 0 19 -5 14 -15z m217 -67 c0 -28 -4 -38 -16 -38 -11 0 -14 6 -8
23 4 12 7 36 6 52 -2 23 0 26 8 15 5 -8 10 -32 10 -52z m-42 18 c2 -18 0 -26
-7 -22 -6 4 -23 0 -38 -7 -15 -8 -39 -18 -53 -21 -24 -7 -24 -6 -6 8 19 16 19
16 -3 16 -29 0 -19 15 27 40 50 27 76 22 80 -14z m300 -3 c-10 -2 -26 -2 -35
0 -10 3 -2 5 17 5 19 0 27 -2 18 -5z m-1354 -135 c-139 -142 -239 -256 -330
-378 -366 -490 -538 -894 -560 -1312 -8 -150 4 -272 51 -534 43 -239 63 -317
117 -471 82 -235 159 -387 291 -578 87 -125 152 -201 292 -340 223 -222 434
-378 626 -460 60 -26 108 -49 106 -51 -4 -4 -328 57 -435 81 -125 29 -352 96
-425 126 -137 57 -409 217 -507 299 -89 75 -241 335 -308 527 -40 115 -106
367 -129 493 -25 141 -25 628 0 755 24 116 90 347 129 450 131 341 241 525
507 845 103 124 395 422 501 511 35 30 71 61 80 69 26 26 94 80 100 80 2 0
-45 -51 -106 -112z m3531 91 c158 -12 264 -31 421 -74 141 -39 275 -93 341
-138 52 -34 57 -44 8 -16 l-35 21 0 -124 c0 -203 -18 -357 -56 -482 -4 -12 -2
-16 5 -12 15 10 14 1 -2 -16 -14 -15 -47 -105 -47 -129 0 -9 -25 -56 -56 -105
-31 -49 -58 -92 -61 -96 -2 -5 -1 -8 4 -8 27 0 202 319 292 532 42 99 56 156
20 83 -21 -43 -21 -41 16 105 13 52 27 113 32 135 l9 40 100 -100 c54 -55 125
-135 157 -177 64 -86 155 -264 141 -277 -5 -4 -53 -25 -107 -45 -147 -57 -419
-195 -537 -275 -58 -38 -137 -99 -175 -135 -38 -36 -73 -62 -76 -58 -4 4 -50
106 -102 227 -170 393 -168 389 -237 425 -30 15 -39 28 -54 77 -21 71 -145
404 -197 533 -22 52 -39 97 -39 100 0 7 44 5 235 -11z m-2410 -126 c-22 -3
-43 -10 -47 -16 -5 -8 -8 -8 -8 -1 0 19 12 24 54 22 l41 -1 -40 -4z m143 0
c-10 -2 -28 -2 -40 0 -13 2 -5 4 17 4 22 1 32 -1 23 -4z m105 -10 c-7 -2 -21
-2 -30 0 -10 3 -4 5 12 5 17 0 24 -2 18 -5z m181 -8 c-4 -8 -8 -15 -10 -15 -2
0 -4 7 -4 15 0 8 4 15 10 15 5 0 7 -7 4 -15z m-77 -1 c-3 -3 -12 -4 -19 -1 -8
3 -5 6 6 6 11 1 17 -2 13 -5z m-428 -109 c-10 -44 -17 -62 -15 -40 7 61 24
130 31 123 2 -2 -5 -39 -16 -83z m468 13 c-3 -8 -6 -5 -6 6 -1 11 2 17 5 13 3
-3 4 -12 1 -19z m-440 -20 c-3 -7 -5 -2 -5 12 0 14 2 19 5 13 2 -7 2 -19 0
-25z m3319 -19 c3 -6 -5 -3 -20 6 -14 10 -26 19 -26 22 0 7 39 -17 46 -28z
m-2895 -15 c-5 -16 -10 -21 -10 -12 -1 18 10 51 15 45 2 -1 -1 -16 -5 -33z
m-434 -26 c-3 -7 -5 -2 -5 12 0 14 2 19 5 13 2 -7 2 -19 0 -25z m3327 -17 c-4
-17 -9 -30 -11 -27 -3 2 -2 19 2 36 9 41 17 33 9 -9z m-2907 -13 c-3 -8 -6 -5
-6 6 -1 11 2 17 5 13 3 -3 4 -12 1 -19z m-460 -20 c-3 -7 -5 -2 -5 12 0 14 2
19 5 13 2 -7 2 -19 0 -25z m30 10 c-3 -8 -6 -5 -6 6 -1 11 2 17 5 13 3 -3 4
-12 1 -19z m3320 -50 c-3 -8 -6 -5 -6 6 -1 11 2 17 5 13 3 -3 4 -12 1 -19z
m-3330 -30 c-3 -7 -5 -2 -5 12 0 14 2 19 5 13 2 -7 2 -19 0 -25z m-30 -15 c-3
-10 -5 -4 -5 12 0 17 2 24 5 18 2 -7 2 -21 0 -30z m440 -5 c-3 -7 -5 -2 -5 12
0 14 2 19 5 13 2 -7 2 -19 0 -25z m-420 -40 c-3 -8 -6 -5 -6 6 -1 11 2 17 5
13 3 -3 4 -12 1 -19z m5269 -130 c-24 -547 -124 -982 -344 -1503 -187 -445
-382 -759 -529 -853 -58 -37 -72 -41 -42 -11 38 38 78 143 110 284 48 220 36
277 -87 397 -189 185 -546 409 -844 530 -225 92 -281 108 -490 138 -164 23
-193 39 -205 111 -10 56 21 111 113 206 132 135 377 284 677 411 163 69 171
71 178 35 3 -15 2 -30 -1 -33 -4 -3 -17 -45 -29 -94 -13 -48 -32 -108 -44
-131 -25 -50 -100 -130 -144 -153 l-30 -15 50 -24 c71 -33 39 -29 -140 17
-101 26 -179 40 -219 40 -82 0 -204 -32 -273 -71 -55 -32 -113 -98 -112 -128
0 -11 5 -9 17 9 25 37 88 100 101 100 20 0 12 -18 -11 -23 -12 -4 -19 -9 -15
-13 3 -4 18 1 33 11 21 13 24 19 13 26 -10 6 -4 12 23 24 44 18 62 19 52 3 -4
-7 -3 -8 5 -4 6 4 9 11 6 15 -9 15 89 35 165 35 41 0 111 -10 155 -21 44 -11
127 -33 184 -48 84 -22 120 -26 195 -23 103 3 124 13 251 114 166 131 259 195
425 289 47 27 177 102 288 168 112 65 206 116 209 113 12 -12 -89 -275 -148
-385 -22 -41 -67 -112 -100 -158 -34 -46 -59 -86 -57 -89 6 -6 115 141 139
189 11 21 23 36 26 34 8 -9 -114 -209 -173 -282 -28 -37 -73 -89 -99 -117 -25
-27 -44 -52 -42 -55 5 -5 86 78 143 149 79 95 316 509 301 525 -3 3 -31 -45
-62 -107 -31 -62 -58 -110 -60 -108 -3 2 17 53 44 114 27 60 64 156 82 213
l34 104 59 36 c32 20 95 64 140 98 44 34 83 63 85 63 2 0 1 -69 -3 -152z
m-4865 106 c-5 -16 -10 -21 -10 -12 -1 18 10 51 15 45 2 -1 -1 -16 -5 -33z
m2910 9 c-12 -20 -14 -14 -5 12 4 9 9 14 11 11 3 -2 0 -13 -6 -23z m-13 -58
c-3 -3 -9 2 -12 12 -6 14 -5 15 5 6 7 -7 10 -15 7 -18z m-3281 -127 c-2 -29
-3 -8 -3 47 0 55 1 79 3 53 2 -26 2 -71 0 -100z m3266 97 c-3 -9 -8 -14 -10
-11 -3 3 -2 9 2 15 9 16 15 13 8 -4z m-2906 -27 c-3 -8 -6 -5 -6 6 -1 11 2 17
5 13 3 -3 4 -12 1 -19z m2924 -1 c-10 -9 -11 -8 -5 6 3 10 9 15 12 12 3 -3 0
-11 -7 -18z m-2934 -39 c-3 -8 -6 -5 -6 6 -1 11 2 17 5 13 3 -3 4 -12 1 -19z
m2884 -11 c-10 -9 -11 -8 -5 6 3 10 9 15 12 12 3 -3 0 -11 -7 -18z m-39 -87
c-9 -21 -18 -35 -20 -30 -3 9 25 70 33 70 2 0 -4 -18 -13 -40z m-3215 -67 c-3
-10 -5 -2 -5 17 0 19 2 27 5 18 2 -10 2 -26 0 -35z m334 16 c-5 -13 -10 -19
-10 -12 -1 15 10 45 15 40 3 -2 0 -15 -5 -28z m-304 -46 c-3 -10 -5 -2 -5 17
0 19 2 27 5 18 2 -10 2 -26 0 -35z m-20 -45 c-3 -8 -6 -5 -6 6 -1 11 2 17 5
13 3 -3 4 -12 1 -19z m30 -25 c-3 -10 -5 -4 -5 12 0 17 2 24 5 18 2 -7 2 -21
0 -30z m-20 -35 c-3 -8 -6 -5 -6 6 -1 11 2 17 5 13 3 -3 4 -12 1 -19z m3810
-30 c-3 -8 -6 -5 -6 6 -1 11 2 17 5 13 3 -3 4 -12 1 -19z m10 -65 c-3 -10 -5
-2 -5 17 0 19 2 27 5 18 2 -10 2 -26 0 -35z m10 -85 c-3 -8 -6 -5 -6 6 -1 11
2 17 5 13 3 -3 4 -12 1 -19z m-16 -165 c-12 -20 -14 -14 -5 12 4 9 9 14 11 11
3 -2 0 -13 -6 -23z m-63 -50 c-10 -2 -26 -2 -35 0 -10 3 -2 5 17 5 19 0 27 -2
18 -5z m-2284 -276 c45 -161 70 -219 122 -283 52 -64 49 -58 127 -249 36 -88
88 -214 117 -280 57 -131 73 -178 60 -170 -5 3 -30 -38 -57 -92 -26 -53 -66
-116 -88 -138 -53 -54 -127 -97 -169 -98 -19 0 -32 -5 -29 -10 17 -28 -130 80
-268 197 -113 95 -122 114 -89 198 31 77 89 243 112 318 12 37 23 114 28 180
4 70 17 152 33 211 14 52 33 155 43 228 10 73 19 129 20 124 2 -4 19 -65 38
-136z m1776 -63 c200 -55 457 -169 655 -292 118 -72 141 -91 127 -102 -4 -3
-33 -58 -65 -122 -61 -124 -122 -202 -191 -246 -39 -24 -159 -62 -198 -62 -15
0 -18 -8 -18 -45 0 -39 5 -50 38 -81 20 -19 28 -31 17 -26 -53 26 -63 51 -70
172 -14 257 -27 292 -174 475 -200 248 -269 355 -230 355 8 0 57 -12 109 -26z
m855 -429 c19 -15 18 -15 -12 -1 -17 9 -35 21 -39 27 -8 13 21 -1 51 -26z
m120 -88 c18 -17 -18 5 -57 36 -22 16 -38 23 -38 16 0 -7 -3 -10 -6 -6 -3 3
-3 11 1 17 6 9 61 -26 100 -63z m65 -52 c23 -19 38 -35 33 -35 -9 1 -90 70
-81 70 4 0 25 -16 48 -35z m134 -145 c-3 -2 -9 2 -14 10 -5 9 -20 28 -34 43
-14 15 -26 31 -26 35 1 4 18 -13 40 -38 22 -24 37 -47 34 -50z m33 -187 c-3
-10 -5 -4 -5 12 0 17 2 24 5 18 2 -7 2 -21 0 -30z m-10 -45 c-3 -8 -6 -5 -6 6
-1 11 2 17 5 13 3 -3 4 -12 1 -19z m-2467 -93 c0 -5 -9 5 -20 23 -26 42 -26
56 0 17 11 -16 20 -34 20 -40z m2457 43 c-3 -8 -6 -5 -6 6 -1 11 2 17 5 13 3
-3 4 -12 1 -19z m-777 -15 c0 -5 18 -32 40 -61 39 -51 53 -77 27 -50 -29 30
-86 118 -77 118 6 0 10 -3 10 -7z m767 -35 c-3 -8 -6 -5 -6 6 -1 11 2 17 5 13
3 -3 4 -12 1 -19z m-2411 -35 c-7 -7 -26 7 -26 19 0 6 6 6 15 -2 9 -7 13 -15
11 -17z m73 -107 l-2 -31 -4 30 c-3 17 -17 44 -31 60 l-27 30 33 -29 c24 -22
32 -37 31 -60z m2308 42 c-3 -8 -6 -5 -6 6 -1 11 2 17 5 13 3 -3 4 -12 1 -19z
m-627 -29 c0 -6 -4 -7 -10 -4 -5 3 -10 11 -10 16 0 6 5 7 10 4 6 -3 10 -11 10
-16z m610 -19 c-6 -11 -13 -20 -16 -20 -2 0 0 9 6 20 6 11 13 20 16 20 2 0 0
-9 -6 -20z m-605 -40 c3 -5 1 -10 -4 -10 -6 0 -11 5 -11 10 0 6 2 10 4 10 3 0
8 -4 11 -10z m-1678 -47 c-3 -10 -5 -2 -5 17 0 19 2 27 5 18 2 -10 2 -26 0
-35z m1720 31 c-3 -3 -12 -4 -19 -1 -8 3 -5 6 6 6 11 1 17 -2 13 -5z m119 -26
c3 -5 -6 -6 -22 -2 -16 4 -34 7 -41 7 -7 0 -10 3 -8 7 6 9 64 0 71 -12z m414
19 c0 -2 -10 -12 -22 -23 l-23 -19 19 23 c18 21 26 27 26 19z m-2712 -41 c28
-16 50 -31 48 -33 -5 -5 -116 57 -116 64 0 6 4 4 68 -31z m2359 8 c-3 -3 -12
-4 -19 -1 -8 3 -5 6 6 6 11 1 17 -2 13 -5z m98 -14 c13 -5 14 -9 5 -9 -8 0
-24 4 -35 9 -13 5 -14 9 -5 9 8 0 24 -4 35 -9z m152 -17 c-20 -2 -52 -2 -70 0
-17 2 0 4 38 4 39 0 53 -2 32 -4z m-2412 -66 c7 -7 3 -8 -10 -3 -11 4 -40 14
-65 23 -25 8 -49 19 -55 24 -5 5 20 -1 55 -12 36 -12 70 -26 75 -32z m285 -2
c0 -25 0 -25 -87 -23 l-88 2 83 3 c74 3 82 6 82 23 0 11 2 20 5 20 3 0 5 -11
5 -25z m-217 -12 c-7 -2 -19 -2 -25 0 -7 3 -2 5 12 5 14 0 19 -2 13 -5z m1662
-943 c-5 -8 -11 -8 -17 -2 -6 6 -7 16 -3 22 5 8 11 8 17 2 6 -6 7 -16 3 -22z
m-25 -34 c-13 -13 -35 7 -25 24 5 8 11 8 21 -1 10 -8 12 -15 4 -23z m-37 -32
c-27 -20 -39 -17 -17 5 10 10 23 16 27 14 5 -3 0 -11 -10 -19z m-2943 -243
c-14 -28 -31 -36 -40 -20 -6 8 -1 17 13 25 32 18 39 16 27 -5z m-90 -36 c0
-16 -6 -25 -15 -25 -28 0 -18 40 13 49 1 1 2 -10 2 -24z m-52 -36 c-18 -12
-23 8 -6 28 12 15 13 15 16 -2 2 -10 -2 -21 -10 -26z m-28 1 c0 -5 -7 -10 -16
-10 -8 0 -12 5 -9 10 3 6 10 10 16 10 5 0 9 -4 9 -10z m220 -150 c0 -5 -5 -10
-11 -10 -5 0 -7 5 -4 10 3 6 8 10 11 10 2 0 4 -4 4 -10z m-219 -247 c13 -16
12 -17 -3 -4 -17 13 -22 21 -14 21 2 0 10 -8 17 -17z"/>
<path d="M3648 8153 c7 -3 16 -2 19 1 4 3 -2 6 -13 5 -11 0 -14 -3 -6 -6z"/>
<path d="M3218 8073 c23 -2 61 -2 85 0 23 2 4 4 -43 4 -47 0 -66 -2 -42 -4z"/>
<path d="M3363 8063 c9 -2 25 -2 35 0 9 3 1 5 -18 5 -19 0 -27 -2 -17 -5z"/>
<path d="M3410 7630 c0 -5 8 -10 18 -10 10 0 28 -7 40 -16 32 -22 43 -7 13 17
-24 20 -71 26 -71 9z"/>
<path d="M3575 7319 c-10 -15 3 -25 16 -12 7 7 7 13 1 17 -6 3 -14 1 -17 -5z"/>
<path d="M4782 7347 c-7 -12 -19 -33 -29 -47 -9 -14 -13 -20 -7 -15 48 51 64
74 56 79 -5 3 -14 -5 -20 -17z"/>
<path d="M6262 6579 c5 -16 68 -25 68 -10 0 6 -6 11 -12 11 -7 0 -24 3 -37 7
-18 4 -23 2 -19 -8z"/>
<path d="M6165 6480 c28 -12 37 -12 30 0 -3 6 -16 10 -28 9 -21 0 -21 -1 -2
-9z"/>
<path d="M5300 6905 c0 -5 11 -23 25 -40 13 -16 24 -25 25 -20 0 6 -11 24 -25
40 -13 17 -24 26 -25 20z"/>
<path d="M5575 6770 c-4 -6 3 -10 14 -10 25 0 27 6 6 13 -8 4 -17 2 -20 -3z"/>
<path d="M5620 6740 c0 -5 5 -10 10 -10 6 0 10 5 10 10 0 6 -4 10 -10 10 -5 0
-10 -4 -10 -10z"/>
<path d="M5655 6680 c17 -4 48 -8 70 -8 l40 1 -45 8 c-25 4 -56 7 -70 7 -23 0
-22 -1 5 -8z"/>
<path d="M5316 6661 c-3 -5 16 -6 42 -4 69 7 74 11 15 12 -28 1 -54 -3 -57 -8z"/>
<path d="M5458 6663 c12 -2 32 -2 45 0 12 2 2 4 -23 4 -25 0 -35 -2 -22 -4z"/>
<path d="M5560 6650 c14 -4 50 -8 80 -8 l55 1 -45 8 c-25 4 -61 7 -80 7 -32 0
-33 -1 -10 -8z"/>
<path d="M5745 6640 c-3 -5 1 -10 9 -10 9 0 16 5 16 10 0 6 -4 10 -9 10 -6 0
-13 -4 -16 -10z"/>
<path d="M5393 6633 c15 -2 37 -2 50 0 12 2 0 4 -28 4 -27 0 -38 -2 -22 -4z"/>
<path d="M4155 5700 c27 -12 43 -12 25 0 -8 5 -22 9 -30 9 -10 0 -8 -3 5 -9z"/>
<path d="M2530 5270 l-45 -7 50 -1 c28 -1 57 3 65 8 18 11 3 11 -70 0z"/>
<path d="M2266 5353 c7 -41 19 -61 30 -50 10 10 -15 87 -27 87 -6 0 -7 -15 -3
-37z"/>
<path d="M7105 3998 c-111 -171 -208 -291 -349 -435 -78 -79 -138 -143 -134
-143 14 0 221 205 280 278 33 40 63 71 65 68 8 -8 -102 -141 -185 -224 -81
-81 -188 -168 -280 -227 -34 -22 -61 -44 -62 -48 0 -11 36 12 154 95 108 76
261 225 344 335 61 81 76 107 47 83 -26 -22 -16 -2 34 67 70 97 162 243 154
243 -5 0 -35 -42 -68 -92z"/>
<path d="M5306 3808 c-15 -18 -30 -38 -35 -44 -14 -17 -34 -60 -24 -49 17 17
94 125 89 125 -2 0 -16 -15 -30 -32z"/>
<path d="M5156 3697 c-26 -25 -28 -30 -17 -54 6 -14 14 -23 17 -20 3 3 0 15
-6 27 -6 12 -10 23 -8 23 2 1 14 11 27 22 l24 20 -7 -25 c-6 -21 -5 -22 4 -7
6 9 7 23 3 30 -6 9 -16 5 -37 -16z"/>
<path d="M5222 3675 c-17 -37 -14 -45 4 -12 9 16 14 31 11 33 -2 2 -9 -7 -15
-21z"/>
<path d="M4890 7373 c0 -6 8 -17 18 -24 16 -13 16 -13 2 6 -8 11 -16 22 -17
24 -2 2 -3 0 -3 -6z"/>
<path d="M3276 7318 c3 -5 10 -6 15 -3 13 9 11 12 -6 12 -8 0 -12 -4 -9 -9z"/>
<path d="M4027 7138 c-2 -7 -1 -22 3 -33 6 -16 8 -13 7 13 0 35 -2 39 -10 20z"/>
<path d="M3481 7129 c-13 -5 -21 -12 -18 -15 3 -3 18 1 34 10 31 17 21 20 -16
5z"/>
<path d="M3030 7094 c0 -5 7 -18 15 -28 8 -11 15 -16 15 -10 0 5 -7 18 -15 28
-8 11 -15 16 -15 10z"/>
<path d="M2976 7043 c-6 -14 -5 -15 5 -6 7 7 10 15 7 18 -3 3 -9 -2 -12 -12z"/>
<path d="M3067 7045 c-4 -8 -3 -16 1 -19 4 -3 9 4 9 15 2 23 -3 25 -10 4z"/>
<path d="M3117 7009 c7 -7 15 -10 18 -7 3 3 -2 9 -12 12 -14 6 -15 5 -6 -5z"/>
<path d="M3880 7005 c-14 -8 -20 -14 -15 -14 6 0 21 6 35 14 14 8 21 14 15 14
-5 0 -21 -6 -35 -14z"/>
<path d="M2916 6967 c3 -10 9 -15 12 -12 3 3 0 11 -7 18 -10 9 -11 8 -5 -6z"/>
<path d="M2985 6960 c3 -5 8 -10 11 -10 2 0 4 5 4 10 0 6 -5 10 -11 10 -5 0
-7 -4 -4 -10z"/>
<path d="M4322 6950 c0 -14 2 -19 5 -12 2 6 2 18 0 25 -3 6 -5 1 -5 -13z"/>
<path d="M2938 6903 c6 -2 18 -2 25 0 6 3 1 5 -13 5 -14 0 -19 -2 -12 -5z"/>
<path d="M3320 6865 c-6 -8 -10 -19 -8 -24 1 -6 8 1 15 14 13 28 11 31 -7 10z"/>
<path d="M3332 6806 c8 -7 30 -17 49 -20 33 -7 32 -6 -10 14 -51 24 -57 25
-39 6z"/>
<path d="M3145 6780 c21 -24 26 -25 19 -6 -3 8 -13 17 -22 21 -13 5 -13 2 3
-15z"/>
<path d="M3080 6750 c0 -5 5 -10 11 -10 5 0 7 5 4 10 -3 6 -8 10 -11 10 -2 0
-4 -4 -4 -10z"/>
<path d="M2835 6400 c3 -5 8 -10 11 -10 2 0 4 5 4 10 0 6 -5 10 -11 10 -5 0
-7 -4 -4 -10z"/>
</g>
</svg>
