<?xml version="1.0" standalone="no"?>
<!DOCTYPE svg PUBLIC "-//W3C//DTD SVG 20010904//EN"
 "http://www.w3.org/TR/2001/REC-SVG-20010904/DTD/svg10.dtd">
<svg version="1.0" xmlns="http://www.w3.org/2000/svg"
 width="920.000000pt" height="1341.000000pt" viewBox="0 0 920.000000 1341.000000"
 preserveAspectRatio="xMidYMid meet">

<g transform="translate(0.000000,1341.000000) scale(0.100000,-0.100000)"
fill="#000000" stroke="none">
<path d="M2982 13165 c-57 -18 -103 -50 -132 -92 -25 -37 -56 -143 -66 -231
-7 -51 -6 -53 33 -91 37 -35 126 -71 175 -71 9 0 21 -13 28 -30 7 -16 22 -36
34 -44 12 -8 64 -90 116 -183 51 -92 98 -176 104 -185 7 -12 6 -22 -6 -35 -25
-28 -128 -211 -128 -227 0 -11 -9 -13 -35 -9 -50 8 -72 -11 -134 -116 l-53
-91 -74 0 c-84 0 -81 3 -109 -102 -15 -56 -23 -71 -50 -86 -26 -16 -33 -29
-44 -78 -8 -36 -48 -127 -102 -232 -172 -330 -186 -360 -193 -409 -12 -94 32
-416 65 -470 24 -39 89 -81 211 -136 53 -24 112 -57 132 -75 21 -18 48 -32 62
-32 14 0 49 -18 78 -40 47 -35 70 -44 182 -69 71 -16 212 -44 313 -63 l185
-33 44 -57 c25 -32 55 -64 67 -72 22 -14 23 -23 29 -183 3 -92 9 -232 12 -311
l6 -143 67 -70 67 -70 -12 -79 c-9 -55 -10 -98 -4 -136 5 -31 11 -58 12 -59 2
-1 25 -15 51 -30 39 -22 72 -31 160 -41 62 -7 117 -13 122 -14 6 0 15 -13 21
-28 8 -22 27 -35 75 -56 l64 -28 1 -97 c1 -53 7 -129 13 -170 l12 -73 -40 -43
c-22 -23 -46 -56 -55 -73 -21 -40 -72 -225 -92 -331 -14 -73 -21 -91 -54 -128
-56 -64 -71 -103 -75 -199 -4 -76 -7 -87 -30 -107 -21 -18 -34 -52 -66 -172
-73 -272 -119 -416 -224 -705 -184 -508 -169 -453 -170 -626 l-1 -151 -48 -54
c-83 -92 -136 -173 -145 -223 -8 -41 0 -184 14 -263 5 -27 -5 -49 -63 -145
-163 -269 -266 -445 -288 -492 -29 -62 -30 -109 -9 -373 19 -237 31 -327 49
-361 12 -23 12 -31 0 -52 -9 -17 -13 -62 -14 -142 0 -133 -9 -119 127 -211 67
-46 71 -51 76 -94 3 -26 -1 -55 -8 -71 -12 -25 -62 -413 -119 -923 -18 -162
-22 -227 -15 -259 9 -38 7 -46 -13 -67 -20 -21 -21 -27 -11 -65 9 -33 8 -46
-2 -62 -10 -13 -11 -25 -5 -37 7 -12 -2 -52 -31 -141 -89 -272 -118 -448 -121
-743 -3 -227 -6 -215 104 -409 100 -178 135 -203 260 -193 102 9 188 65 385
251 107 100 134 167 153 376 5 63 19 201 30 305 11 105 23 242 27 305 5 96 9
117 25 128 13 10 18 26 18 60 0 74 8 90 54 110 54 25 61 34 80 122 9 41 50
158 92 260 257 631 277 683 282 755 4 65 7 71 36 90 23 16 31 28 30 50 0 41
19 55 181 134 77 37 150 79 162 92 27 29 39 81 58 247 20 166 19 229 -4 271
l-19 35 34 49 c18 26 36 64 40 84 4 20 5 203 2 406 l-5 371 25 54 c19 42 23
64 19 97 -5 34 -3 46 13 60 25 23 28 20 40 -44 9 -49 6 -64 -31 -189 -23 -76
-44 -164 -47 -198 -5 -66 14 -147 52 -222 21 -42 22 -48 10 -101 -15 -63 -44
-407 -44 -512 0 -85 15 -123 67 -172 38 -37 39 -40 35 -92 -4 -47 -1 -57 20
-78 27 -27 125 -67 163 -67 25 0 33 -14 15 -25 -19 -12 -10 -43 20 -72 27 -25
30 -34 30 -89 0 -44 17 -121 61 -279 74 -268 126 -434 143 -459 9 -15 10 -29
2 -58 -8 -32 -7 -44 8 -73 16 -30 17 -40 6 -82 -30 -119 -21 -388 17 -472 9
-20 15 -56 14 -82 -2 -25 4 -63 13 -83 17 -40 -1 -30 308 -170 162 -73 233
-112 323 -178 216 -158 423 -216 678 -190 148 16 212 35 255 78 38 38 37 18
14 219 -20 167 -99 270 -372 482 -71 55 -95 79 -83 82 54 10 50 29 -24 111
-68 76 -140 130 -172 130 -19 0 -41 14 -76 50 -46 47 -48 50 -32 68 21 23 22
51 2 80 -14 19 -14 24 2 48 16 26 16 27 -5 45 -12 9 -26 19 -31 21 -4 2 -11
67 -13 145 l-5 143 32 19 c24 14 34 28 40 57 9 49 -4 353 -17 376 -6 13 2 45
31 115 22 53 38 100 35 105 -3 5 -16 13 -29 18 -17 7 -21 14 -18 34 3 16 -3
36 -17 56 l-21 30 95 103 c78 83 96 108 96 133 0 35 -21 152 -86 480 l-46 232
26 85 c38 125 36 137 -44 295 l-71 137 17 53 c15 48 15 71 5 210 -23 306 -100
1007 -117 1067 -4 11 -17 31 -30 45 l-23 26 25 84 c24 79 29 87 73 117 26 18
60 47 76 64 26 27 30 38 30 90 0 49 3 58 15 53 23 -9 264 -18 293 -11 28 8 34
27 62 192 26 154 24 166 -55 324 -47 93 -77 142 -90 146 -11 4 -30 25 -41 48
-12 23 -80 135 -150 248 l-129 207 0 134 c0 144 -10 200 -42 235 -17 18 -19
30 -14 63 4 26 1 52 -9 77 -12 29 -13 43 -4 71 9 26 9 48 1 86 -6 28 -27 194
-47 370 -28 246 -34 325 -26 349 18 49 13 88 -15 124 l-26 34 27 82 c52 159
45 216 -44 352 -66 102 -127 163 -167 171 -19 3 -34 10 -34 14 0 5 -81 50
-180 101 -198 102 -192 95 -148 167 40 65 69 73 176 46 56 -14 66 -14 78 -2 8
8 12 21 9 30 -6 14 -222 140 -318 184 l-37 18 29 30 c16 17 64 78 105 135 42
58 84 106 94 107 10 2 44 15 75 29 53 23 57 24 47 6 -5 -11 -15 -23 -20 -26
-6 -3 -10 -10 -10 -15 0 -5 26 7 58 25 167 97 239 164 272 251 30 81 50 162
50 204 1 30 2 32 12 16 25 -43 -12 -208 -78 -353 -19 -42 -34 -78 -34 -80 0
-25 108 114 144 184 54 108 71 285 42 435 -15 78 -4 81 19 6 10 -35 15 -94 15
-183 0 -139 -7 -171 -63 -297 -14 -32 -22 -58 -17 -58 17 0 81 116 102 183 18
60 20 86 16 210 -5 136 -11 165 -53 282 -12 34 31 -23 64 -86 57 -105 76 -248
47 -359 -8 -30 -12 -57 -10 -59 5 -5 28 23 52 64 21 38 23 203 3 285 -33 133
-120 269 -221 342 -32 24 -59 46 -59 50 -2 15 75 20 133 10 112 -21 202 -84
283 -197 12 -16 24 -28 27 -25 7 8 -41 141 -62 170 -28 38 -178 111 -248 121
l-59 8 62 -4 c64 -3 160 -40 223 -85 54 -38 54 -20 1 34 -74 75 -150 108 -245
108 -39 0 -90 -7 -113 -15 l-41 -16 -57 90 c-67 105 -193 243 -279 304 -75 53
-203 117 -275 139 -101 30 -188 18 -254 -34 l-28 -23 -82 39 c-80 38 -85 39
-192 39 -108 0 -113 -1 -188 -38 -321 -159 -520 -471 -505 -796 5 -101 31
-182 84 -260 13 -20 24 -39 24 -43 0 -14 -48 -9 -83 8 -33 16 -36 16 -100 -15
-35 -17 -68 -31 -72 -31 -4 0 -23 14 -42 30 -18 17 -40 30 -48 30 -14 0 -47
52 -139 219 -50 91 -51 85 7 147 54 60 47 163 -13 196 -29 15 -36 26 -42 61
-10 56 -37 90 -83 102 -27 8 -41 19 -50 41 -15 36 -32 51 -64 56 -17 2 -27 12
-34 33 -16 49 -27 57 -71 53 -23 -3 -48 -8 -56 -11 -11 -5 -41 30 -112 132
-54 76 -98 149 -98 160 0 26 -23 73 -44 90 -13 11 -13 17 -4 35 7 12 12 65 12
120 l1 100 -34 23 c-74 50 -214 79 -279 58z m175 -30 c147 -46 156 -72 61
-172 -85 -89 -209 -145 -360 -163 l-58 -6 0 28 c0 16 7 61 15 101 9 40 18 82
21 95 7 34 73 103 119 123 55 25 110 24 202 -6z m128 -177 c-11 -92 -17 -102
-97 -156 -125 -84 -125 -84 -230 -71 -51 6 -106 18 -123 27 l-30 16 57 8 c152
20 281 81 365 173 32 35 60 64 61 64 2 1 1 -27 -3 -61z m4 -154 c34 -43 27
-76 -23 -122 -43 -40 -114 -69 -142 -58 -7 3 -22 23 -33 44 l-20 39 92 61 c51
33 95 61 99 61 4 1 16 -11 27 -25z m1661 -189 c-47 -25 -98 -56 -115 -70 -22
-19 -16 -17 25 8 148 92 210 112 272 88 22 -8 21 -9 -12 -19 -32 -10 -31 -10
17 -5 47 5 59 2 130 -37 43 -24 96 -55 118 -69 l40 -26 -80 -6 -80 -5 91 -2
c89 -2 92 -3 121 -34 17 -18 39 -39 49 -46 18 -12 18 -13 -1 -7 -73 23 -116
28 -147 17 l-33 -11 40 5 c57 7 163 -28 200 -66 16 -16 26 -32 23 -35 -3 -3
-34 2 -69 11 -78 20 -152 13 -226 -21 -29 -13 -53 -26 -53 -29 0 -3 26 7 58
22 46 21 72 26 132 26 109 0 178 -24 214 -75 15 -22 26 -42 24 -44 -2 -3 -19
-1 -36 5 -20 5 -30 5 -27 -1 4 -5 11 -9 17 -9 25 0 76 -33 87 -56 15 -34 14
-39 -6 -23 -10 7 -7 1 7 -15 24 -26 25 -34 28 -177 3 -143 2 -151 -23 -206
-14 -32 -21 -59 -16 -62 16 -10 31 -158 31 -312 0 -175 4 -168 -125 -233 -42
-21 -74 -40 -71 -43 3 -3 44 16 92 41 47 25 88 46 90 46 2 0 4 -6 4 -13 0 -7
-39 -29 -87 -49 -128 -52 -125 -52 -118 -25 l7 22 -17 -22 c-23 -33 -39 -28
-18 5 l17 27 -27 -24 c-14 -13 -24 -27 -22 -31 9 -14 58 -21 68 -11 15 15 27
14 21 -3 -4 -10 8 -15 42 -21 25 -3 52 -9 59 -11 7 -3 22 5 34 17 26 28 26 24
0 -62 -15 -50 -38 -92 -83 -151 -58 -77 -67 -85 -171 -140 -165 -87 -182 -92
-249 -78 -70 14 -124 61 -253 220 -65 80 -97 128 -105 157 l-10 42 -42 -5
c-41 -6 -43 -5 -117 68 -42 40 -93 100 -115 132 -37 57 -39 63 -39 140 0 45 7
99 14 120 12 36 15 38 27 22 9 -13 10 -24 3 -40 -7 -14 -7 -30 0 -46 9 -23 10
-23 10 13 1 35 13 48 26 27 11 -18 23 -10 18 11 -5 19 -3 20 18 14 30 -10 69
-35 69 -45 0 -4 -11 -5 -24 -3 -17 4 -28 -2 -40 -18 -9 -13 -16 -28 -16 -34 1
-5 8 2 16 18 29 53 74 29 99 -55 19 -65 7 -82 -32 -47 -21 18 -24 19 -13 4 25
-36 42 -46 57 -34 17 15 16 38 -3 96 -9 26 -18 60 -20 76 l-4 27 39 -20 c21
-10 48 -32 60 -47 l21 -28 -6 37 c-7 42 1 88 16 88 5 0 8 -8 8 -17 -3 -62 61
-162 114 -179 13 -4 37 -17 54 -30 17 -13 34 -24 37 -24 4 0 8 17 8 38 1 35 2
34 10 -13 4 -27 6 -51 3 -54 -2 -3 42 -21 100 -41 57 -21 117 -47 134 -59 17
-11 36 -21 44 -21 19 0 -47 40 -112 67 -43 18 -49 23 -28 23 16 0 34 10 46 24
l19 25 46 -47 c42 -44 45 -50 41 -91 -2 -24 -5 -45 -7 -47 -1 -2 -32 15 -67
38 -86 55 -153 80 -224 84 -74 4 -62 -9 24 -26 36 -7 111 -34 168 -62 l102
-49 1 -42 1 -42 9 33 c5 17 14 32 19 32 6 0 10 5 10 11 0 5 -4 8 -9 4 -9 -5
-4 64 5 74 2 2 13 -4 24 -14 17 -15 23 -16 33 -5 10 10 9 12 -5 7 -11 -4 -23
2 -33 16 -22 32 -18 43 8 20 36 -32 43 -34 63 -11 19 21 19 21 -3 7 -21 -12
-25 -11 -49 13 -26 25 -26 29 -15 72 6 25 21 72 33 103 l21 56 25 -42 c33 -55
37 -47 10 19 l-22 53 29 55 c33 62 82 131 136 189 64 70 75 175 29 281 -28 64
-51 80 -86 58 -44 -30 -162 -178 -210 -267 -27 -48 -52 -85 -55 -83 -10 6 -56
-135 -73 -221 -13 -66 -14 -68 -15 -25 0 25 4 78 9 119 12 87 6 106 -8 29 -7
-40 -10 -45 -11 -21 0 17 17 94 39 170 22 76 40 142 40 147 0 14 -109 -130
-156 -206 -24 -40 -44 -66 -45 -58 -1 22 -48 -127 -58 -185 l-9 -50 -1 60 c0
33 8 96 18 140 11 44 18 81 16 83 -9 9 -48 -149 -49 -200 0 -34 -5 -56 -11
-54 -15 5 -9 148 9 209 8 29 13 62 10 74 -4 13 9 53 34 107 48 102 47 115 -1
19 -47 -94 -55 -121 -72 -257 -8 -65 -17 -121 -21 -125 -4 -3 -4 48 -1 114 5
106 26 222 62 330 4 13 1 11 -8 -5 -25 -42 -68 -230 -74 -323 -5 -78 -8 -87
-21 -73 -21 20 -17 118 8 225 11 46 19 86 17 88 -7 6 -47 -142 -54 -198 l-7
-54 -7 40 c-8 44 2 141 25 250 8 38 13 71 11 73 -9 9 -41 -151 -59 -298 -2
-19 -3 21 -2 90 2 113 1 120 -8 69 -6 -32 -24 -74 -40 -98 -30 -44 -35 -71
-23 -136 6 -35 6 -37 -5 -20 -9 14 -13 59 -12 140 1 86 -1 107 -7 75 -4 -25
-8 -74 -9 -110 0 -56 -2 -62 -13 -45 -19 32 -12 189 12 265 23 73 21 93 -3 28
l-16 -43 5 47 c2 26 16 75 31 110 36 87 39 99 13 54 -48 -88 -61 -145 -66
-296 -4 -133 -3 -148 16 -184 24 -46 23 -51 -6 -31 -24 17 -42 76 -53 176 l-7
74 -1 -65 c-1 -36 3 -83 8 -104 5 -22 5 -47 1 -55 -9 -15 -26 9 -58 82 -19 43
-36 193 -30 266 3 41 2 55 -3 36 -12 -45 -11 -174 1 -241 6 -32 21 -78 34
-101 13 -24 20 -43 15 -43 -5 0 -25 33 -45 73 -37 73 -39 59 -4 -22 15 -33 16
-41 4 -31 -23 19 -44 102 -61 249 -19 151 -12 222 32 340 13 35 24 66 24 70
-1 16 -22 -32 -47 -104 -25 -73 -28 -93 -27 -215 0 -114 -1 -127 -9 -82 -10
53 -27 75 -20 25 3 -24 2 -25 -6 -8 -8 16 -10 9 -10 -29 -1 -72 -11 -51 -21
45 l-9 84 4 -90 c4 -86 27 -182 61 -247 9 -18 11 -34 5 -50 -9 -22 -10 -21
-26 16 -9 22 -25 69 -34 105 -9 36 -23 77 -30 90 -8 14 -17 70 -21 125 l-7
101 -2 -86 c-1 -62 4 -102 19 -145 28 -84 24 -100 -7 -29 -14 33 -29 85 -32
115 -4 32 -11 54 -18 53 -7 -1 -10 9 -8 24 3 25 2 26 -11 8 -13 -17 -14 -16
-14 16 1 123 48 284 117 400 126 213 382 396 553 398 32 0 28 -3 -50 -44z
m598 20 c98 -23 261 -111 342 -184 l35 -32 -40 5 c-29 4 -34 3 -20 -4 11 -5
31 -9 45 -9 35 -1 133 -107 205 -220 32 -50 61 -91 64 -91 4 0 32 7 62 16 104
31 244 0 306 -68 13 -14 2 -12 -48 11 -94 44 -160 55 -226 36 -28 -8 -54 -19
-57 -23 -2 -4 37 -7 88 -7 89 0 96 -2 179 -43 91 -45 117 -71 142 -141 l14
-41 -55 60 c-77 82 -158 122 -263 128 -54 3 -86 0 -104 -10 l-27 -13 70 -54
c69 -52 144 -141 182 -214 52 -103 77 -330 43 -402 l-14 -30 7 40 c27 154 -25
329 -137 458 -25 30 -61 71 -79 93 l-33 39 31 -48 c43 -66 95 -180 111 -247
18 -71 18 -325 1 -360 l-13 -25 6 25 c13 59 16 201 6 275 -8 57 -22 101 -48
152 -20 40 -38 72 -39 70 -1 -1 7 -42 18 -92 24 -112 29 -307 9 -383 -7 -29
-15 -52 -17 -50 -1 2 1 46 6 98 5 52 6 131 2 175 -7 76 -7 72 -13 -80 -6 -179
-27 -278 -68 -335 -42 -58 -44 -58 -16 5 67 153 77 242 46 435 l-18 115 -1
-130 c-1 -108 -5 -145 -27 -218 -29 -101 -63 -173 -95 -202 l-23 -20 22 44
c13 23 18 40 12 36 -15 -9 -14 -5 18 66 46 104 84 315 61 349 -7 11 -10 -3
-10 -50 -1 -92 -34 -233 -75 -317 -34 -69 -174 -234 -175 -206 0 7 9 17 20 23
26 14 104 125 135 193 31 67 55 189 54 265 -1 32 -3 46 -5 32 -2 -14 -9 -63
-15 -110 -18 -137 -63 -238 -146 -330 -25 -28 -60 -58 -77 -66 l-31 -15 26 23
c93 81 201 298 198 398 0 14 -9 -8 -19 -49 -22 -81 -58 -166 -91 -212 -36 -50
-32 -26 6 37 42 70 68 150 85 258 16 109 6 106 -14 -4 -20 -111 -53 -201 -100
-274 -20 -31 -38 -56 -40 -56 -3 0 15 37 39 83 52 97 81 182 89 257 5 48 2 43
-18 -37 -22 -82 -97 -263 -110 -263 -6 0 20 91 40 138 23 56 44 178 43 249
l-2 68 -8 -82 c-9 -98 -38 -209 -76 -290 -26 -56 -27 -57 -31 -28 -2 17 2 75
9 130 8 55 14 159 14 230 0 120 -2 134 -27 188 -33 71 -52 80 -84 41 l-24 -29
1 60 c1 33 -2 77 -6 97 -6 34 -5 39 16 47 l24 10 -22 0 c-17 1 -23 7 -23 24 0
17 11 28 45 45 61 30 81 28 118 -10 24 -25 28 -27 16 -8 -9 14 -28 32 -42 40
-27 15 -45 12 -127 -24 -12 -5 -20 5 -33 42 -10 26 -42 81 -73 121 -50 67 -54
75 -39 91 22 24 18 36 -5 15 -11 -10 -21 -16 -23 -14 -1 2 -36 40 -77 83 -41
44 -70 76 -63 72 6 -3 15 -1 19 5 4 8 3 9 -4 5 -7 -4 -12 -2 -12 5 0 10 -3 10
-12 1 -8 -8 -20 -4 -47 17 -20 16 -51 36 -68 45 -18 9 -33 21 -33 26 0 22 101
69 150 69 14 1 53 -6 88 -14z m-1922 -193 c12 -8 47 -92 38 -92 -3 0 -21 12
-41 27 -34 26 -36 26 -49 8 -22 -30 -17 -47 29 -86 48 -43 43 -66 -12 -54 -43
9 -65 53 -58 119 6 66 53 106 93 78z m3 -88 c26 -21 29 -29 20 -45 -10 -19
-11 -19 -39 3 -27 22 -41 68 -21 68 5 0 23 -12 40 -26z m92 -4 c24 -13 25 -31
2 -24 -10 4 -3 -6 15 -21 35 -29 38 -41 20 -80 l-11 -26 -33 32 c-18 17 -37
28 -43 25 -16 -10 -14 25 4 68 17 40 18 40 46 26z m127 -106 c20 -14 33 -42
13 -30 -4 3 1 -12 12 -34 16 -35 18 -45 7 -70 -14 -35 -26 -38 -35 -10 -3 10
-20 31 -38 46 l-31 26 -18 -22 c-27 -34 -22 -59 24 -113 39 -47 41 -50 23 -63
-24 -18 -36 -18 -62 1 -34 24 -48 78 -29 116 9 18 16 37 16 44 0 23 65 124 80
125 9 0 26 -7 38 -16z m-139 -28 c20 -21 21 -27 10 -47 l-12 -23 -29 33 c-23
26 -27 35 -17 47 16 19 22 18 48 -10z m-69 -3 c0 -9 17 -34 37 -55 31 -32 35
-40 23 -48 -22 -14 -35 -12 -63 10 -26 21 -45 79 -32 99 10 17 35 13 35 -6z
m-336 -30 c4 -9 1 -20 -5 -24 -7 -4 14 -10 47 -14 76 -9 138 -36 160 -69 26
-40 64 -153 64 -189 0 -18 -7 -54 -15 -81 -22 -71 -11 -69 16 3 12 34 24 61
26 61 12 0 94 -63 103 -80 5 -10 16 -54 24 -97 8 -43 15 -70 15 -60 1 25 13
21 50 -17 31 -32 33 -39 28 -78 -5 -41 -5 -42 8 -18 22 40 18 64 -19 101 -34
34 -35 36 -24 77 13 54 48 82 100 82 56 0 67 -29 39 -104 -11 -31 -21 -80 -21
-108 0 -49 -3 -54 -50 -100 -27 -26 -59 -48 -70 -48 -12 0 -42 11 -68 24 -26
13 -61 27 -78 30 -26 6 -36 18 -70 89 -21 45 -70 128 -107 184 -75 114 -97
131 -229 179 -43 16 -78 33 -78 38 0 11 73 146 108 199 27 41 37 45 46 20z
m503 -55 c11 -13 26 -33 32 -45 12 -23 5 -73 -10 -73 -10 0 -80 90 -75 99 1 3
6 14 9 24 8 23 19 22 44 -5z m126 -29 c25 -14 37 -28 37 -48 0 -11 -3 -11 -17
0 -17 13 -17 13 0 -13 24 -38 21 -72 -8 -105 -22 -25 -24 -26 -25 -8 0 35 -30
67 -56 62 -13 -2 -24 -2 -24 0 0 9 61 123 66 123 3 0 15 -5 27 -11z m-68 -209
c26 -27 26 -28 6 -35 -54 -17 -108 68 -63 101 15 11 18 9 24 -13 4 -14 19 -38
33 -53z m33 59 c14 -22 7 -62 -11 -56 -18 6 -50 54 -43 66 11 18 40 13 54 -10z
m1782 -99 c6 -11 8 -20 6 -20 -3 0 -10 9 -16 20 -6 11 -8 20 -6 20 3 0 10 -9
16 -20z m-2562 -12 c4 -22 -33 -59 -52 -52 -21 8 -30 42 -15 60 16 20 63 14
67 -8z m2722 -22 c0 -2 -8 -10 -17 -17 -16 -13 -17 -12 -4 4 13 16 21 21 21
13z m-287 -57 c31 -16 127 -90 127 -98 0 -3 -13 -14 -30 -23 -33 -19 -111
-120 -147 -193 -14 -27 -27 -52 -29 -54 -1 -1 -19 9 -38 24 -44 33 -46 27 -6
-18 l29 -34 -28 -89 c-16 -49 -31 -98 -32 -108 -3 -15 -18 0 -63 60 l-59 79
21 83 c27 103 96 268 145 344 39 62 41 62 110 27z m277 -12 c0 -2 -10 -12 -22
-23 l-23 -19 19 23 c18 21 26 27 26 19z m-560 -71 c-35 -102 -53 -205 -46
-263 l6 -55 -57 52 c-32 30 -57 57 -56 60 9 31 157 260 168 260 2 0 -4 -24
-15 -54z m630 0 c0 -2 -7 -7 -16 -10 -8 -3 -12 -2 -9 4 6 10 25 14 25 6z m-41
-52 l44 -7 -6 -111 c-3 -61 -13 -151 -22 -199 -17 -86 -18 -88 -56 -107 -21
-11 -42 -20 -47 -20 -5 0 -12 90 -14 203 -3 111 -9 211 -13 221 -6 13 -5 17 2
13 20 -13 36 -166 31 -301 -4 -100 -3 -118 4 -76 13 78 4 306 -14 357 l-15 42
31 -4 c17 -2 51 -7 75 -11z m-822 -46 c-3 -8 -6 -5 -6 6 -1 11 2 17 5 13 3 -3
4 -12 1 -19z m-194 -89 c-5 -5 -7 7 -4 29 5 34 6 35 9 8 2 -16 0 -32 -5 -37z
m-713 14 c59 -53 64 -66 41 -110 -40 -80 -157 -169 -247 -187 -28 -6 -33 -4
-43 22 -7 16 -11 50 -10 76 3 42 6 49 38 68 76 45 145 104 158 135 7 18 15 33
18 33 3 0 23 -16 45 -37z m232 11 c17 -9 44 -14 59 -12 19 3 34 -1 45 -13 15
-16 12 -24 -32 -108 -26 -50 -57 -99 -68 -110 -12 -10 -117 -73 -234 -139
-145 -82 -226 -122 -257 -127 -25 -3 -77 -17 -117 -31 l-72 -24 -23 22 c-33
31 -29 46 25 98 53 51 108 72 180 70 77 -3 79 -2 131 48 27 26 73 67 101 91
75 64 104 111 97 160 -5 38 -4 39 46 65 59 30 77 32 119 10z m-652 -85 c63
-34 59 -26 75 -131 5 -32 2 -35 -78 -85 -103 -65 -127 -90 -134 -142 -5 -40
-9 -43 -86 -86 -50 -29 -84 -42 -90 -36 -6 6 -5 28 1 58 9 38 22 60 61 100 51
50 59 73 42 118 -6 15 6 40 51 104 32 46 58 95 58 108 0 32 26 30 100 -8z
m760 -73 c-13 -44 -32 -84 -46 -97 -23 -21 -24 -21 -24 -3 0 19 82 185 88 179
2 -2 -6 -37 -18 -79z m417 62 c-3 -8 -6 -5 -6 6 -1 11 2 17 5 13 3 -3 4 -12 1
-19z m296 -37 c32 -33 57 -68 57 -79 0 -11 3 -29 7 -39 6 -16 -10 -4 -130 98
-25 21 -29 30 -23 52 3 15 12 27 20 27 7 0 38 -27 69 -59z m-651 -191 c14 -25
50 -71 78 -102 l52 -58 -49 0 c-82 0 -89 5 -143 102 l-50 90 24 31 c14 18 30
55 38 82 l13 50 5 -75 c4 -57 11 -86 32 -120z m614 134 c50 -43 53 -48 39 -64
-23 -26 -18 -100 8 -100 7 0 7 4 -1 12 -17 17 -15 63 4 78 23 20 69 -28 60
-63 -13 -53 -143 -38 -158 18 -11 44 -21 165 -13 165 4 0 31 -21 61 -46z
m-108 -49 c-3 -3 -9 2 -12 12 -6 14 -5 15 5 6 7 -7 10 -15 7 -18z m329 -108
c14 -20 24 -39 22 -42 -7 -6 -119 106 -119 119 0 42 33 16 97 -77z m478 11
c-8 -26 -32 -48 -52 -48 -7 0 -13 -6 -13 -14 0 -8 -5 -18 -11 -22 -8 -4 -9 0
-4 15 4 12 2 21 -4 21 -6 0 -11 10 -10 23 0 21 1 21 9 2 5 -11 9 -15 9 -8 1
11 57 50 74 52 5 1 5 -9 2 -21z m25 -18 c-6 -11 -13 -20 -16 -20 -2 0 0 9 6
20 6 11 13 20 16 20 2 0 0 -9 -6 -20z m219 -32 c-31 -46 -70 -88 -94 -100 -11
-6 3 13 31 43 28 30 56 65 63 78 7 12 15 20 18 17 3 -2 -5 -20 -18 -38z m-355
-55 c-11 -45 -50 -80 -83 -75 l-29 4 25 36 c21 31 59 58 86 61 4 1 4 -11 1
-26z m29 -63 c-25 -50 -47 -89 -49 -87 -8 8 44 129 66 152 13 14 25 25 26 25
2 0 -17 -41 -43 -90z m177 86 c0 -2 -8 -10 -17 -17 -16 -13 -17 -12 -4 4 13
16 21 21 21 13z m-315 -66 c-10 -11 -24 -20 -32 -20 -9 0 -3 10 13 25 31 29
46 25 19 -5z m195 -10 c-6 -11 -13 -20 -16 -20 -2 0 0 9 6 20 6 11 13 20 16
20 2 0 0 -9 -6 -20z m-1572 -108 l35 -44 -42 21 c-32 17 -46 19 -61 11 -19
-10 -30 -8 -68 18 -10 7 -5 19 24 50 l37 41 20 -27 c11 -15 36 -47 55 -70z
m532 50 c29 3 33 -1 44 -34 14 -39 160 -222 240 -302 28 -27 65 -55 83 -62 38
-16 136 -18 163 -4 27 14 31 3 36 -103 3 -50 8 -108 11 -127 l7 -35 5 38 6 39
62 -56 c76 -69 133 -139 106 -130 -10 4 -37 25 -60 47 -47 45 -67 46 -30 1
l25 -29 -64 3 -64 4 -1 41 -2 42 -6 -39 c-5 -35 -7 -38 -20 -22 -11 13 -13 45
-9 149 5 128 -2 110 -17 -45 l-7 -68 -60 43 c-64 44 -128 122 -200 244 -23 40
-44 70 -46 68 -6 -5 53 -108 103 -181 l42 -61 -55 23 c-49 20 -60 30 -92 83
-48 80 -62 92 -22 19 18 -32 32 -60 32 -63 0 -3 -17 -3 -37 1 -34 6 -66 27
-140 93 -28 24 -60 130 -69 226 -6 65 -4 78 11 95 33 36 2 83 -67 104 -11 3
-15 12 -11 25 5 20 6 20 39 -5 23 -18 43 -25 64 -22z m-546 -91 c17 -10 56
-26 86 -35 31 -8 66 -26 78 -39 38 -40 111 -179 138 -261 14 -43 50 -126 81
-183 54 -101 60 -108 227 -261 94 -87 243 -223 331 -302 181 -163 195 -177
195 -199 0 -9 -22 -40 -48 -69 l-47 -52 -240 226 c-132 125 -302 285 -377 356
-76 72 -138 126 -138 120 0 -6 152 -153 338 -328 185 -174 353 -332 372 -350
25 -25 31 -37 23 -45 -8 -8 -85 60 -300 267 -158 154 -323 313 -366 354 l-78
74 -86 266 c-100 310 -121 360 -165 401 -21 20 -25 27 -12 20 52 -26 73 -71
165 -352 50 -153 94 -279 99 -279 9 0 7 8 -110 363 -71 212 -73 218 -118 257
-25 22 -56 43 -69 46 -13 4 -23 10 -23 15 0 13 9 11 44 -10z m644 -409 c2 -7
-2 -12 -9 -12 -12 0 -38 29 -39 44 0 11 43 -18 48 -32z m80 -33 c123 -30 323
-157 379 -241 27 -41 45 -175 22 -166 -8 3 -66 22 -129 43 -163 54 -191 89
-155 190 8 22 15 46 15 53 0 22 -57 72 -82 72 -38 0 -95 19 -120 40 l-23 19
23 1 c13 0 44 -5 70 -11z m483 -238 c91 -15 139 -31 139 -46 0 -7 16 -43 35
-79 19 -37 35 -78 35 -93 0 -25 -1 -26 -47 -20 -27 3 -85 17 -129 31 l-82 26
-10 73 c-5 39 -13 82 -17 95 -8 26 -5 26 76 13z m-75 -500 c45 -33 89 -79 97
-102 3 -9 -3 -34 -13 -57 -25 -55 -115 -188 -133 -195 -7 -3 -27 6 -44 19 -33
25 -50 64 -28 64 13 0 82 71 128 132 33 43 30 52 -32 112 -36 35 -44 56 -22
56 4 0 26 -13 47 -29z m270 -270 c46 -58 84 -113 84 -123 0 -20 -81 -186 -112
-230 l-19 -28 -97 74 c-110 83 -114 87 -135 137 l-15 37 78 126 c56 92 76 133
73 149 -5 20 -3 20 27 -8 18 -16 70 -77 116 -134z m178 -279 l66 -83 0 -102
c1 -128 10 -249 20 -261 4 -4 39 -14 76 -22 37 -8 69 -16 71 -18 2 -2 -6 -33
-17 -70 l-21 -67 -103 138 c-57 76 -149 188 -204 249 l-101 112 62 115 c47 87
65 113 73 104 7 -7 41 -49 78 -95z m-308 -547 c82 -9 161 -18 177 -21 l27 -6
0 -181 c0 -100 -4 -188 -9 -196 -8 -12 -42 -13 -206 -7 -108 3 -206 11 -216
17 -17 9 -19 22 -19 142 0 73 -3 162 -7 200 l-6 67 55 0 c31 0 122 -7 204 -15z
m-514 -27 l1 -33 4 33 c4 29 8 32 36 32 l32 0 -3 -137 c-3 -137 -11 -169 -40
-158 -24 9 -34 -6 -15 -22 13 -10 13 -13 3 -10 -10 3 -15 -3 -15 -19 l0 -24
17 22 c9 12 15 25 12 29 -2 4 3 9 11 13 19 7 19 -4 -2 -34 -9 -14 -10 -19 -3
-13 11 10 17 10 29 0 12 -10 13 -9 7 1 -13 22 -14 61 -1 72 9 8 12 4 10 -15
-2 -14 1 -25 6 -25 5 0 9 70 9 160 0 101 4 160 10 160 6 0 20 -11 32 -25 21
-24 22 -34 19 -152 -3 -142 -8 -161 -47 -192 -23 -18 -40 -21 -115 -21 -87 0
-89 0 -89 24 0 13 -3 31 -6 40 -4 10 -1 16 8 16 8 0 15 -7 16 -15 1 -8 3 -22
4 -30 2 -20 5 -19 19 6 7 13 7 19 1 15 -6 -3 -13 -2 -17 4 -4 6 7 10 27 11
l33 1 -35 7 c-19 4 -45 11 -57 15 -21 7 -22 5 -16 -42 l5 -49 -53 -6 c-30 -4
-98 -7 -151 -7 l-98 0 0 55 c0 45 3 53 15 49 13 -5 13 -9 3 -23 -10 -13 -10
-14 2 -3 19 16 35 15 21 -2 -9 -10 -8 -15 3 -19 11 -4 13 -1 9 11 -6 15 -3 14
15 -2 12 -11 22 -16 22 -11 0 4 6 2 14 -4 9 -8 16 -8 20 -2 4 6 13 8 21 5 8
-4 12 -11 8 -17 -3 -6 -1 -7 5 -3 17 10 15 26 -3 26 -8 0 -15 5 -15 12 0 6 -6
4 -13 -6 -12 -17 -14 -17 -20 -3 -8 22 29 33 51 15 15 -11 15 -11 5 2 -9 12
-8 19 3 35 14 18 14 18 14 -6 0 -32 3 -59 6 -59 2 0 8 10 15 21 7 13 7 19 1
15 -6 -3 -13 -2 -17 4 -3 5 2 10 11 10 14 0 15 3 6 12 -7 7 -13 35 -13 63 -1
27 -4 39 -6 25 -10 -63 -24 -87 -58 -103 -19 -9 -35 -22 -35 -27 0 -6 -5 -8
-10 -5 -6 4 -8 11 -4 16 3 5 2 9 -3 8 -21 -6 -63 27 -78 60 -15 36 -15 35 -13
-57 l3 -92 -51 0 -51 0 -7 46 c-3 26 -6 62 -6 80 0 58 -17 37 -28 -33 -11 -76
-8 -93 7 -42 l9 34 1 -42 c1 -45 -5 -51 -32 -30 -13 9 -20 47 -32 161 -18 173
-15 180 62 192 47 7 59 3 48 -16 -9 -14 -13 -67 -14 -165 -1 -99 0 -104 17
-97 9 3 13 1 9 -4 -4 -7 6 -9 26 -6 18 3 28 6 22 8 -5 1 -23 5 -39 9 l-28 6 6
97 c4 53 9 114 12 134 6 42 7 42 177 53 l98 7 -5 -44 -6 -43 11 42 c11 47 15
48 147 51 l72 2 2 -32z m832 -23 c8 -9 18 -32 21 -53 11 -61 16 -61 10 -1 l-5
57 33 -8 c71 -17 70 -16 63 -98 -3 -41 -6 -104 -6 -139 0 -36 -4 -62 -9 -59
-11 7 -8 -20 3 -31 4 -4 7 -3 5 2 -1 6 2 21 8 35 6 14 13 79 17 145 4 66 9
121 11 123 12 12 35 -32 35 -66 0 -82 -13 -163 -25 -158 -8 3 -10 -4 -7 -20 7
-36 -17 -83 -44 -90 -35 -9 -54 2 -54 31 0 14 -4 25 -10 25 -5 0 -10 -9 -10
-20 0 -17 -7 -20 -39 -20 -46 0 -61 22 -25 39 20 9 24 18 24 54 0 75 -22 211
-36 228 -8 8 -14 21 -14 27 0 17 36 15 54 -3z m-592 -37 c3 -24 6 -89 7 -146
2 -103 2 -104 -21 -100 -32 4 -47 54 -47 161 -1 95 9 127 38 127 15 0 20 -9
23 -42z m532 9 c20 -14 40 -142 34 -219 -3 -40 -5 -43 -35 -46 l-33 -3 0 140
c0 78 4 141 8 141 5 0 16 -6 26 -13z m922 -1074 c9 -9 46 -77 82 -150 l65
-133 -12 -87 c-6 -49 -19 -123 -28 -167 -20 -92 -32 -101 -108 -79 -102 31
-131 52 -210 153 -36 47 -43 64 -47 113 l-5 58 26 -40 c14 -23 29 -41 33 -41
4 0 27 15 51 33 24 17 57 41 72 53 l29 20 -42 67 c-23 37 -42 75 -42 86 0 10
20 35 44 55 25 20 48 45 51 56 8 24 18 25 41 3z m-282 -285 c9 -82 7 -125 -7
-140 -31 -30 -37 -60 -37 -173 0 -89 -4 -123 -17 -148 l-17 -32 -6 31 c-9 40
-40 91 -79 128 -21 20 -31 39 -31 59 0 30 2 31 55 12 20 -7 20 -6 1 9 -11 9
-28 16 -38 16 -15 0 -18 9 -18 58 0 31 -3 94 -6 139 l-7 82 34 4 c19 2 64 5
100 5 l66 2 7 -52z m26 -314 c21 -126 13 -150 -74 -212 -53 -39 -58 -31 -16
26 17 23 30 48 30 56 0 8 5 18 12 22 7 5 8 3 3 -6 -6 -9 -4 -11 4 -5 9 5 10
10 2 18 -16 16 -15 229 2 246 10 10 13 2 19 -36 4 -26 12 -76 18 -109z m20
-3383 c-1 -9 -7 -1 -16 18 l-14 34 -33 -29 -32 -29 30 33 30 33 17 -22 c10
-11 18 -29 18 -38z m-98 -40 c2 -22 0 -37 -3 -35 -4 2 -12 -3 -19 -11 -16 -19
-148 -61 -223 -70 -78 -9 -112 -39 -134 -117 l-17 -60 -18 22 c-23 29 -23 53
2 134 26 82 44 93 184 112 104 15 191 38 201 55 13 19 23 7 27 -30z m65 -6
c-15 -14 -33 -25 -39 -25 -6 0 4 11 23 24 44 32 51 32 16 1z m68 -18 c14 -11
15 -16 5 -22 -8 -5 -11 -4 -7 2 12 19 -25 24 -44 7 -11 -10 -19 -14 -19 -9 0
8 30 34 41 35 3 0 13 -6 24 -13z m-95 -42 c0 -9 -6 -12 -16 -8 -13 5 -13 7 -2
14 17 11 18 11 18 -6z m-2656 -19 c59 -29 164 -51 284 -61 82 -7 82 -7 82 -36
0 -24 -5 -30 -37 -39 -109 -31 -178 -21 -327 48 -76 35 -79 36 -107 19 -29
-16 -59 -14 -59 5 0 5 7 22 15 38 29 56 71 63 149 26z m2683 -8 c-3 -7 -5 -2
-5 12 0 14 2 19 5 13 2 -7 2 -19 0 -25z m-77 13 c-8 -5 -26 -11 -40 -15 -21
-5 -20 -3 5 9 32 15 60 20 35 6z m-524 -21 c36 -14 48 -31 80 -112 45 -119
108 -140 258 -89 50 17 97 31 105 30 11 0 12 -2 4 -6 -20 -8 -15 -21 10 -25
25 -4 -169 -53 -249 -64 -76 -9 -120 14 -150 82 -30 68 -56 81 -181 94 -86 9
-112 19 -113 41 0 14 48 48 75 52 59 8 134 7 161 -3z m561 -12 c-3 -8 -6 -5
-6 6 -1 11 2 17 5 13 3 -3 4 -12 1 -19z m84 -5 c-12 -20 -14 -14 -5 12 4 9 9
14 11 11 3 -2 0 -13 -6 -23z m-1076 10 c-22 -2 -46 -11 -52 -20 -7 -9 -13 -12
-13 -7 0 21 26 34 65 32 l40 -1 -40 -4z m178 -10 c-18 -2 -48 -2 -65 0 -18 2
-4 4 32 4 36 0 50 -2 33 -4z m632 -44 c-28 -28 -84 -70 -125 -95 l-75 -44 40
-1 c25 -1 31 -3 16 -6 -44 -9 -71 5 -71 35 1 38 34 108 59 122 22 11 139 37
181 39 22 1 20 -3 -25 -50z m212 29 c-3 -8 -6 -5 -6 6 -1 11 2 17 5 13 3 -3 4
-12 1 -19z m-3047 -16 c3 -3 -8 -2 -25 2 -16 4 -34 12 -40 17 -5 5 6 4 25 -2
19 -7 37 -14 40 -17z m3007 -4 c-3 -8 -6 -5 -6 6 -1 11 2 17 5 13 3 -3 4 -12
1 -19z m74 -15 c-12 -20 -14 -14 -5 12 4 9 9 14 11 11 3 -2 0 -13 -6 -23z
m-3136 7 c3 -5 1 -10 -4 -10 -6 0 -11 5 -11 10 0 6 2 10 4 10 3 0 8 -4 11 -10z
m98 3 c-7 -2 -19 -2 -25 0 -7 3 -2 5 12 5 14 0 19 -2 13 -5z m2994 -15 c-3 -8
-6 -5 -6 6 -1 11 2 17 5 13 3 -3 4 -12 1 -19z m-2940 6 c-3 -3 -12 -4 -19 -1
-8 3 -5 6 6 6 11 1 17 -2 13 -5z m318 -41 c84 -35 96 -38 180 -36 50 1 106 3
125 5 32 3 35 0 38 -24 2 -15 -1 -35 -7 -45 -7 -13 -8 -7 -4 25 11 81 -20 49
-91 -93 -41 -81 -73 -135 -82 -135 -8 0 -55 39 -104 86 l-90 87 -59 -23 c-34
-12 -62 -29 -64 -39 -12 -45 -5 36 9 104 12 57 13 84 6 101 -8 17 -8 24 1 28
19 8 45 0 142 -41z m409 31 c25 -24 19 -52 -14 -69 -26 -14 -30 -14 -30 -1 0
9 6 13 13 11 19 -7 39 10 35 31 -2 10 -14 24 -28 31 -17 9 -20 13 -8 13 9 0
24 -7 32 -16z m-666 -1 c-10 -2 -26 -2 -35 0 -10 3 -2 5 17 5 19 0 27 -2 18
-5z m2010 0 c-32 -2 -84 -2 -115 0 -32 2 -6 3 57 3 63 0 89 -1 58 -3z m828
-28 c-3 -8 -13 -14 -23 -14 -17 1 -17 2 0 6 9 2 17 14 18 26 0 12 3 16 6 9 3
-7 2 -19 -1 -27z m-2979 19 c-3 -3 -12 -4 -19 -1 -8 3 -5 6 6 6 11 1 17 -2 13
-5z m227 -10 c9 -8 16 -23 16 -32 0 -12 -4 -9 -13 8 -7 13 -23 27 -37 31 -23
6 -23 7 -3 8 12 1 29 -6 37 -15z m-187 0 c-3 -3 -12 -4 -19 -1 -8 3 -5 6 6 6
11 1 17 -2 13 -5z m3013 -4 c0 -5 -5 -10 -11 -10 -5 0 -7 5 -4 10 3 6 8 10 11
10 2 0 4 -4 4 -10z m-3079 -29 c47 -15 78 -50 123 -137 31 -60 36 -78 31 -108
-8 -42 -7 -41 -69 -20 -57 20 -63 15 -83 -58 -22 -84 -57 -351 -50 -380 4 -15
19 -41 34 -58 l26 -32 -47 -226 c-26 -124 -51 -234 -55 -244 -6 -18 -10 -16
-51 16 -54 42 -69 69 -70 121 0 41 60 570 105 922 25 196 37 242 58 225 7 -5
28 -15 48 -21z m106 23 c-3 -3 -12 -4 -19 -1 -8 3 -5 6 6 6 11 1 17 -2 13 -5z
m678 -4 c3 -6 -1 -7 -9 -4 -18 7 -21 14 -7 14 6 0 13 -4 16 -10z m1468 3 c-7
-2 -21 -2 -30 0 -10 3 -4 5 12 5 17 0 24 -2 18 -5z m-2072 -26 c25 -16 34 -31
36 -52 l2 -30 -7 30 c-5 22 -18 36 -52 53 -24 12 -37 22 -29 22 9 0 31 -10 50
-23z m2273 9 c24 -10 38 -26 54 -65 40 -91 94 -110 231 -80 53 11 113 23 134
26 l37 6 0 -74 c0 -41 3 -110 6 -154 l7 -81 -121 -27 c-180 -41 -195 -64 -173
-262 7 -60 19 -141 27 -180 8 -38 14 -93 14 -121 0 -43 7 -63 50 -135 62 -103
86 -129 118 -129 14 0 77 27 140 61 63 33 116 58 118 56 2 -2 7 -47 11 -99 l6
-95 -72 -46 c-39 -26 -71 -51 -71 -57 0 -13 34 -46 122 -116 l67 -54 -34 -82
c-18 -46 -36 -100 -40 -121 -4 -20 -11 -37 -15 -37 -17 0 -39 37 -34 60 l5 25
-11 -24 c-7 -16 -14 -20 -23 -14 -6 5 -41 32 -77 58 -36 27 -68 54 -72 60 -13
18 -8 79 12 144 11 35 19 66 16 68 -2 2 -20 -18 -39 -44 -63 -85 -91 -106
-130 -99 -19 4 -38 13 -41 21 -5 13 -46 247 -46 262 0 3 -13 3 -30 1 -21 -3
-31 0 -35 11 -3 9 -81 56 -175 105 -158 84 -168 91 -165 115 2 14 9 56 16 93
l11 67 39 -19 c56 -29 60 -24 6 10 -57 36 -83 83 -68 122 l10 28 43 -29 c40
-26 119 -61 136 -61 4 1 -24 16 -63 36 -109 54 -130 80 -170 209 -19 60 -45
151 -59 200 l-26 90 39 103 c49 129 71 161 150 220 l65 47 -30 6 c-20 5 -10 7
34 8 34 0 77 -5 96 -13z m-2367 -12 c-3 -3 -12 -4 -19 -1 -8 3 -5 6 6 6 11 1
17 -2 13 -5z m2993 2 c0 -2 3 -13 6 -23 6 -17 6 -17 -7 -1 -8 9 -25 19 -39 21
-21 4 -20 5 8 6 17 0 32 -1 32 -3z m-2953 -12 c-3 -3 -12 -4 -19 -1 -8 3 -5 6
6 6 11 1 17 -2 13 -5z m43 -14 c8 -5 12 -11 10 -14 -3 -2 -14 2 -24 10 -22 15
-10 19 14 4z m87 -27 c-3 -10 -5 -4 -5 12 0 17 2 24 5 18 2 -7 2 -21 0 -30z
m600 -4 c20 -38 15 -89 -13 -149 -14 -30 -34 -78 -45 -106 -11 -28 -29 -60
-42 -72 -52 -49 -206 -52 -457 -7 -216 39 -230 37 -250 -34 -14 -47 -25 -221
-16 -255 9 -36 59 -59 191 -85 160 -33 153 -30 124 -52 -32 -25 -42 -24 -193
12 -162 39 -186 58 -186 141 0 61 22 219 46 327 18 85 6 82 159 37 108 -31
388 -70 464 -63 37 2 58 10 67 22 7 10 25 70 40 134 17 77 35 127 51 149 28
37 42 37 60 1z m53 21 c8 -5 12 -11 10 -14 -3 -2 -14 2 -24 10 -22 15 -10 19
14 4z m1127 -57 c-3 -10 -5 -2 -5 17 0 19 2 27 5 18 2 -10 2 -26 0 -35z m996
40 c-7 -2 -19 -2 -25 0 -7 3 -2 5 12 5 14 0 19 -2 13 -5z m-276 -9 c-3 -3 -12
-4 -19 -1 -8 3 -5 6 6 6 11 1 17 -2 13 -5z m220 0 c-3 -3 -12 -4 -19 -1 -8 3
-5 6 6 6 11 1 17 -2 13 -5z m-2800 -41 c-3 -10 -5 -4 -5 12 0 17 2 24 5 18 2
-7 2 -21 0 -30z m70 5 c-3 -8 -6 -5 -6 6 -1 11 2 17 5 13 3 -3 4 -12 1 -19z
m2750 6 c-3 -3 -12 -4 -19 -1 -8 3 -5 6 6 6 11 1 17 -2 13 -5z m-2790 -36 c-3
-7 -5 -2 -5 12 0 14 2 19 5 13 2 -7 2 -19 0 -25z m2740 26 c-3 -3 -12 -4 -19
-1 -8 3 -5 6 6 6 11 1 17 -2 13 -5z m-2017 -8 c0 -2 -9 -6 -20 -9 -11 -3 -18
-1 -14 4 5 9 34 13 34 5z m-693 -38 c-3 -7 -5 -2 -5 12 0 14 2 19 5 13 2 -7 2
-19 0 -25z m1810 10 c-3 -8 -6 -5 -6 6 -1 11 2 17 5 13 3 -3 4 -12 1 -19z
m-1880 -20 c-3 -7 -5 -2 -5 12 0 14 2 19 5 13 2 -7 2 -19 0 -25z m570 0 c-3
-7 -5 -2 -5 12 0 14 2 19 5 13 2 -7 2 -19 0 -25z m-540 -20 c-3 -7 -5 -2 -5
12 0 14 2 19 5 13 2 -7 2 -19 0 -25z m701 12 c-7 -10 -14 -17 -17 -15 -4 4 18
35 25 35 2 0 -1 -9 -8 -20z m1171 -40 c0 -9 -4 -8 -9 5 -5 11 -9 27 -9 35 0 9
4 8 9 -5 5 -11 9 -27 9 -35z m-1842 8 c-3 -7 -5 -2 -5 12 0 14 2 19 5 13 2 -7
2 -19 0 -25z m500 0 c-3 -8 -6 -5 -6 6 -1 11 2 17 5 13 3 -3 4 -12 1 -19z
m-470 -20 c-3 -7 -5 -2 -5 12 0 14 2 19 5 13 2 -7 2 -19 0 -25z m-70 -10 c-3
-7 -5 -2 -5 12 0 14 2 19 5 13 2 -7 2 -19 0 -25z m30 -20 c-3 -7 -5 -2 -5 12
0 14 2 19 5 13 2 -7 2 -19 0 -25z m500 0 c-3 -7 -5 -2 -5 12 0 14 2 19 5 13 2
-7 2 -19 0 -25z m1360 0 c-3 -8 -6 -5 -6 6 -1 11 2 17 5 13 3 -3 4 -12 1 -19z
m-1830 -20 c-3 -7 -5 -2 -5 12 0 14 2 19 5 13 2 -7 2 -19 0 -25z m-51 -4 c8 3
14 1 14 -5 0 -16 -35 -6 -36 11 -1 10 0 11 3 2 3 -8 11 -11 19 -8z m511 -16
c-3 -8 -6 -5 -6 6 -1 11 2 17 5 13 3 -3 4 -12 1 -19z m-266 -5 c13 -16 12 -17
-3 -4 -17 13 -22 21 -14 21 2 0 10 -8 17 -17z m379 -40 c-11 -26 -30 -57 -41
-69 -11 -11 -28 -50 -38 -86 -10 -36 -24 -75 -30 -86 -12 -22 -66 -42 -114
-42 -21 0 -51 -21 -120 -83 l-92 -84 -147 32 c-197 42 -192 36 -185 190 5 125
16 171 43 182 8 3 81 -7 162 -22 99 -19 193 -29 288 -32 127 -5 146 -3 188 16
42 18 51 28 74 80 14 33 28 58 30 56 2 -2 -6 -25 -18 -52z m-533 31 c-3 -3
-12 -4 -19 -1 -8 3 -5 6 6 6 11 1 17 -2 13 -5z m133 -9 c11 -13 8 -15 -16 -14
-17 1 -22 3 -11 6 9 2 15 9 12 14 -10 15 1 10 15 -6z m1677 -7 c-3 -8 -6 -5
-6 6 -1 11 2 17 5 13 3 -3 4 -12 1 -19z m-1744 5 c-7 -2 -21 -2 -30 0 -10 3
-4 5 12 5 17 0 24 -2 18 -5z m157 -16 l25 -4 -26 -2 c-15 0 -33 7 -40 17 -12
15 -12 16 1 5 8 -6 26 -13 40 -16z m113 -7 c28 0 52 6 61 16 9 8 16 11 16 5 0
-17 -36 -31 -83 -31 -33 0 -49 5 -63 23 -19 22 -19 22 2 5 13 -12 37 -18 67
-18z m2407 -34 c0 -2 -7 -7 -16 -10 -8 -3 -12 -2 -9 4 6 10 25 14 25 6z m-43
-22 c-3 -3 -12 -4 -19 -1 -8 3 -5 6 6 6 11 1 17 -2 13 -5z m-24 -41 c-7 -2
-19 -2 -25 0 -7 3 -2 5 12 5 14 0 19 -2 13 -5z m-40 -22 c4 -16 -10 -24 -99
-56 -63 -22 -108 -45 -114 -56 -6 -10 -10 -82 -10 -160 0 -132 2 -144 22 -166
21 -22 21 -23 3 -62 -21 -48 -15 -91 22 -165 54 -109 86 -118 184 -54 35 22
87 52 114 64 44 21 50 22 53 8 2 -9 0 -19 -5 -24 -17 -15 -244 -130 -257 -130
-18 0 -61 55 -111 140 -31 54 -37 73 -36 116 1 28 -3 63 -8 77 -14 37 -41 249
-41 324 0 88 19 107 135 138 114 30 141 31 148 6z m97 -19 c0 -4 -18 -13 -40
-19 -23 -6 -38 -8 -35 -4 5 5 49 23 73 30 1 1 2 -3 2 -7z m-90 -26 c0 -15
-101 -292 -116 -317 -23 -39 -68 -74 -83 -65 -17 11 -15 300 2 314 15 12 165
71 185 71 6 1 12 -1 12 -3z m97 -93 c-2 -16 -4 -3 -4 27 0 30 2 43 4 28 2 -16
2 -40 0 -55z m-5 -165 c-6 -6 -7 0 -4 19 5 21 7 23 10 9 2 -10 0 -22 -6 -28z
m38 -12 c0 -3 -4 -8 -10 -11 -5 -3 -10 -1 -10 4 0 6 5 11 10 11 6 0 10 -2 10
-4z m-2623 -12 c-3 -3 -12 -4 -19 -1 -8 3 -5 6 6 6 11 1 17 -2 13 -5z m434
-21 c-12 -20 -14 -14 -5 12 4 9 9 14 11 11 3 -2 0 -13 -6 -23z m2214 17 c3 -5
1 -10 -4 -10 -6 0 -11 5 -11 10 0 6 2 10 4 10 3 0 8 -4 11 -10z m-3005 -27 c0
-16 -110 -486 -115 -491 -2 -2 -13 -1 -25 3 -17 5 -20 12 -16 28 4 12 27 117
51 232 25 116 47 220 50 231 4 17 10 20 30 16 14 -2 25 -11 25 -19z m403 20
c-7 -2 -19 -2 -25 0 -7 3 -2 5 12 5 14 0 19 -2 13 -5z m44 -9 c-3 -3 -12 -4
-19 -1 -8 3 -5 6 6 6 11 1 17 -2 13 -5z m2473 -9 c-7 -9 -15 -13 -19 -10 -3 3
1 10 9 15 21 14 24 12 10 -5z m-2870 -16 c0 -5 40 -49 89 -98 l88 -89 -44
-209 c-24 -114 -46 -213 -48 -220 -3 -9 -19 -8 -66 3 -34 8 -64 12 -66 10 -3
-2 22 -10 54 -17 71 -15 76 -19 64 -52 -8 -20 -17 -27 -38 -27 -28 0 -180 34
-188 42 -6 6 -9 137 -3 143 3 3 22 -2 43 -10 20 -9 39 -14 42 -12 2 3 -12 10
-31 17 -20 6 -38 15 -41 20 -3 5 22 122 55 260 33 139 60 254 60 256 0 2 7 1
15 -2 8 -4 15 -10 15 -15z m283 14 c-7 -2 -19 -2 -25 0 -7 3 -2 5 12 5 14 0
19 -2 13 -5z m164 1 c-3 -3 -12 -4 -19 -1 -8 3 -5 6 6 6 11 1 17 -2 13 -5z
m2503 2 c0 -2 -8 -10 -17 -17 -16 -13 -17 -12 -4 4 13 16 21 21 21 13z m-2617
-13 c-7 -2 -19 -2 -25 0 -7 3 -2 5 12 5 14 0 19 -2 13 -5z m2567 4 c0 -2 -10
-12 -22 -23 l-23 -19 19 23 c18 21 26 27 26 19z m-2517 -14 c-7 -2 -19 -2 -25
0 -7 3 -2 5 12 5 14 0 19 -2 13 -5z m138 -10 c13 -17 13 -17 -6 -3 -11 8 -22
16 -24 17 -2 2 0 3 6 3 6 0 17 -8 24 -17z m200 -10 c-12 -20 -14 -14 -5 12 4
9 9 14 11 11 3 -2 0 -13 -6 -23z m-638 10 c-7 -2 -19 -2 -25 0 -7 3 -2 5 12 5
14 0 19 -2 13 -5z m160 0 c-7 -2 -19 -2 -25 0 -7 3 -2 5 12 5 14 0 19 -2 13
-5z m184 1 c-3 -3 -12 -4 -19 -1 -8 3 -5 6 6 6 11 1 17 -2 13 -5z m-300 -10
c-3 -3 -12 -4 -19 -1 -8 3 -5 6 6 6 11 1 17 -2 13 -5z m191 -1 c-10 -2 -26 -2
-35 0 -10 3 -2 5 17 5 19 0 27 -2 18 -5z m149 1 c-3 -3 -12 -4 -19 -1 -8 3 -5
6 6 6 11 1 17 -2 13 -5z m2453 3 c0 -2 -10 -12 -22 -23 l-23 -19 19 23 c18 21
26 27 26 19z m-2747 -14 c-7 -2 -19 -2 -25 0 -7 3 -2 5 12 5 14 0 19 -2 13 -5z
m225 0 c-10 -2 -26 -2 -35 0 -10 3 -2 5 17 5 19 0 27 -2 18 -5z m108 -17 c6
-27 -6 -55 -33 -77 -12 -10 -11 -5 5 15 25 32 28 56 10 74 -9 9 -9 12 0 12 6
0 14 -11 18 -24z m31 -33 c-3 -10 -5 -2 -5 17 0 19 2 27 5 18 2 -10 2 -26 0
-35z m2421 18 c2 -13 0 -27 -5 -32 -6 -6 -8 2 -5 21 5 34 -3 37 -32 13 l-21
-18 19 23 c23 27 40 24 44 -7z m-2531 -23 c-3 -8 -6 -5 -6 6 -1 11 2 17 5 13
3 -3 4 -12 1 -19z m2210 -10 c-3 -8 -6 -5 -6 6 -1 11 2 17 5 13 3 -3 4 -12 1
-19z m-2223 -42 c-3 -15 -8 -25 -11 -23 -2 3 -1 17 3 31 3 15 8 25 11 23 2 -3
1 -17 -3 -31z m2516 30 c0 -2 -8 -10 -17 -17 -16 -13 -17 -12 -4 4 13 16 21
21 21 13z m-307 -21 c-3 -9 -8 -14 -10 -11 -3 3 -2 9 2 15 9 16 15 13 8 -4z
m-2103 2 c0 -2 -10 -12 -22 -23 l-23 -19 19 23 c18 21 26 27 26 19z m-67 -37
c-3 -12 -8 -19 -11 -16 -5 6 5 36 12 36 2 0 2 -9 -1 -20z m2162 0 c3 -5 1 -10
-4 -10 -6 0 -11 5 -11 10 0 6 2 10 4 10 3 0 8 -4 11 -10z m-2218 -32 c-3 -8
-6 -5 -6 6 -1 11 2 17 5 13 3 -3 4 -12 1 -19z m34 -29 c-5 -13 -10 -19 -10
-12 -1 15 10 45 15 40 3 -2 0 -15 -5 -28z m2186 9 c-3 -8 -6 -5 -6 6 -1 11 2
17 5 13 3 -3 4 -12 1 -19z m304 -3 c28 -15 32 -35 5 -35 -6 0 -51 -25 -100
-55 -108 -68 -136 -71 -170 -17 -50 77 -49 77 66 100 128 25 161 26 199 7z
m64 -5 c-3 -5 -12 -10 -18 -10 -7 0 -6 4 3 10 19 12 23 12 15 0z m-2531 -44
c-3 -15 -8 -25 -11 -23 -2 3 -1 17 3 31 3 15 8 25 11 23 2 -3 1 -17 -3 -31z
m-77 2 c-3 -8 -6 -5 -6 6 -1 11 2 17 5 13 3 -3 4 -12 1 -19z m2666 15 c-7 -2
-19 -2 -25 0 -7 3 -2 5 12 5 14 0 19 -2 13 -5z m145 -79 c48 -48 79 -81 70
-74 -15 10 -18 10 -18 -1 0 -8 -8 1 -17 19 -18 36 -89 102 -110 102 -8 0 -12
4 -8 9 3 6 -3 14 -12 20 -11 6 -13 11 -5 11 7 0 52 -39 100 -86z m-2851 44
c-3 -7 -5 -2 -5 12 0 14 2 19 5 13 2 -7 2 -19 0 -25z m2748 17 c6 -2 -10 -4
-35 -4 -25 0 -51 3 -59 8 -13 8 69 5 94 -4z m-2721 -49 c-3 -15 -8 -25 -11
-23 -2 3 -1 17 3 31 3 15 8 25 11 23 2 -3 1 -17 -3 -31z m43 12 c-3 -8 -6 -5
-6 6 -1 11 2 17 5 13 3 -3 4 -12 1 -19z m2656 5 c-7 -2 -21 -2 -30 0 -10 3 -4
5 12 5 17 0 24 -2 18 -5z m-56 -9 c-3 -3 -12 -4 -19 -1 -8 3 -5 6 6 6 11 1 17
-2 13 -5z m100 0 c-3 -3 -12 -4 -19 -1 -8 3 -5 6 6 6 11 1 17 -2 13 -5z m93
-91 c0 -7 -5 -13 -11 -13 -5 0 -7 5 -3 11 3 6 -11 30 -32 52 l-39 42 43 -40
c23 -21 42 -45 42 -52z m-1060 56 c23 -13 40 -31 43 -45 5 -29 6 -29 -42 -4
-26 13 -40 28 -43 45 -6 30 -5 30 42 4z m-1716 -23 c-3 -15 -8 -25 -11 -23 -2
3 -1 17 3 31 3 15 8 25 11 23 2 -3 1 -17 -3 -31z m158 -18 c-6 -6 -7 0 -4 19
5 21 7 23 10 9 2 -10 0 -22 -6 -28z m-238 -2 c-3 -15 -8 -25 -11 -23 -2 3 -1
17 3 31 3 15 8 25 11 23 2 -3 1 -17 -3 -31z m-37 -8 c-3 -8 -6 -5 -6 6 -1 11
2 17 5 13 3 -3 4 -12 1 -19z m-558 -46 c19 -16 22 -24 16 -50 -3 -18 -1 -48 5
-67 7 -20 9 -43 6 -52 -6 -13 -15 -8 -52 28 -44 43 -64 73 -84 123 -7 19 -4
30 11 50 l21 26 26 -20 c15 -11 38 -28 51 -38z m628 36 c-3 -8 -6 -5 -6 6 -1
11 2 17 5 13 3 -3 4 -12 1 -19z m1775 -12 c20 -11 39 -27 41 -37 7 -24 4 -24
-49 7 -24 14 -44 33 -44 41 0 8 3 13 8 11 4 -2 24 -12 44 -22z m-1748 -20 c-3
-15 -8 -25 -11 -23 -2 3 -1 17 3 31 3 15 8 25 11 23 2 -3 1 -17 -3 -31z m2756
14 c-8 -5 -19 -10 -25 -10 -5 0 -3 5 5 10 8 5 20 10 25 10 6 0 3 -5 -5 -10z
m-2833 -22 c-3 -8 -6 -5 -6 6 -1 11 2 17 5 13 3 -3 4 -12 1 -19z m2878 6 c-19
-15 -18 -16 15 -10 l35 6 -35 -14 c-41 -17 -61 -20 -40 -6 13 9 13 10 0 10 -9
1 -5 6 10 15 33 19 40 18 15 -1z m75 6 c0 -5 -5 -10 -11 -10 -5 0 -7 5 -4 10
3 6 8 10 11 10 2 0 4 -4 4 -10z m-2993 -32 c-3 -8 -6 -5 -6 6 -1 11 2 17 5 13
3 -3 4 -12 1 -19z m1870 -8 c40 -24 53 -43 53 -83 0 -16 -5 -15 -50 9 -27 15
-50 30 -50 34 0 4 -3 22 -7 40 -7 36 -6 36 54 0z m-1800 -2 c-3 -8 -6 -5 -6 6
-1 11 2 17 5 13 3 -3 4 -12 1 -19z m-43 -22 c-3 -15 -8 -25 -11 -23 -2 3 -1
17 3 31 3 15 8 25 11 23 2 -3 1 -17 -3 -31z m2806 24 c-8 -5 -19 -10 -25 -10
-5 0 -3 5 5 10 8 5 20 10 25 10 6 0 3 -5 -5 -10z m-3304 -11 c10 -17 12 -135
3 -151 -15 -24 -27 5 -34 85 -6 66 -5 77 8 77 9 0 19 -5 23 -11z m3334 1 c-8
-5 -19 -10 -25 -10 -5 0 -3 5 5 10 8 5 20 10 25 10 6 0 3 -5 -5 -10z m87 -6
c-3 -3 -12 -4 -19 -1 -8 3 -5 6 6 6 11 1 17 -2 13 -5z m-171 -26 c-9 -5 -21
-6 -26 -3 -6 3 -10 2 -10 -2 0 -5 -18 -17 -40 -27 -43 -19 -64 -47 -56 -74 3
-9 31 -44 61 -77 30 -32 55 -61 55 -63 0 -21 -189 122 -190 143 0 22 185 126
208 117 12 -4 11 -7 -2 -14z m124 12 c-8 -5 -19 -10 -25 -10 -5 0 -3 5 5 10 8
5 20 10 25 10 6 0 3 -5 -5 -10z m81 -7 c13 -16 12 -17 -3 -4 -17 13 -22 21
-14 21 2 0 10 -8 17 -17z m-2894 -15 c-3 -8 -6 -5 -6 6 -1 11 2 17 5 13 3 -3
4 -12 1 -19z m-717 -8 c0 -5 23 -32 52 -61 46 -46 50 -54 42 -77 -7 -20 -18
-28 -45 -32 -49 -8 -59 -16 -81 -67 -15 -34 -21 -77 -25 -165 -5 -108 -4 -120
13 -132 29 -22 5 -56 -66 -95 l-61 -33 6 38 c26 152 60 298 96 409 22 72 43
132 46 135 2 3 13 -6 24 -20 15 -19 14 -12 -6 29 -25 51 -27 81 -5 81 5 0 10
-4 10 -10z m677 -22 c-3 -7 -5 -2 -5 12 0 14 2 19 5 13 2 -7 2 -19 0 -25z
m2120 0 c-3 -7 -5 -2 -5 12 0 14 2 19 5 13 2 -7 2 -19 0 -25z m653 22 c-8 -5
-19 -10 -25 -10 -5 0 -3 5 5 10 8 5 20 10 25 10 6 0 3 -5 -5 -10z m173 -46
c-78 -32 -160 -84 -195 -123 l-30 -34 -49 49 c-53 52 -67 80 -51 96 8 8 9 4 5
-11 -3 -11 -3 -21 0 -21 2 0 38 15 78 33 131 60 145 63 182 34 27 -20 36 -22
57 -14 35 15 34 15 19 34 -11 14 -9 14 12 -2 l26 -19 -54 -22z m-2951 6 c14 0
9 -37 -9 -51 -15 -13 -15 -12 -6 6 8 15 8 27 -3 45 -7 14 -13 30 -13 35 0 6 5
0 11 -12 6 -13 15 -23 20 -23z m38 -15 c0 -25 -3 -45 -8 -45 -4 0 -6 20 -4 45
2 25 6 45 8 45 2 0 4 -20 4 -45z m1800 18 c36 -20 49 -34 52 -55 3 -15 3 -28
0 -28 -6 0 -102 71 -102 75 0 2 -3 10 -6 19 -8 22 1 20 56 -11z m890 17 c-8
-5 -19 -10 -25 -10 -5 0 -3 5 5 10 8 5 20 10 25 10 6 0 3 -5 -5 -10z m-50 -20
c-8 -5 -19 -10 -25 -10 -5 0 -3 5 5 10 8 5 20 10 25 10 6 0 3 -5 -5 -10z
m-543 -32 c-3 -7 -5 -2 -5 12 0 14 2 19 5 13 2 -7 2 -19 0 -25z m-2177 -13
c-7 -8 -18 -15 -24 -15 -6 0 -3 5 7 11 9 5 17 18 18 27 0 11 2 12 6 4 3 -7 -1
-19 -7 -27z m-157 -2 c-7 -2 -19 -2 -25 0 -7 3 -2 5 12 5 14 0 19 -2 13 -5z
m284 1 c-3 -3 -12 -4 -19 -1 -8 3 -5 6 6 6 11 1 17 -2 13 -5z m1776 -34 c32
-22 49 -50 30 -50 -13 0 -73 51 -84 71 -12 23 -13 24 54 -21z m-1980 23 c-7
-2 -19 -2 -25 0 -7 3 -2 5 12 5 14 0 19 -2 13 -5z m2264 -25 c-3 -7 -5 -2 -5
12 0 14 2 19 5 13 2 -7 2 -19 0 -25z m-2667 -30 c0 -23 -4 -29 -16 -24 -9 3
-20 6 -24 6 -5 0 -4 13 1 29 13 38 39 30 39 -11z m597 36 c-3 -3 -12 -4 -19
-1 -8 3 -5 6 6 6 11 1 17 -2 13 -5z m-163 -29 c-9 -14 -24 -25 -33 -24 -13 0
-14 2 -1 6 24 10 31 27 12 35 -12 5 -10 7 11 7 27 1 27 1 11 -24z m66 6 c0
-11 -5 -23 -11 -27 -8 -4 -9 1 -4 16 5 15 4 20 -4 16 -6 -4 -11 -14 -11 -22 0
-8 -5 -14 -11 -14 -5 0 -7 6 -3 13 24 41 44 49 44 18z m34 8 c-3 -6 0 -15 7
-20 11 -7 10 -9 -3 -9 -11 0 -18 8 -18 20 0 11 5 20 11 20 5 0 7 -5 3 -11z
m2841 -9 c4 -6 -12 -29 -35 -51 -36 -36 -111 -140 -123 -172 -3 -8 -8 -9 -15
-2 -17 16 40 127 94 185 46 49 67 60 79 40z m-3332 -7 c-18 -7 -16 -21 5 -26
13 -4 11 -5 -5 -6 -17 -1 -23 5 -23 19 0 13 6 20 18 19 10 0 12 -3 5 -6z
m2427 -85 c47 -30 129 -74 182 -97 56 -25 95 -48 91 -54 -3 -6 -1 -7 6 -3 16
10 103 -42 95 -56 -5 -7 -2 -8 5 -4 7 5 51 -18 109 -57 53 -35 134 -83 180
-106 136 -68 362 -119 482 -107 114 10 242 63 273 113 l17 28 -2 -55 c-2 -37
-7 -54 -15 -53 -8 2 -10 -4 -6 -14 5 -13 2 -15 -11 -10 -10 4 -15 3 -11 -3 10
-17 -51 -39 -152 -56 -187 -31 -393 -8 -546 60 -78 34 -209 125 -201 138 4 7
3 8 -4 4 -7 -4 -33 7 -58 25 -46 31 -325 169 -374 184 -14 4 -57 23 -96 42
-84 39 -103 71 -96 157 2 19 3 19 25 -1 12 -12 60 -45 107 -75z m207 60 c-3
-7 -5 -2 -5 12 0 14 2 19 5 13 2 -7 2 -19 0 -25z m741 -28 c12 -16 22 -31 22
-34 0 -3 -24 -32 -54 -66 -29 -33 -61 -76 -70 -95 l-17 -35 -32 23 c-18 12
-33 23 -35 23 -18 9 133 214 157 214 4 0 17 -13 29 -30z m-3378 -1 c47 -6 92
-16 100 -21 12 -7 11 -8 -4 -4 -31 10 -192 19 -219 12 -17 -4 -30 -18 -41 -46
-20 -50 -22 -163 -2 -179 7 -6 69 -18 136 -26 99 -13 126 -19 137 -35 7 -10
26 -20 41 -22 15 -2 -63 -2 -172 -1 -109 1 -203 6 -208 11 -14 14 8 235 27
276 19 39 48 56 90 51 17 -2 68 -9 115 -16z m73 14 c-7 -2 -21 -2 -30 0 -10 3
-4 5 12 5 17 0 24 -2 18 -5z m50 -10 c-7 -2 -19 -2 -25 0 -7 3 -2 5 12 5 14 0
19 -2 13 -5z m257 -18 c0 -21 -4 -25 -27 -24 -25 2 -26 2 -5 6 18 3 23 10 19
24 -3 10 -1 19 4 19 5 0 9 -11 9 -25z m50 8 c0 -15 -2 -15 -9 -4 -7 11 -10 10
-14 -5 -4 -16 -5 -16 -6 4 -1 13 5 22 14 22 8 0 15 -8 15 -17z m37 -5 c2 -18
0 -20 -7 -8 -12 18 -13 30 -2 30 4 0 9 -10 9 -22z m2180 -10 c-3 -7 -5 -2 -5
12 0 14 2 19 5 13 2 -7 2 -19 0 -25z m-2454 15 c-7 -2 -21 -2 -30 0 -10 3 -4
5 12 5 17 0 24 -2 18 -5z m50 -10 c-7 -2 -19 -2 -25 0 -7 3 -2 5 12 5 14 0 19
-2 13 -5z m-226 -14 c52 -6 107 -15 122 -21 14 -6 28 -11 31 -10 3 0 6 -18 8
-40 2 -29 -6 -54 -30 -99 -32 -57 -34 -59 -73 -58 -22 0 -83 6 -135 12 l-95
12 -3 60 c-6 104 14 155 59 155 11 0 63 -5 116 -11z m286 4 c-7 -2 -21 -2 -30
0 -10 3 -4 5 12 5 17 0 24 -2 18 -5z m131 -54 c-9 -10 -29 -18 -43 -18 l-26 2
25 4 c36 7 51 23 45 47 -5 19 -5 19 5 3 9 -15 8 -22 -6 -38z m-207 35 c-3 -3
-12 -4 -19 -1 -8 3 -5 6 6 6 11 1 17 -2 13 -5z m178 -13 c-3 -6 -11 -11 -16
-11 -5 0 -4 6 3 14 14 16 24 13 13 -3z m72 -13 c-3 -7 -5 -2 -5 12 0 14 2 19
5 13 2 -7 2 -19 0 -25z m2180 0 c-3 -7 -5 -2 -5 12 0 14 2 19 5 13 2 -7 2 -19
0 -25z m-2342 13 c33 -6 36 -8 19 -14 -11 -4 -38 -1 -60 7 -43 16 -23 19 41 7z
m3126 -106 c-21 -22 -50 -57 -65 -77 l-27 -37 -35 21 c-19 11 -34 26 -34 33 0
18 46 84 93 133 l42 42 32 -37 32 -38 -38 -40z m-3206 85 c13 -5 14 -9 5 -9
-8 0 -24 4 -35 9 -13 5 -14 9 -5 9 8 0 24 -4 35 -9z m235 -14 c0 -2 -8 -10
-17 -17 -16 -13 -17 -12 -4 4 13 16 21 21 21 13z m2211 -11 c7 17 8 17 8 -7 1
-20 -3 -26 -14 -22 -8 4 -14 16 -14 28 1 20 2 20 7 1 l5 -20 8 20z m36 -17
c-3 -7 -5 -2 -5 12 0 14 2 19 5 13 2 -7 2 -19 0 -25z m-2370 6 c-3 -3 -12 -4
-19 -1 -8 3 -5 6 6 6 11 1 17 -2 13 -5z m40 -10 c-3 -3 -12 -4 -19 -1 -8 3 -5
6 6 6 11 1 17 -2 13 -5z m2460 -36 c-3 -8 -6 -5 -6 6 -1 11 2 17 5 13 3 -3 4
-12 1 -19z m644 -67 c-15 -20 -35 -48 -44 -64 -17 -26 -19 -27 -47 -12 -17 9
-30 19 -30 23 0 5 25 39 56 76 l56 68 18 -28 c19 -27 19 -28 -9 -63z m-731 64
c17 -9 30 -18 30 -21 0 -4 -59 23 -69 32 -10 9 13 3 39 -11z m133 -84 c26 -17
47 -34 47 -37 0 -2 -25 12 -55 32 -30 20 -55 42 -55 48 0 8 3 8 8 0 4 -6 28
-25 55 -43z m652 9 c14 -28 14 -33 -5 -69 -19 -39 -20 -39 -55 -28 -26 8 -34
15 -30 26 6 14 67 100 72 101 1 0 9 -13 18 -30z m-3362 -27 c-7 -2 -21 -2 -30
0 -10 3 -4 5 12 5 17 0 24 -2 18 -5z m54 -9 c-3 -3 -12 -4 -19 -1 -8 3 -5 6 6
6 11 1 17 -2 13 -5z m-74 -21 c-7 -2 -21 -2 -30 0 -10 3 -4 5 12 5 17 0 24 -2
18 -5z m3413 -39 c-3 -8 -12 -14 -21 -14 -14 0 -13 4 2 33 13 25 18 28 21 14
2 -10 1 -25 -2 -33z m-3353 29 c-7 -2 -19 -2 -25 0 -7 3 -2 5 12 5 14 0 19 -2
13 -5z m152 -24 c19 -17 35 -36 35 -42 0 -6 -7 -1 -16 12 -9 12 -30 31 -48 42
-17 10 -26 19 -19 19 7 0 28 -14 48 -31z m2712 9 c-3 -8 -6 -5 -6 6 -1 11 2
17 5 13 3 -3 4 -12 1 -19z m-67 -10 c0 -5 -9 -4 -20 2 -11 6 -20 12 -20 14 0
2 9 2 20 -1 11 -3 20 -9 20 -15z m-2723 6 c-3 -3 -12 -4 -19 -1 -8 3 -5 6 6 6
11 1 17 -2 13 -5z m2773 -24 c8 12 10 10 10 -8 0 -20 -2 -21 -20 -10 -11 7
-20 22 -19 33 0 17 2 17 10 -5 8 -20 12 -22 19 -10z m-2857 13 c-7 -2 -19 -2
-25 0 -7 3 -2 5 12 5 14 0 19 -2 13 -5z m122 -11 c-3 -3 -11 0 -18 7 -9 10 -8
11 6 5 10 -3 15 -9 12 -12z m-489 -8 c-3 -9 -6 -31 -6 -50 0 -20 -5 -34 -12
-34 -43 0 -97 -27 -145 -72 -54 -52 -57 -52 -47 0 5 25 19 39 76 72 38 23 71
48 74 56 2 8 6 21 9 29 2 8 16 15 31 15 20 0 25 -4 20 -16z m270 10 c20 -4 39
-20 62 -55 17 -27 32 -50 32 -53 0 -2 -26 3 -57 11 -35 9 -106 15 -178 15
l-120 0 4 44 3 44 113 0 c62 0 125 -3 141 -6z m147 -1 c-7 -2 -19 -2 -25 0 -7
3 -2 5 12 5 14 0 19 -2 13 -5z m57 -18 c17 -9 30 -18 30 -21 0 -4 -59 23 -69
32 -10 9 13 3 39 -11z m60 -29 c0 -12 -5 -7 -19 24 -11 24 -11 24 3 6 9 -11
16 -24 16 -30z m-183 28 c-3 -3 -12 -4 -19 -1 -8 3 -5 6 6 6 11 1 17 -2 13 -5z
m46 -11 c-7 -2 -19 -2 -25 0 -7 3 -2 5 12 5 14 0 19 -2 13 -5z m76 -27 c11
-13 5 -72 -8 -81 -4 -2 -13 1 -21 7 -13 8 -12 9 1 5 25 -8 36 53 12 70 -9 7
-12 13 -6 13 6 0 16 -6 22 -14z m98 -38 c-2 -13 -4 -5 -4 17 -1 22 1 32 4 23
2 -10 2 -28 0 -40z m-61 -8 c-4 -32 -3 -50 4 -50 5 0 11 15 11 33 2 31 2 32 6
3 5 -33 -7 -49 -30 -40 -12 4 -14 11 -6 31 5 13 9 35 9 49 0 13 3 24 6 24 4 0
4 -22 0 -50z m171 18 c-3 -8 -6 -5 -6 6 -1 11 2 17 5 13 3 -3 4 -12 1 -19z
m-551 -25 c-2 -15 -17 -19 -73 -24 -69 -7 -152 -36 -184 -65 -15 -13 -17 -13
-22 6 -9 34 57 70 155 85 117 18 127 18 124 -2z m431 -45 c-3 -7 -5 -2 -5 12
0 14 2 19 5 13 2 -7 2 -19 0 -25z m110 -15 c-3 -10 -5 -2 -5 17 0 19 2 27 5
18 2 -10 2 -26 0 -35z m-541 -22 l1 -49 -62 -6 c-34 -3 -94 -17 -134 -31 l-71
-24 0 24 c0 13 -2 30 -5 38 -12 30 141 93 235 96 l35 1 1 -49z m445 2 c13 -15
12 -15 -8 -4 -24 12 -29 21 -14 21 5 0 15 -7 22 -17z m82 -36 c3 11 5 7 6 -10
l1 -28 -35 27 c-42 32 -47 44 -6 15 27 -20 30 -20 34 -4z m-526 -82 l0 -45
-61 0 c-34 0 -88 -7 -120 -15 -33 -9 -60 -14 -61 -13 -2 2 -6 17 -9 34 -7 32
-7 32 56 52 82 27 94 29 149 31 l46 1 0 -45z m0 -107 l2 -46 -62 -1 c-34 0
-83 -7 -109 -14 l-46 -14 -5 26 c-3 14 -9 34 -12 43 -9 23 27 37 115 47 114
12 115 12 117 -41z m-266 -227 c101 -194 147 -233 273 -234 63 0 80 4 134 33
100 53 264 191 311 261 23 34 41 68 41 77 0 8 3 13 6 9 10 -10 -22 -93 -55
-141 -31 -45 -225 -216 -304 -269 -23 -15 -59 -32 -81 -38 -59 -16 -154 -13
-183 6 -30 20 -95 120 -163 250 -40 79 -52 113 -56 160 l-4 60 15 -38 c8 -21
37 -82 66 -136z m267 129 l0 -40 -57 0 c-31 0 -72 -3 -91 -6 -32 -5 -37 -3
-48 22 -15 32 -7 40 48 50 19 3 40 7 45 9 6 2 31 4 57 4 l47 1 -1 -40z m-31
-56 c27 -5 29 -9 29 -47 l0 -42 -72 -1 -71 -1 -16 36 c-9 19 -14 37 -11 40 4
4 62 15 100 20 6 0 25 -2 41 -5z m27 -136 c2 -27 0 -28 -54 -28 -49 0 -56 3
-66 25 -7 13 -9 27 -6 30 4 3 33 5 66 3 57 -3 59 -4 60 -30z m-29 -48 c4 -6
-7 -10 -25 -10 -18 0 -29 4 -25 10 3 6 15 10 25 10 10 0 22 -4 25 -10z"/>
<path d="M5015 12596 c-22 -7 -53 -20 -70 -30 -16 -9 -21 -14 -10 -10 11 4 49
18 85 30 68 24 64 32 -5 10z"/>
<path d="M5238 12463 c7 -3 16 -2 19 1 4 3 -2 6 -13 5 -11 0 -14 -3 -6 -6z"/>
<path d="M4661 11946 c-6 -25 -11 -53 -10 -63 0 -10 7 9 15 41 8 33 13 61 10
63 -2 2 -9 -16 -15 -41z"/>
<path d="M4413 11945 c0 -22 2 -30 4 -17 2 12 2 30 0 40 -3 9 -5 -1 -4 -23z"/>
<path d="M4611 11904 c0 -11 3 -14 6 -6 3 7 2 16 -1 19 -3 4 -6 -2 -5 -13z"/>
<path d="M5065 11859 c-9 -17 -15 -33 -13 -35 3 -2 12 12 21 31 21 43 13 47
-8 4z"/>
<path d="M4642 11840 c0 -14 2 -19 5 -12 2 6 2 18 0 25 -3 6 -5 1 -5 -13z"/>
<path d="M4791 11704 c0 -11 3 -14 6 -6 3 7 2 16 -1 19 -3 4 -6 -2 -5 -13z"/>
<path d="M4661 11544 c0 -11 3 -14 6 -6 3 7 2 16 -1 19 -3 4 -6 -2 -5 -13z"/>
<path d="M4671 11510 c0 -8 4 -22 9 -30 12 -18 12 -2 0 25 -6 13 -9 15 -9 5z"/>
<path d="M4665 11300 c-20 -39 -19 -55 6 -90 12 -16 19 -36 16 -44 -6 -15 47
-76 65 -76 13 0 31 42 20 49 -5 3 -12 17 -13 30 -2 14 -11 27 -19 29 -13 5
-13 3 -1 -12 10 -12 11 -20 3 -28 -8 -8 -7 -15 6 -24 9 -7 14 -15 10 -19 -13
-14 -57 30 -58 56 0 15 -9 38 -21 53 -19 24 -20 30 -8 57 6 17 22 35 33 39 21
9 21 9 -1 9 -15 1 -28 -9 -38 -29z"/>
<path d="M5590 10959 c-13 -9 -13 -10 1 -6 9 3 22 0 28 -6 8 -8 11 -8 11 2 0
9 5 8 16 -3 17 -17 34 -21 34 -8 0 10 -45 32 -63 32 -7 0 -19 -5 -27 -11z"/>
<path d="M5502 10925 c-1 -11 3 -42 7 -68 10 -62 -2 -68 -65 -33 -26 14 -48
26 -51 26 -2 0 3 -13 11 -29 13 -23 23 -30 57 -33 66 -6 74 5 56 88 -8 38 -15
60 -15 49z m-57 -115 c3 -5 2 -10 -4 -10 -5 0 -13 5 -16 10 -3 6 -2 10 4 10 5
0 13 -4 16 -10z"/>
<path d="M5320 10803 c8 -3 36 -14 63 -24 26 -10 47 -16 47 -13 0 9 -84 44
-105 43 -14 0 -16 -2 -5 -6z"/>
<path d="M5328 10723 c6 -2 18 -2 25 0 6 3 1 5 -13 5 -14 0 -19 -2 -12 -5z"/>
<path d="M5798 12433 c6 -2 18 -2 25 0 6 3 1 5 -13 5 -14 0 -19 -2 -12 -5z"/>
<path d="M6221 11684 c0 -11 3 -14 6 -6 3 7 2 16 -1 19 -3 4 -6 -2 -5 -13z"/>
<path d="M5204 11219 c-8 -14 11 -33 25 -25 16 10 13 36 -3 36 -8 0 -18 -5
-22 -11z"/>
<path d="M5221 10444 c-6 -15 -9 -29 -7 -32 3 -2 10 8 16 23 14 36 7 43 -9 9z"/>
<path d="M5480 9349 l-42 -92 68 -68 69 -69 47 92 46 93 -66 68 c-37 37 -69
67 -73 67 -3 0 -25 -41 -49 -91z m131 -125 c-49 -97 -53 -93 -7 7 l35 74 -57
60 -57 60 63 -61 64 -61 -41 -79z"/>
<path d="M5380 8410 l0 -120 118 0 119 0 7 112 c5 86 4 113 -6 120 -7 4 -64 8
-125 8 l-113 0 0 -120z"/>
<path d="M4836 8277 c5 -26 21 -43 21 -22 0 8 -5 15 -10 15 -5 0 -5 6 2 13 8
10 7 14 -3 14 -9 0 -13 -8 -10 -20z"/>
<path d="M4791 8258 c-10 -18 -11 -20 0 -10 16 15 33 16 23 0 -4 -7 -3 -8 5
-4 9 6 9 11 0 22 -14 17 -12 18 -28 -8z"/>
<path d="M4501 8261 c-17 -11 -23 -39 -10 -47 5 -3 8 -2 7 3 -1 4 3 18 10 31
14 24 13 26 -7 13z"/>
<path d="M4963 8264 c4 -4 -1 -17 -10 -28 l-18 -21 25 20 c14 11 26 20 28 21
2 1 -5 5 -15 8 -9 4 -14 4 -10 0z"/>
<path d="M5077 8253 c3 -7 6 -13 8 -13 2 0 5 6 8 13 3 8 -1 14 -8 14 -7 0 -11
-6 -8 -14z"/>
<path d="M4527 8233 c3 -7 6 -13 8 -13 2 0 5 6 8 13 3 8 -1 14 -8 14 -7 0 -11
-6 -8 -14z"/>
<path d="M4767 8229 c7 -7 15 -10 18 -7 3 3 -2 9 -12 12 -14 6 -15 5 -6 -5z"/>
<path d="M4608 8223 c7 -3 16 -2 19 1 4 3 -2 6 -13 5 -11 0 -14 -3 -6 -6z"/>
<path d="M5926 8498 c-2 -7 -9 -67 -16 -132 -6 -66 -13 -128 -16 -139 -2 -11
0 -17 3 -13 8 8 7 3 22 141 7 61 13 120 15 133 3 24 -2 30 -8 10z"/>
<path d="M5740 2006 c0 -3 9 -10 20 -16 11 -6 20 -8 20 -6 0 3 -9 10 -20 16
-11 6 -20 8 -20 6z"/>
</g>
</svg>
