<?xml version="1.0" standalone="no"?>
<!DOCTYPE svg PUBLIC "-//W3C//DTD SVG 20010904//EN"
 "http://www.w3.org/TR/2001/REC-SVG-20010904/DTD/svg10.dtd">
<svg version="1.0" xmlns="http://www.w3.org/2000/svg"
 width="840.000000pt" height="859.000000pt" viewBox="0 0 840.000000 859.000000"
 preserveAspectRatio="xMidYMid meet">

<g transform="translate(0.000000,859.000000) scale(0.100000,-0.100000)"
fill="#000000" stroke="none">
<path d="M3437 8488 c55 -236 113 -503 110 -511 -4 -13 -57 53 -148 182 -35
50 -66 91 -69 91 -3 0 0 -84 7 -187 7 -103 11 -188 9 -190 -1 -2 -50 18 -107
43 -57 25 -114 50 -127 55 -27 10 -31 19 64 -146 59 -103 131 -275 116 -275
-7 0 -89 31 -211 79 -33 14 -50 17 -44 9 5 -7 45 -60 88 -118 92 -123 95 -127
95 -114 0 6 -31 53 -69 105 -38 52 -67 96 -65 98 2 2 51 -16 109 -39 77 -31
112 -51 130 -73 31 -41 42 -30 12 11 -13 17 -39 75 -57 129 -19 54 -62 146
-97 206 -34 59 -61 107 -59 107 11 0 213 -94 222 -103 6 -7 26 -55 43 -107
l31 -94 -50 49 -49 48 34 -113 c41 -136 44 -144 51 -137 3 3 -4 38 -16 79 -12
40 -24 81 -27 91 -3 11 27 -14 67 -55 63 -64 87 -78 40 -23 -9 11 -36 76 -60
145 -35 103 -44 145 -51 240 -5 63 -11 141 -14 173 -4 39 -3 57 4 53 5 -4 36
-44 68 -89 31 -45 77 -103 100 -128 35 -37 56 -78 113 -223 61 -154 118 -266
136 -266 3 0 -8 24 -25 54 -54 94 -168 396 -186 492 -9 49 -36 174 -61 278
-25 104 -43 190 -40 193 9 9 323 -219 378 -274 31 -32 83 -103 117 -158 56
-92 61 -105 61 -158 0 -32 -4 -66 -9 -75 -5 -9 -6 -35 -2 -57 6 -36 8 -37 13
-15 4 14 10 93 14 175 3 83 10 156 13 163 5 9 19 -9 41 -50 68 -129 102 -189
107 -184 7 6 -150 306 -159 306 -5 0 -8 -15 -9 -32 0 -29 -6 -22 -44 57 -51
102 -50 81 2 -44 20 -49 33 -96 31 -114 -3 -29 -6 -27 -52 49 -44 70 -53 97
-86 237 -20 87 -34 156 -31 155 3 -2 77 -75 163 -163 155 -158 157 -161 218
-285 34 -69 59 -111 56 -95 -22 124 -57 357 -53 361 6 6 191 -206 216 -247 13
-21 21 -27 21 -17 0 9 -24 45 -52 80 -99 119 -202 237 -206 233 -2 -2 6 -67
17 -145 12 -78 21 -149 21 -158 -1 -9 -17 14 -36 51 -27 53 -73 107 -212 251
-97 101 -178 181 -180 177 -1 -4 13 -73 33 -154 19 -81 35 -155 35 -165 -1
-11 -18 2 -53 40 -29 32 -127 109 -225 177 -95 67 -175 121 -177 121 -2 0 3
-28 12 -62z"/>
<path d="M3847 8059 c11 -19 46 -78 78 -132 32 -54 60 -96 62 -93 6 6 -136
244 -150 253 -6 4 -2 -9 10 -28z"/>
<path d="M4322 8055 c0 -5 6 -26 13 -45 7 -19 14 -28 14 -20 0 8 -6 29 -14 45
-7 17 -13 26 -13 20z"/>
<path d="M4501 7900 c41 -110 43 -120 31 -120 -5 0 -31 36 -58 80 -27 44 -53
80 -57 80 -10 0 -11 2 66 -124 54 -88 62 -110 83 -209 21 -107 22 -114 6 -211
-10 -66 -22 -111 -35 -128 -12 -16 -38 -67 -58 -115 -44 -100 -44 -100 -24 22
8 50 14 124 13 165 -1 48 -3 59 -5 30 -12 -162 -65 -461 -79 -448 -2 2 1 69 7
149 14 206 4 421 -23 481 l-21 46 20 156 c21 169 14 215 -9 64 l-15 -93 -18
63 c-10 34 -22 62 -26 62 -11 0 -13 9 16 -95 42 -153 31 -166 -35 -39 -24 47
-46 81 -48 75 -2 -6 29 -72 69 -148 l72 -137 -1 -245 c0 -135 -4 -279 -9 -320
l-8 -73 -37 78 c-24 52 -45 123 -63 209 -25 126 -75 299 -83 290 -2 -2 8 -43
21 -92 23 -80 67 -280 67 -305 0 -24 -28 15 -34 47 -10 53 -37 137 -42 132 -3
-2 1 -32 9 -66 17 -74 10 -71 -60 27 -48 67 -132 258 -134 302 0 23 -1 23 -8
5 -5 -11 -5 -31 -1 -45 18 -62 75 -198 94 -225 l21 -30 -36 28 c-20 15 -43 27
-51 27 -10 0 -39 42 -73 105 -32 58 -60 103 -63 101 -2 -3 19 -48 47 -102 l51
-96 -32 6 c-17 3 -32 7 -33 9 -1 1 -26 40 -55 86 -30 46 -56 79 -58 73 -2 -6
17 -43 42 -82 25 -39 46 -74 46 -79 0 -4 -12 -13 -26 -20 -21 -9 -30 -9 -43 2
-9 7 -44 37 -79 67 -89 76 -88 55 2 -26 42 -38 76 -71 76 -74 0 -3 -4 -11 -9
-19 -7 -11 -21 -4 -67 37 -32 28 -61 48 -64 46 -3 -3 22 -29 54 -58 58 -51 59
-53 53 -95 -3 -23 -8 -45 -10 -48 -3 -2 -23 7 -44 21 -56 39 -63 31 -10 -10
26 -20 47 -41 47 -46 0 -5 -42 13 -92 40 l-93 48 -62 104 c-34 58 -68 121 -74
140 -13 38 -29 62 -29 41 0 -7 -4 -9 -10 -6 -16 10 -12 -10 8 -36 16 -22 98
-160 109 -184 7 -13 -94 90 -135 140 -33 39 -33 40 -15 6 10 -19 50 -69 90
-111 l72 -77 -82 20 -83 20 -48 74 c-44 66 -66 88 -66 64 0 -5 -10 -12 -22
-16 -20 -7 -18 -8 15 -14 31 -5 42 -13 61 -48 20 -35 22 -42 9 -45 -11 -2 0
-23 41 -75 32 -40 52 -73 46 -73 -6 0 -41 24 -78 53 -67 53 -143 107 -172 121
-20 10 -4 -4 90 -76 41 -32 86 -66 99 -76 l23 -19 -47 -6 c-26 -4 -80 -7 -119
-8 l-71 0 110 -42 c117 -44 247 -115 239 -129 -3 -4 -25 -8 -48 -8 -24 0 -58
-3 -76 -7 -32 -6 -29 -9 91 -69 84 -43 116 -63 99 -64 -59 -1 -46 -17 53 -62
56 -26 118 -49 137 -53 19 -3 43 -12 53 -19 16 -13 17 -19 6 -55 -14 -47 -21
-50 -113 -61 -59 -7 -73 -5 -102 12 -30 18 -48 20 -137 16 -129 -5 -186 -29
-283 -121 l-69 -65 -22 -103 c-17 -82 -20 -123 -16 -194 6 -89 6 -91 49 -141
24 -28 44 -56 44 -62 0 -35 60 -163 98 -210 24 -30 55 -79 68 -108 13 -30 31
-57 39 -60 8 -3 28 -49 45 -102 28 -85 37 -101 83 -145 29 -27 80 -66 115 -88
100 -61 158 -118 172 -166 9 -29 18 -43 30 -43 32 0 208 68 376 145 16 8 50
17 73 21 l43 7 -19 -39 c-25 -50 -19 -73 18 -81 16 -3 34 -12 40 -19 6 -8 24
-14 40 -14 36 0 61 13 126 65 17 14 44 27 60 29 15 2 41 9 57 15 16 7 35 10
41 7 7 -2 23 1 36 8 44 23 113 36 120 24 4 -6 21 33 38 87 29 93 30 104 25
214 -6 111 -5 118 18 151 41 61 77 162 89 254 l12 88 -41 82 c-22 44 -45 92
-51 106 l-10 25 0 -28 c-1 -15 17 -64 40 -109 l41 -82 -11 -90 c-7 -50 -16
-95 -21 -100 -4 -4 -11 27 -15 70 -5 53 -17 100 -36 142 -23 51 -26 68 -19 90
10 26 10 26 -6 7 -16 -20 -16 -20 -12 0 4 15 0 21 -13 22 -12 1 -19 -5 -19
-16 0 -9 -13 -37 -28 -62 -24 -36 -40 -48 -90 -68 -34 -13 -62 -27 -62 -31 0
-5 -43 -52 -96 -106 -95 -97 -191 -206 -227 -259 -50 -71 -14 37 40 123 18 29
33 55 33 58 0 14 105 136 181 211 46 45 111 109 143 142 32 34 65 61 72 61 30
0 10 23 -76 87 -114 85 -93 98 34 22 47 -28 89 -49 93 -45 8 8 14 3 -90 66
-79 46 -93 52 -129 47 -32 -4 -57 2 -117 28 -102 45 -103 57 -18 169 56 73 70
100 105 208 22 67 50 143 61 168 19 43 19 51 6 148 l-13 103 39 124 40 124 -3
153 -3 153 -22 -45 -21 -45 -1 99 c-1 93 -4 105 -48 217 -27 66 -51 119 -55
119 -4 0 -10 -25 -14 -56 -7 -63 -12 -61 -43 16 -37 90 -45 82 -10 -10z m115
-90 l38 -95 0 -200 c0 -150 -3 -215 -15 -260 l-16 -60 -12 42 c-6 23 -16 43
-22 45 -8 3 -8 33 1 109 12 98 12 111 -10 219 -13 63 -24 140 -24 170 0 54 12
135 19 129 2 -2 20 -47 41 -99z m93 -413 c1 -62 -6 -101 -30 -180 -50 -162
-64 -155 -30 14 10 52 22 128 26 169 3 41 9 86 13 100 l6 25 7 -25 c4 -14 7
-60 8 -103z m-88 -322 c31 -193 35 -240 18 -230 -15 10 -75 -35 -163 -124 -44
-44 -83 -78 -88 -75 -4 3 -8 -9 -8 -25 0 -17 2 -31 5 -31 3 0 41 14 85 30 l79
31 19 57 c11 33 25 58 34 60 13 3 11 -12 -13 -85 -16 -48 -34 -104 -39 -124
-6 -19 -42 -78 -80 -130 -124 -165 -110 -152 -165 -153 -44 -1 -63 7 -150 58
-129 77 -134 82 -142 130 -5 32 -18 53 -60 94 -29 29 -53 46 -53 38 0 -26 -37
-28 -75 -4 -51 33 -135 167 -135 216 0 78 52 84 123 15 40 -38 49 -43 44 -26
-3 13 0 26 5 30 7 4 8 1 3 -8 -7 -12 -6 -12 7 -1 22 18 17 40 -25 104 -59 91
-61 98 -48 174 16 87 34 121 76 141 29 14 44 15 95 5 47 -8 72 -20 119 -59 88
-71 183 -187 230 -282 24 -46 46 -80 51 -75 4 5 19 45 33 89 29 90 118 304
143 342 29 45 43 11 75 -182z m-1148 75 c71 -20 139 -48 205 -85 89 -50 102
-60 127 -108 15 -28 37 -62 48 -75 20 -21 20 -23 4 -39 -16 -16 -19 -15 -50
15 -21 21 -43 32 -61 32 -20 0 -46 16 -88 51 -32 29 -61 49 -64 47 -3 -3 20
-28 51 -56 33 -29 52 -53 46 -57 -13 -8 -13 -8 -125 77 -50 38 -104 86 -121
107 -83 103 -96 121 -88 121 5 0 57 -13 116 -30z m65 -197 c61 -49 109 -89
108 -89 0 -1 -30 4 -66 11 -42 8 -94 29 -147 59 -45 25 -112 58 -150 72 -37
14 -70 28 -72 30 -2 2 46 4 107 4 l111 0 109 -87z m79 -103 l51 -11 4 -48 3
-48 -37 13 c-20 7 -47 18 -58 24 -12 6 -24 9 -27 7 -7 -8 65 -43 104 -51 25
-6 68 -36 51 -36 -42 0 -342 145 -318 154 45 16 138 15 227 -4z m1013 -40 c0
-13 -10 -24 -26 -30 -15 -6 -70 -47 -123 -92 l-96 -82 69 74 c131 141 176 174
176 130z m-80 -114 c-13 -41 -10 -38 -78 -65 -58 -23 -72 -20 -17 3 21 9 35
22 35 32 0 16 60 76 68 69 2 -2 -1 -20 -8 -39z m-870 -5 c24 -10 51 -29 59
-41 15 -23 15 -23 -14 -16 -17 4 -64 23 -105 41 l-75 35 45 -1 c25 0 65 -8 90
-18z m159 -143 c0 -7 -6 -44 -12 -81 l-12 -68 -35 36 c-31 32 -32 35 -12 35
13 0 22 -6 22 -15 0 -8 5 -15 10 -15 6 0 10 24 10 53 0 30 3 57 7 60 11 11 23
8 22 -5z m110 -14 c39 -32 48 -68 56 -229 3 -72 10 -147 15 -168 7 -34 5 -41
-25 -72 -24 -26 -41 -35 -66 -35 -21 0 -29 -3 -21 -8 24 -16 73 0 94 29 12 16
25 29 29 29 4 0 15 -21 25 -46 15 -40 25 -50 68 -70 36 -17 69 -24 111 -24 52
0 67 5 110 34 83 55 122 58 143 11 24 -52 -56 -155 -119 -155 -34 0 -46 10
-57 50 l-10 35 -1 -32 c-1 -20 7 -41 19 -53 19 -19 19 -19 -27 -40 -57 -25
-74 -20 -113 32 -16 23 -30 36 -30 29 0 -18 51 -82 71 -90 16 -5 14 -11 -13
-56 -39 -65 -75 -88 -172 -110 -70 -15 -86 -23 -130 -65 -67 -62 -122 -77
-192 -53 l-49 17 30 12 c17 7 35 13 42 14 13 0 53 61 53 80 0 6 16 30 35 53
25 29 34 48 31 63 -7 26 62 171 95 200 13 12 38 29 54 38 26 15 27 16 5 10
-41 -10 -101 -75 -132 -142 -28 -62 -33 -65 -65 -39 -14 10 1 47 42 102 36 49
39 63 6 25 -18 -19 -39 -48 -48 -65 -8 -16 -17 -32 -19 -34 -2 -2 -30 18 -61
45 -97 82 -101 82 -20 -3 42 -44 77 -88 77 -96 0 -17 -62 -87 -77 -87 -18 0
-196 125 -214 150 -15 21 -17 33 -9 75 11 57 38 85 80 85 17 0 30 7 34 16 6
15 8 15 26 -1 11 -10 20 -15 20 -12 0 7 -132 199 -172 249 -16 20 -37 62 -48
94 -19 53 -19 58 -3 85 15 25 23 29 63 29 l45 0 120 -181 c65 -99 128 -187
139 -197 22 -19 15 -1 -12 31 -18 21 -16 23 26 32 30 6 32 5 34 -22 1 -15 4
75 7 200 6 211 7 230 25 243 28 20 40 18 75 -12z m-369 -65 c19 -12 60 -41 91
-65 45 -34 58 -52 67 -85 l11 -42 -37 36 c-20 19 -53 40 -72 46 -24 8 -48 28
-74 62 -34 46 -41 51 -68 45 -17 -3 -38 -6 -48 -6 -22 0 -63 -67 -57 -91 7
-27 -20 -59 -51 -59 -21 0 -45 -17 -95 -68 -61 -61 -70 -76 -92 -147 -20 -67
-23 -92 -18 -150 l6 -70 -27 33 c-42 49 -50 162 -22 300 l20 104 73 64 c96 87
160 113 273 114 70 0 91 -4 120 -21z m566 -181 c49 -46 107 -98 129 -116 25
-22 33 -32 20 -29 -11 3 -36 9 -55 12 -24 5 -54 25 -94 63 -57 56 -64 40 -9
-19 l24 -26 -42 -7 c-59 -9 -89 12 -89 63 0 21 -3 66 -7 101 -6 60 -5 62 14
52 11 -6 60 -48 109 -94z m-438 9 l32 -33 -35 4 c-33 4 -50 19 -79 69 -14 24
50 -7 82 -40z m-259 -56 l19 -27 -56 -22 c-39 -16 -67 -36 -89 -64 -48 -59
-40 -68 11 -12 29 33 60 55 92 67 l49 18 27 -33 c15 -18 28 -36 28 -40 0 -3
-29 -29 -64 -58 -36 -28 -68 -61 -72 -73 -4 -12 -26 -62 -49 -112 -23 -49 -46
-100 -49 -112 -9 -29 57 -221 94 -278 44 -67 44 -67 7 -49 -26 12 -42 32 -67
83 -34 69 -60 145 -59 171 0 10 2 11 6 3 2 -7 9 -13 14 -13 12 0 -9 51 -31 75
-10 11 -25 35 -33 54 -13 29 -13 39 -1 67 8 18 14 40 14 49 0 30 -16 14 -32
-33 -18 -49 -13 -96 11 -125 5 -7 18 -43 30 -81 l20 -70 -23 25 c-37 38 -76
171 -83 285 -5 83 -2 110 15 169 18 60 30 78 79 128 45 44 66 57 88 57 20 0
35 7 44 22 13 21 13 21 27 -11 7 -18 22 -45 33 -60z m866 14 c27 3 58 13 67
22 17 15 18 14 18 -18 1 -19 7 -47 16 -64 l14 -30 -5 33 c-2 17 -2 32 0 32 3
0 38 -17 78 -37 l72 -36 -42 -11 c-23 -6 -53 -22 -67 -35 l-24 -23 -61 32
c-33 18 -95 65 -138 106 l-78 73 50 -25 c42 -21 58 -24 100 -19z m-546 -19
c15 -8 33 -22 40 -30 12 -14 8 -16 -32 -16 -35 0 -51 6 -67 22 -11 12 -20 25
-20 30 0 13 49 9 79 -6z m59 -78 c-3 -7 -19 -15 -37 -19 -25 -5 -34 -3 -42 12
-9 17 -6 19 36 19 32 0 45 -4 43 -12z m429 -22 c82 -15 187 -60 214 -92 13
-15 12 -16 -9 -10 -14 5 -42 1 -71 -10 l-48 -17 -112 39 c-92 32 -117 45 -137
72 l-25 32 53 0 c29 0 90 -6 135 -14z m381 -39 l43 -43 -41 -52 c-23 -29 -45
-52 -49 -52 -3 0 -35 29 -71 65 -63 63 -63 65 -45 85 18 20 62 37 100 39 12 1
39 -18 63 -42z m-1064 -33 c30 -45 25 -60 -22 -69 -20 -4 -45 -14 -54 -22 -20
-18 -42 -114 -33 -142 4 -12 -2 -23 -18 -34 -15 -10 -27 -32 -35 -66 -11 -48
-10 -54 12 -90 13 -21 30 -44 38 -52 7 -8 27 -43 45 -79 22 -45 32 -58 32 -42
1 13 -6 37 -15 53 -8 17 -13 33 -11 36 10 9 74 -25 111 -59 21 -19 61 -42 90
-51 74 -24 142 -5 205 57 39 38 61 50 131 71 47 14 98 35 113 46 16 11 30 19
33 17 5 -5 -74 -141 -87 -149 -6 -3 -49 -12 -97 -19 -107 -15 -142 -32 -59
-28 31 2 57 2 57 1 0 -1 -26 -19 -57 -39 -77 -49 -120 -53 -213 -20 -40 15
-86 38 -102 51 -46 39 -56 29 -15 -13 24 -25 58 -45 95 -58 l57 -19 -91 -3
c-81 -2 -95 0 -136 23 -24 14 -52 33 -60 42 -49 55 -107 160 -137 248 l-34
100 49 123 c46 117 52 126 107 173 32 27 63 49 68 49 4 0 19 -16 33 -36z m972
-101 c-9 -9 -35 11 -45 35 l-13 27 31 -29 c17 -16 29 -31 27 -33z m-905 -273
c47 -28 68 -47 71 -64 6 -29 -15 -84 -35 -92 -8 -3 -55 11 -105 31 -77 31 -94
42 -117 77 -23 34 -26 48 -21 82 4 25 15 48 29 58 21 16 23 15 67 -18 25 -18
75 -52 111 -74z m190 42 c8 -21 5 -30 -18 -54 -25 -26 -73 -39 -73 -20 0 5 14
21 30 37 17 16 30 39 30 52 0 30 17 21 31 -15z m-71 -127 c0 -24 -12 -45 -32
-56 -17 -9 -18 -8 -9 10 6 11 11 31 11 45 0 18 4 24 15 20 8 -4 15 -12 15 -19z"/>
<path d="M3938 6858 c-3 -24 -8 -52 -12 -63 -8 -20 -7 -20 8 -1 9 11 16 38 16
63 0 55 -7 55 -12 1z"/>
<path d="M3727 6833 c-14 -25 -15 -62 -2 -79 14 -18 14 -17 9 13 -9 47 1 67
26 53 16 -9 18 -15 10 -30 -13 -24 -13 -50 0 -50 6 0 10 9 10 21 0 12 5 19 13
16 6 -2 11 -13 9 -23 -13 -73 -13 -81 1 -93 13 -10 15 -7 12 26 -1 21 0 26 2
11 2 -16 11 -28 18 -28 8 0 19 -9 25 -19 13 -25 13 -34 0 -26 -5 3 -10 1 -10
-4 0 -6 7 -11 15 -11 25 0 18 48 -10 66 -18 12 -23 22 -19 38 11 46 -88 155
-109 119z"/>
<path d="M4124 6811 c2 -3 26 -22 53 -40 l48 -34 -34 35 c-28 31 -80 61 -67
39z"/>
<path d="M3943 6767 c-27 -29 -19 -47 22 -47 52 0 63 -8 76 -61 9 -32 18 -49
28 -49 11 0 12 3 5 8 -13 8 -36 82 -26 82 16 -1 52 -27 72 -52 17 -22 29 -28
58 -26 21 0 51 -7 67 -16 l30 -17 -55 5 c-30 4 -73 8 -95 11 -22 2 0 -4 50
-15 49 -10 94 -15 100 -12 5 4 21 7 35 7 19 0 26 6 28 25 2 18 0 21 -6 12 -11
-17 -26 -10 -195 91 -132 78 -164 87 -194 54z m176 -56 c53 -32 120 -70 149
-85 28 -14 52 -28 52 -31 0 -7 -46 12 -180 76 -69 32 -139 59 -154 59 -28 0
-29 0 -11 20 10 11 25 20 33 20 8 0 58 -26 111 -59z m46 -79 c-3 -3 -11 0 -18
7 -9 10 -8 11 6 5 10 -3 15 -9 12 -12z"/>
<path d="M4433 6765 c-3 -9 -3 -18 -1 -21 3 -3 8 4 11 16 6 23 -1 27 -10 5z"/>
<path d="M4355 6570 c-16 -7 -17 -9 -3 -9 9 -1 20 4 23 9 7 11 7 11 -20 0z"/>
<path d="M4405 6570 c-16 -7 -17 -9 -3 -9 9 -1 20 4 23 9 7 11 7 11 -20 0z"/>
<path d="M4073 6563 c15 -2 39 -2 55 0 15 2 2 4 -28 4 -30 0 -43 -2 -27 -4z"/>
<path d="M4168 6563 c7 -3 16 -2 19 1 4 3 -2 6 -13 5 -11 0 -14 -3 -6 -6z"/>
<path d="M4330 6541 c0 -6 5 -13 10 -16 6 -3 10 1 10 9 0 9 -4 16 -10 16 -5 0
-10 -4 -10 -9z"/>
<path d="M4381 6524 c0 -11 3 -14 6 -6 3 7 2 16 -1 19 -3 4 -6 -2 -5 -13z"/>
<path d="M4390 6491 c0 -6 4 -13 10 -16 6 -3 7 1 4 9 -7 18 -14 21 -14 7z"/>
<path d="M4320 6461 c0 -5 -9 -12 -19 -16 -26 -8 -35 -38 -21 -65 9 -18 19
-21 58 -18 l47 3 1 45 c1 32 -4 47 -15 52 -24 10 -51 9 -51 -1z m36 -31 c14 0
23 -4 20 -8 -7 -11 -86 -15 -86 -4 0 15 13 23 28 17 7 -3 25 -5 38 -5z m14
-45 c0 -11 -10 -15 -37 -13 -37 1 -37 1 -5 5 17 2 32 8 32 14 0 5 2 9 5 9 3 0
5 -7 5 -15z"/>
<path d="M3965 6360 c-3 -5 -22 -10 -41 -10 -21 0 -33 -4 -29 -10 8 -13 55 -2
75 16 8 8 11 14 8 14 -4 0 -10 -4 -13 -10z"/>
<path d="M3560 6270 c-14 -11 -34 -20 -45 -21 -16 -1 -17 -2 -3 -6 19 -5 78
23 78 37 0 13 -1 13 -30 -10z"/>
<path d="M3920 6210 l-25 -8 25 0 c14 0 34 3 45 8 l20 9 -20 -1 c-11 0 -31 -4
-45 -8z"/>
<path d="M3674 6139 c-3 -6 -20 -19 -38 -30 -17 -10 -25 -19 -18 -19 18 0 59
28 66 46 6 16 0 19 -10 3z"/>
<path d="M3793 5984 c-3 -9 -24 -24 -45 -34 -25 -11 -34 -19 -25 -23 19 -7 69
27 79 53 4 11 5 20 2 20 -2 0 -7 -7 -11 -16z"/>
<path d="M4017 5873 c-18 -41 -37 -156 -36 -213 1 -19 8 14 15 73 8 60 21 122
30 139 8 16 14 32 11 34 -2 2 -11 -13 -20 -33z"/>
<path d="M3430 7828 c-1 -22 63 -199 85 -233 27 -44 34 -41 10 6 -9 16 -29 69
-46 117 -30 84 -48 125 -49 110z"/>
<path d="M3710 7805 c0 -17 114 -256 127 -267 10 -8 7 5 -9 37 -14 28 -42 89
-63 138 -32 75 -55 113 -55 92z"/>
<path d="M3025 7320 c3 -5 10 -10 16 -10 5 0 9 5 9 10 0 6 -7 10 -16 10 -8 0
-12 -4 -9 -10z"/>
<path d="M4788 4980 c-1 -5 -31 -16 -65 -25 -97 -25 -222 -117 -223 -164 -1
-26 -23 -48 -46 -45 -12 2 -50 16 -85 32 -90 41 -120 51 -154 56 -36 4 -59 12
-106 36 -33 18 -40 18 -115 5 -95 -17 -169 -40 -201 -60 -32 -21 -137 -235
-185 -375 -38 -111 -39 -119 -38 -245 1 -177 -15 -250 -113 -537 -97 -283
-103 -314 -115 -633 -7 -204 -7 -213 17 -304 l25 -94 -18 -125 c-17 -124 -17
-125 -61 -175 l-44 -51 36 -45 c20 -25 53 -64 72 -87 20 -22 41 -48 46 -58 6
-10 27 -20 51 -23 38 -5 42 -3 52 23 6 16 13 44 14 63 3 34 3 33 41 -34 21
-38 40 -79 43 -91 3 -13 11 -21 17 -18 7 2 28 -21 47 -51 21 -34 51 -65 76
-80 23 -14 54 -39 68 -56 18 -21 28 -26 31 -17 59 160 77 291 56 412 -11 63
-10 74 15 164 26 91 32 102 93 169 65 70 67 74 120 232 29 89 56 161 60 161 3
0 17 -30 30 -66 19 -52 23 -84 22 -147 -2 -71 -6 -88 -42 -159 l-40 -80 7
-133 7 -133 -34 -17 c-19 -10 -35 -18 -37 -20 -1 -1 25 -176 57 -389 51 -333
62 -391 80 -410 19 -20 20 -24 7 -36 -12 -9 -13 -17 -5 -33 8 -15 8 -34 0 -71
-7 -28 -13 -87 -14 -131 l-2 -80 85 -41 85 -41 284 -33 c290 -33 365 -35 651
-21 133 6 134 6 150 33 14 26 13 29 -5 47 -11 10 -119 81 -240 156 -121 76
-248 160 -283 188 -61 48 -63 51 -57 87 4 27 2 40 -9 49 -11 10 -13 18 -6 31
14 26 13 263 0 255 -7 -4 -10 -52 -10 -123 1 -64 -1 -125 -5 -134 -4 -9 -2
-26 4 -37 17 -30 3 -67 -32 -92 -18 -11 -23 -18 -12 -14 11 4 27 9 36 12 8 2
39 -15 70 -40 30 -24 91 -68 136 -98 l82 -55 -34 -27 c-18 -15 -61 -71 -95
-126 -60 -96 -63 -99 -94 -95 -36 5 -362 42 -451 50 -36 4 -92 21 -142 43
l-82 36 0 80 c1 44 4 94 8 110 l7 30 68 -3 c83 -5 82 11 -2 29 -63 14 -75 24
-60 49 13 21 50 15 154 -24 74 -27 125 -31 234 -17 52 6 49 7 -53 15 -59 4
-125 14 -145 22 -35 13 -31 14 78 12 l115 -2 63 38 c35 21 61 40 59 43 -3 2
-36 -11 -73 -29 l-69 -34 -180 9 c-146 7 -183 12 -197 26 -13 12 -26 69 -48
221 -88 587 -83 542 -66 558 9 9 19 12 23 8 4 -4 1 -11 -7 -16 -13 -8 -12 -12
5 -24 11 -9 31 -16 45 -16 14 0 90 -11 170 -25 140 -24 301 -32 368 -19 17 4
48 22 69 40 21 19 30 31 21 28 -14 -5 -18 0 -18 21 0 26 1 27 23 13 21 -15 22
-21 25 -212 1 -119 6 -196 12 -196 11 0 14 310 4 373 -5 26 -15 42 -34 54 -26
15 -28 20 -34 117 -8 134 -14 173 -31 207 -11 21 -15 64 -15 165 l0 137 34 47
c47 66 66 164 65 339 -1 150 -10 243 -22 224 -8 -13 -58 2 -174 51 -34 14 -79
26 -100 26 -21 0 -43 4 -48 8 -6 4 -37 48 -70 97 -81 123 -152 203 -200 225
-22 11 -53 28 -70 40 -16 11 -37 20 -46 20 -23 0 -30 23 -35 108 -2 40 -15
114 -29 165 -14 50 -25 97 -25 102 0 6 15 -12 33 -40 36 -57 79 -107 154 -182
39 -39 60 -53 81 -53 23 0 32 -7 45 -36 10 -19 15 -39 12 -44 -3 -5 1 -26 10
-46 8 -20 17 -47 19 -60 9 -51 115 -172 177 -204 20 -11 85 -30 144 -43 59
-14 111 -31 116 -38 16 -26 10 78 -15 244 -31 211 -39 306 -31 368 l7 51 35
-34 c19 -18 43 -47 53 -64 31 -49 56 -58 128 -44 54 11 65 17 83 46 16 26 28
34 49 34 25 0 29 4 35 41 4 23 20 55 36 74 20 23 29 43 29 68 0 25 6 39 19 46
29 16 32 36 10 93 -10 29 -17 40 -14 24 3 -15 8 -41 12 -56 7 -37 -23 -57
-101 -66 l-60 -7 24 39 c13 21 32 49 43 62 11 12 15 22 9 22 -12 0 -37 78 -28
87 3 3 23 1 46 -5 22 -5 40 -6 40 -2 0 5 -20 12 -45 16 -25 3 -55 14 -68 24
-13 11 -58 22 -115 30 -51 7 -95 17 -98 21 -3 5 -14 9 -24 9 -28 0 -133 127
-126 154 8 36 19 176 13 176 -3 0 -7 -4 -9 -10z m60 -286 c24 -30 49 -51 60
-50 9 0 17 -6 16 -14 -1 -12 15 -15 82 -16 133 -2 136 -4 163 -107 9 -35 7
-44 -20 -87 -16 -26 -37 -69 -45 -94 -28 -81 -74 -44 -74 58 0 56 3 63 38 100
35 38 36 39 7 21 -16 -10 -39 -29 -51 -43 -18 -22 -31 -27 -90 -30 -67 -5 -68
-20 -1 -21 16 -1 27 -7 27 -15 0 -16 -40 -68 -80 -103 -14 -12 -19 -23 -13
-23 7 0 32 17 55 38 36 31 39 32 20 8 -12 -16 -22 -35 -22 -43 0 -8 -14 -27
-32 -43 -43 -40 -68 -27 -68 34 0 38 4 45 28 55 36 16 88 59 80 67 -4 3 -27
-9 -53 -27 -27 -19 -49 -29 -54 -23 -17 18 -20 82 -5 101 14 18 54 100 54 111
0 3 -14 -13 -32 -36 -17 -23 -33 -40 -35 -38 -2 1 11 28 28 59 35 65 32 75 -6
20 l-25 -38 0 61 c0 34 -3 90 -6 125 -4 40 -3 60 3 54 5 -5 28 -33 51 -61z
m162 -318 c0 -24 3 -53 7 -63 6 -17 5 -17 -15 1 -22 19 -28 58 -16 90 12 30
24 16 24 -28z m236 -58 c-9 -45 -25 -58 -92 -74 -65 -15 -88 -6 -62 23 9 10
19 30 23 45 7 28 20 32 104 36 33 2 33 1 27 -30z m-117 -94 c65 7 67 6 55 -41
-6 -23 -10 -24 -113 -38 -43 -6 -43 -6 -37 22 5 23 4 25 -6 12 -9 -13 -16 -10
-49 26 -44 48 -45 52 -23 84 l16 23 48 -47 48 -48 61 7z m-159 -49 c38 -39 49
-44 92 -47 45 -3 48 -5 36 -20 -13 -18 -123 -46 -134 -35 -3 3 0 16 7 29 11
22 11 22 -7 6 -19 -16 -21 -15 -53 33 -33 48 -34 50 -15 64 10 8 21 15 24 15
3 0 26 -20 50 -45z m250 -3085 c0 -19 -23 -21 -56 -5 -36 17 -40 25 -23 42 8
8 20 6 45 -9 19 -11 34 -24 34 -28z m72 -26 c21 -11 27 -19 20 -26 -19 -19
-91 10 -78 31 10 15 21 14 58 -5z m68 -45 c0 -5 -7 -9 -15 -9 -15 0 -20 12 -9
23 8 8 24 -1 24 -14z"/>
<path d="M3186 2092 c-15 -63 -26 -138 -26 -179 l0 -70 -40 -18 c-23 -10 -43
-22 -46 -26 -12 -21 -86 -792 -77 -815 3 -8 0 -28 -7 -44 -9 -21 -9 -38 -2
-59 8 -23 6 -47 -10 -108 -18 -68 -19 -95 -13 -218 9 -179 16 -216 50 -257 15
-18 111 -84 214 -146 l185 -112 76 0 c75 0 76 0 122 42 41 38 51 57 92 170 25
71 46 138 45 150 0 13 -22 113 -48 223 l-48 200 19 28 c11 15 18 33 15 40 -2
6 6 23 18 37 14 15 29 55 39 100 10 41 44 198 77 349 l59 273 -22 36 c-12 20
-21 46 -20 58 2 16 -3 23 -25 27 -15 3 -44 16 -64 30 -19 13 -47 27 -60 30
-14 4 -41 18 -60 32 -85 62 -161 81 -194 48 -14 -14 -18 -14 -26 -2 -5 8 -9
17 -9 21 0 5 -5 7 -11 5 -7 -1 -15 10 -19 24 -4 15 -25 53 -47 85 -22 33 -42
64 -44 69 -8 20 -54 85 -61 85 -3 0 -18 -49 -32 -108z m-36 -303 c0 -17 -5
-20 -25 -17 -36 7 -31 -8 13 -36 85 -54 211 -110 308 -137 l102 -28 133 25
c139 27 158 32 141 43 -6 4 -6 15 0 30 l9 25 16 -23 c14 -21 11 -44 -58 -359
-83 -377 -85 -382 -167 -401 -88 -20 -159 -23 -214 -11 -78 18 -95 6 -23 -15
51 -15 72 -16 150 -7 49 6 100 14 113 17 16 6 22 3 22 -9 0 -27 -34 -52 -111
-81 -41 -16 -78 -32 -84 -37 -17 -15 59 4 112 27 l53 24 9 -37 c19 -69 72
-327 77 -372 l6 -45 -56 57 -56 56 -85 7 c-64 6 -108 3 -182 -11 l-98 -19 -93
-91 -92 -92 -33 38 -33 39 -11 162 c-10 139 -10 174 4 238 8 42 17 77 18 79 2
2 26 -8 53 -22 57 -29 140 -47 128 -28 -4 7 -12 12 -17 12 -23 0 -169 74 -169
86 0 7 -2 18 -5 26 -3 7 -1 19 4 27 7 11 20 5 63 -31 l53 -46 167 -21 c113
-14 174 -18 190 -12 12 6 16 10 8 10 -8 1 -91 12 -184 26 l-170 26 -55 45
c-48 40 -57 52 -61 87 -4 37 63 765 72 772 10 7 44 24 51 25 4 0 7 -10 7 -21z
m472 -1342 c4 -7 8 -29 8 -50 l0 -37 -42 6 c-54 8 -55 10 -64 63 l-7 44 49 -8
c27 -4 52 -12 56 -18z m12 -117 c6 -6 6 -21 0 -42 -9 -31 -12 -33 -49 -30 -22
2 -40 5 -41 5 -1 1 -4 22 -8 46 l-7 44 48 -7 c26 -3 51 -10 57 -16z m-35 -99
c21 -13 0 -65 -27 -69 -20 -3 -22 1 -22 37 0 42 16 53 49 32z"/>
<path d="M3420 1555 c0 -4 16 -25 35 -46 19 -22 35 -47 35 -57 0 -9 -13 -100
-29 -202 -16 -102 -31 -212 -34 -245 l-6 -60 14 54 c7 29 28 145 46 258 30
184 32 207 19 230 -15 27 -80 82 -80 68z"/>
<path d="M3419 1492 c13 -24 51 -58 51 -45 0 6 -9 22 -21 37 -23 30 -45 36
-30 8z"/>
<path d="M4828 2053 c-12 -15 -14 -44 -10 -160 2 -79 8 -143 12 -143 5 0 6 62
3 138 -4 96 -2 145 6 160 14 26 10 28 -11 5z"/>
<path d="M4834 1635 c0 -55 1 -76 3 -47 2 29 2 74 0 100 -2 26 -3 2 -3 -53z"/>
</g>
</svg>
